*
*
G04 PADS 9.3.1 Build Number: 456998 generated Gerber (RS-274-X) file*
G04 PC Version=2.1*
*
%IN "remoteMonitor.pcb"*%
*
%MOIN*%
*
%FSLAX35Y35*%
*
*
*
*
G04 PC Standard Apertures*
*
*
G04 Thermal Relief Aperture macro.*
%AMTER*
1,1,$1,0,0*
1,0,$1-$2,0,0*
21,0,$3,$4,0,0,45*
21,0,$3,$4,0,0,135*
%
*
*
G04 Annular Aperture macro.*
%AMANN*
1,1,$1,0,0*
1,0,$2,0,0*
%
*
*
G04 Odd Aperture macro.*
%AMODD*
1,1,$1,0,0*
1,0,$1-0.005,0,0*
%
*
*
G04 PC Custom Aperture Macros*
*
*
*
*
*
*
G04 PC Aperture Table*
*
%ADD010C,0.001*%
%ADD019C,0.01*%
%ADD021C,0.025*%
%ADD022C,0.005*%
%ADD080C,0.03*%
*
*
*
*
G04 PC Circuitry*
G04 Layer Name remoteMonitor.pcb - circuitry*
%LPD*%
*
*
G04 PC Custom Flashes*
G04 Layer Name remoteMonitor.pcb - flashes*
%LPD*%
*
*
G04 PC Circuitry*
G04 Layer Name remoteMonitor.pcb - circuitry*
%LPD*%
*
G54D10*
G54D19*
G01X215000Y478200D02*
Y484000D01*
X222000*
Y478200*
X215000Y475800D02*
Y470000D01*
X222000*
Y475800*
X235300Y490000D02*
X229500D01*
Y497000*
X235300*
X237700Y490000D02*
X243500D01*
Y497000*
X237700*
X222000Y489800D02*
Y484000D01*
X215000*
Y489800*
X222000Y492200D02*
Y498000D01*
X215000*
Y492200*
X209800Y463000D02*
X204000D01*
Y470000*
X209800*
X212200Y463000D02*
X218000D01*
Y470000*
X212200*
X189800Y463000D02*
X184000D01*
Y470000*
X189800*
X192200Y463000D02*
X198000D01*
Y470000*
X192200*
X236000Y479300D02*
Y473500D01*
X229000*
Y479300*
X236000Y481700D02*
Y487500D01*
X229000*
Y481700*
X238000D02*
Y487500D01*
X245000*
Y481700*
X238000Y479300D02*
Y473500D01*
X245000*
Y479300*
X297074Y222200D02*
G75*
G03X297074I-47074J0D01*
G01Y375000D02*
G03X297074I-47074J0D01*
G01X360700Y513500D02*
X366500D01*
Y506500*
X360700*
X358300Y513500D02*
X352500D01*
Y506500*
X358300*
X360700Y524000D02*
X366500D01*
Y517000*
X360700*
X358300Y524000D02*
X352500D01*
Y517000*
X358300*
X360700Y534000D02*
X366500D01*
Y527000*
X360700*
X358300Y534000D02*
X352500D01*
Y527000*
X358300*
X100000Y100000D02*
X400000D01*
Y549500*
X100000*
Y100000*
X155000Y243500D02*
X145000Y232500D01*
X141500Y236499D02*
G03X145001Y232500I2286J-1530D01*
G01X141500Y236500D02*
X153500Y246000D01*
X154000Y243500D02*
X144750Y233209D01*
X142136Y236224D02*
G03X144748Y233208I1710J-1158D01*
G01X142135Y236222D02*
X153385Y245013D01*
X153720Y244251D02*
X144500Y234000D01*
X142808Y235994D02*
G03X144499Y234000I1113J-771D01*
G01X142807Y235993D02*
X153193Y245007D01*
X172000Y229063D02*
Y222500D01*
X169955Y226875D02*
Y222500D01*
Y225625D02*
X169273Y226563D01*
X169273D02*
X168818Y226875D01*
X168136*
X167682Y226563*
X167682D02*
X167455Y225625D01*
Y222500*
X162909Y225938D02*
X163136Y226563D01*
X163136D02*
X163818Y226875D01*
X164500*
X165182Y226563*
X165182D02*
X165409Y225938D01*
X165409D02*
X165182Y225313D01*
X165182D02*
X164727Y225000D01*
X163591Y224688*
X163591D02*
X163136Y224375D01*
X162909Y223750*
Y223438*
X162909D02*
X163136Y222813D01*
X163136D02*
X163818Y222500D01*
X164500*
X165182Y222813*
X165182D02*
X165409Y223438D01*
X160864Y226875D02*
Y220312D01*
Y225938D02*
X160409Y226563D01*
X160409D02*
X159955Y226875D01*
X159273*
X158818Y226563*
X158818D02*
X158364Y225938D01*
X158364D02*
X158136Y225000D01*
Y224375*
X158364Y223438*
X158364D02*
X158818Y222813D01*
X158818D02*
X159273Y222500D01*
X159955*
X160409Y222813*
X160409D02*
X160864Y223438D01*
X156091Y225000D02*
X153364D01*
Y225625*
X153591Y226250*
X153818Y226563*
X153818D02*
X154273Y226875D01*
X154955*
X155409Y226563*
X155409D02*
X155864Y225938D01*
X155864D02*
X156091Y225000D01*
Y224375*
X155864Y223438*
X155864D02*
X155409Y222813D01*
X155409D02*
X154955Y222500D01*
X154273*
X153818Y222813*
X153818D02*
X153364Y223438D01*
X148591Y225938D02*
X149045Y226563D01*
X149045D02*
X149500Y226875D01*
X150182*
X150636Y226563*
X150636D02*
X151091Y225938D01*
X151091D02*
X151318Y225000D01*
Y224375*
X151091Y223438*
X151091D02*
X150636Y222813D01*
X150636D02*
X150182Y222500D01*
X149500*
X149045Y222813*
X149045D02*
X148591Y223438D01*
X145864Y229063D02*
Y223750D01*
X145636Y222813*
X145636D02*
X145182Y222500D01*
X144727*
X146545Y226875D02*
X144955D01*
X141545D02*
X142000Y226563D01*
X142000D02*
X142455Y225938D01*
X142455D02*
X142682Y225000D01*
Y224375*
X142455Y223438*
X142455D02*
X142000Y222813D01*
X142000D02*
X141545Y222500D01*
X140864*
X140409Y222813*
X140409D02*
X139955Y223438D01*
X139955D02*
X139727Y224375D01*
Y225000*
X139955Y225938*
X139955D02*
X140409Y226563D01*
X140409D02*
X140864Y226875D01*
X141545*
X137682D02*
Y222500D01*
Y225000D02*
X137455Y225938D01*
X137455D02*
X137000Y226563D01*
X137000D02*
X136545Y226875D01*
X135864*
X181500Y238563D02*
Y232000D01*
Y238563D02*
X179455D01*
X179455D02*
X178773Y238250D01*
X178545Y237938*
X178545D02*
X178318Y237313D01*
X178318D02*
Y236375D01*
X178545Y235750*
X178773Y235438*
X178773D02*
X179455Y235125D01*
X181500*
X175136Y236375D02*
X175591Y236063D01*
X175591D02*
X176045Y235438D01*
X176045D02*
X176273Y234500D01*
Y233875*
X176045Y232938*
X176045D02*
X175591Y232313D01*
X175591D02*
X175136Y232000D01*
X174455*
X174000Y232313*
X174000D02*
X173545Y232938D01*
X173545D02*
X173318Y233875D01*
Y234500*
X173545Y235438*
X173545D02*
X174000Y236063D01*
X174000D02*
X174455Y236375D01*
X175136*
X171273D02*
X170364Y232000D01*
X169455Y236375D02*
X170364Y232000D01*
X169455Y236375D02*
X168545Y232000D01*
X167636Y236375D02*
X168545Y232000D01*
X165591Y234500D02*
X162864D01*
Y235125*
X163091Y235750*
X163318Y236063*
X163318D02*
X163773Y236375D01*
X164455*
X164909Y236063*
X164909D02*
X165364Y235438D01*
X165364D02*
X165591Y234500D01*
Y233875*
X165364Y232938*
X165364D02*
X164909Y232313D01*
X164909D02*
X164455Y232000D01*
X163773*
X163318Y232313*
X163318D02*
X162864Y232938D01*
X160818Y236375D02*
Y232000D01*
Y234500D02*
X160591Y235438D01*
X160591D02*
X160136Y236063D01*
X160136D02*
X159682Y236375D01*
X159000*
X183000Y268063D02*
Y261500D01*
Y268063D02*
X181409D01*
X181409D02*
X180727Y267750D01*
X180273Y267125*
X180045Y266500*
X179818Y265563*
X179818D02*
Y264000D01*
X180045Y263063*
X180045D02*
X180273Y262438D01*
X180273D02*
X180727Y261813D01*
X180727D02*
X181409Y261500D01*
X183000*
X177773Y265875D02*
Y261500D01*
Y264000D02*
X177545Y264938D01*
X177545D02*
X177091Y265563D01*
X177091D02*
X176636Y265875D01*
X175955*
X173682Y262125D02*
X173909Y261813D01*
X173909D02*
X173682Y261500D01*
X173455Y261813*
X173455D02*
X173682Y262125D01*
X166182Y268063D02*
X165045Y261500D01*
X163909Y268063D02*
X165045Y261500D01*
X163909Y268063D02*
X162773Y261500D01*
X161636Y268063D02*
X162773Y261500D01*
X156864Y265875D02*
Y261500D01*
Y264938D02*
X157318Y265563D01*
X157318D02*
X157773Y265875D01*
X158455*
X158909Y265563*
X158909D02*
X159364Y264938D01*
X159364D02*
X159591Y264000D01*
Y263375*
X159364Y262438*
X159364D02*
X158909Y261813D01*
X158909D02*
X158455Y261500D01*
X157773*
X157318Y261813*
X157318D02*
X156864Y262438D01*
X154136Y268063D02*
Y262750D01*
X153909Y261813*
X153909D02*
X153455Y261500D01*
X153000*
X154818Y265875D02*
X153227D01*
X150273Y268063D02*
Y262750D01*
X150045Y261813*
X150045D02*
X149591Y261500D01*
X149136*
X150955Y265875D02*
X149364D01*
X144591Y264938D02*
X144818Y265563D01*
X144818D02*
X145500Y265875D01*
X146182*
X146864Y265563*
X146864D02*
X147091Y264938D01*
X147091D02*
X146864Y264313D01*
X146864D02*
X146409Y264000D01*
X145273Y263688*
X145273D02*
X144818Y263375D01*
X144591Y262750*
Y262438*
X144591D02*
X144818Y261813D01*
X144818D02*
X145500Y261500D01*
X146182*
X146864Y261813*
X146864D02*
X147091Y262438D01*
X141409Y265875D02*
X141864Y265563D01*
X141864D02*
X142318Y264938D01*
X142318D02*
X142545Y264000D01*
Y263375*
X142318Y262438*
X142318D02*
X141864Y261813D01*
X141864D02*
X141409Y261500D01*
X140727*
X140273Y261813*
X140273D02*
X139818Y262438D01*
X139818D02*
X139591Y263375D01*
Y264000*
X139818Y264938*
X139818D02*
X140273Y265563D01*
X140273D02*
X140727Y265875D01*
X141409*
X137545D02*
Y261500D01*
Y264625D02*
X136864Y265563D01*
X136864D02*
X136409Y265875D01*
X135727*
X135273Y265563*
X135273D02*
X135045Y264625D01*
Y261500*
G54D21*
X168500Y250000D02*
G03X168500I-8500J0D01*
G54D22*
G01X213000Y474205D02*
X213313Y474091D01*
X213313D02*
X213625Y473864D01*
X213781Y473636*
Y473182*
X213625Y472955*
X213313Y472727*
X213313D02*
X213000Y472614D01*
X212531Y472500*
X211750*
X211281Y472614*
X210969Y472727*
X210656Y472955*
X210500Y473182*
Y473636*
X210656Y473864*
X210969Y474091*
X211281Y474205*
X213156Y475227D02*
X213313Y475455D01*
X213313D02*
X213781Y475795D01*
X210500*
X213781Y477500D02*
X213625Y477159D01*
X213156Y476932*
X212375Y476818*
X211906*
X211125Y476932*
X210656Y477159*
X210500Y477500*
Y477727*
X210656Y478068*
X211125Y478295*
X211906Y478409*
X212375*
X213156Y478295*
X213625Y478068*
X213781Y477727*
Y477500*
Y480909D02*
Y479773D01*
X212375Y479659*
X212531Y479773*
X212688Y480114*
X212688D02*
Y480455D01*
X212688D02*
X212531Y480795D01*
X212219Y481023*
X211750Y481136*
X211438Y481023*
X211438D02*
X210969Y480909D01*
X210656Y480682*
X210500Y480341*
Y480000*
X210656Y479659*
X210813Y479545*
X210813D02*
X211125Y479432D01*
X241295Y501000D02*
X241409Y501312D01*
X241409D02*
X241636Y501625D01*
X241864Y501781*
X242318*
X242545Y501625*
X242773Y501312*
X242773D02*
X242886Y501000D01*
X243000Y500531*
Y499750*
X242886Y499281*
X242773Y498969*
X242545Y498656*
X242318Y498500*
X241864*
X241636Y498656*
X241409Y498969*
X241295Y499281*
X240273Y501156D02*
X240045Y501312D01*
X240045D02*
X239705Y501781D01*
Y498500*
X238000Y501781D02*
X238341Y501625D01*
X238568Y501156*
X238682Y500375*
Y499906*
X238568Y499125*
X238341Y498656*
X238000Y498500*
X237773*
X237432Y498656*
X237205Y499125*
X237091Y499906*
Y500375*
X237205Y501156*
X237432Y501625*
X237773Y501781*
X238000*
X235500D02*
X235841Y501625D01*
X235955Y501312*
X235955D02*
Y501000D01*
X235841Y500687*
X235841D02*
X235614Y500531D01*
X235159Y500375*
X234818Y500219*
X234591Y499906*
X234477Y499594*
Y499125*
X234591Y498812*
X234591D02*
X234705Y498656D01*
X235045Y498500*
X235500*
X235841Y498656*
X235955Y498812*
X235955D02*
X236068Y499125D01*
Y499594*
X235955Y499906*
X235727Y500219*
X235386Y500375*
X234932Y500531*
X234705Y500687*
X234705D02*
X234591Y501000D01*
Y501312*
X234591D02*
X234705Y501625D01*
X235045Y501781*
X235500*
X213000Y488205D02*
X213313Y488091D01*
X213313D02*
X213625Y487864D01*
X213781Y487636*
Y487182*
X213625Y486955*
X213313Y486727*
X213313D02*
X213000Y486614D01*
X212531Y486500*
X211750*
X211281Y486614*
X210969Y486727*
X210656Y486955*
X210500Y487182*
Y487636*
X210656Y487864*
X210969Y488091*
X211281Y488205*
X213156Y489227D02*
X213313Y489455D01*
X213313D02*
X213781Y489795D01*
X210500*
X213781Y491500D02*
X213625Y491159D01*
X213156Y490932*
X212375Y490818*
X211906*
X211125Y490932*
X210656Y491159*
X210500Y491500*
Y491727*
X210656Y492068*
X211125Y492295*
X211906Y492409*
X212375*
X213156Y492295*
X213625Y492068*
X213781Y491727*
Y491500*
X213000Y493545D02*
X213156D01*
X213469Y493659*
X213625Y493773*
X213781Y494000*
Y494455*
X213625Y494682*
X213469Y494795*
X213156Y494909*
X212844*
X212531Y494795*
X212063Y494568*
X212063D02*
X210500Y493432D01*
Y495023*
X208705Y459000D02*
X208591Y458688D01*
X208591D02*
X208364Y458375D01*
X208136Y458219*
X207682*
X207455Y458375*
X207227Y458688*
X207227D02*
X207114Y459000D01*
X207000Y459469*
Y460250*
X207114Y460719*
X207227Y461031*
X207455Y461344*
X207682Y461500*
X208136*
X208364Y461344*
X208591Y461031*
X208705Y460719*
X209727Y458844D02*
X209955Y458688D01*
X209955D02*
X210295Y458219D01*
Y461500*
X212000Y458219D02*
X211659Y458375D01*
X211432Y458844*
X211318Y459625*
Y460094*
X211432Y460875*
X211659Y461344*
X212000Y461500*
X212227*
X212568Y461344*
X212795Y460875*
X212909Y460094*
Y459625*
X212795Y458844*
X212568Y458375*
X212227Y458219*
X212000*
X214159D02*
X215409D01*
X214727Y459469*
X215068*
X215295Y459625*
X215409Y459781*
X215523Y460250*
Y460563*
X215523D02*
X215409Y461031D01*
X215182Y461344*
X214841Y461500*
X214500*
X214159Y461344*
X214045Y461188*
X214045D02*
X213932Y460875D01*
X188705Y459000D02*
X188591Y458688D01*
X188591D02*
X188364Y458375D01*
X188136Y458219*
X187682*
X187455Y458375*
X187227Y458688*
X187227D02*
X187114Y459000D01*
X187000Y459469*
Y460250*
X187114Y460719*
X187227Y461031*
X187455Y461344*
X187682Y461500*
X188136*
X188364Y461344*
X188591Y461031*
X188705Y460719*
X189727Y458844D02*
X189955Y458688D01*
X189955D02*
X190295Y458219D01*
Y461500*
X192000Y458219D02*
X191659Y458375D01*
X191432Y458844*
X191318Y459625*
Y460094*
X191432Y460875*
X191659Y461344*
X192000Y461500*
X192227*
X192568Y461344*
X192795Y460875*
X192909Y460094*
Y459625*
X192795Y458844*
X192568Y458375*
X192227Y458219*
X192000*
X195068D02*
X193932Y460406D01*
X195636*
X195068Y458219D02*
Y461500D01*
X233500Y464705D02*
X233813Y464591D01*
X233813D02*
X234125Y464364D01*
X234281Y464136*
Y463682*
X234125Y463455*
X233813Y463227*
X233813D02*
X233500Y463114D01*
X233031Y463000*
X232250*
X231781Y463114*
X231469Y463227*
X231156Y463455*
X231000Y463682*
Y464136*
X231156Y464364*
X231469Y464591*
X231781Y464705*
X233656Y465727D02*
X233813Y465955D01*
X233813D02*
X234281Y466295D01*
X231000*
X233656Y467318D02*
X233813Y467545D01*
X233813D02*
X234281Y467886D01*
X231000*
X234281Y469136D02*
Y470386D01*
X233031Y469705*
Y470045*
X232875Y470273*
X232719Y470386*
X232250Y470500*
X231938*
X231938D02*
X231469Y470386D01*
X231156Y470159*
X231000Y469818*
Y469477*
X231156Y469136*
X231313Y469023*
X231313D02*
X231625Y468909D01*
X242500Y465205D02*
X242813Y465091D01*
X242813D02*
X243125Y464864D01*
X243281Y464636*
Y464182*
X243125Y463955*
X242813Y463727*
X242813D02*
X242500Y463614D01*
X242031Y463500*
X241250*
X240781Y463614*
X240469Y463727*
X240156Y463955*
X240000Y464182*
Y464636*
X240156Y464864*
X240469Y465091*
X240781Y465205*
X242656Y466227D02*
X242813Y466455D01*
X242813D02*
X243281Y466795D01*
X240000*
X242656Y467818D02*
X242813Y468045D01*
X242813D02*
X243281Y468386D01*
X240000*
X243281Y470545D02*
X241094Y469409D01*
Y471114*
X243281Y470545D02*
X240000D01*
X254364Y239981D02*
Y237481D01*
X254477Y237013*
X254477D02*
X254591Y236856D01*
X254818Y236700*
X255045*
X255273Y236856*
X255386Y237013*
X255386D02*
X255500Y237481D01*
Y237794*
X253341Y239356D02*
X253114Y239513D01*
X253114D02*
X252773Y239981D01*
Y236700*
X251636Y239200D02*
Y239356D01*
X251523Y239669*
X251409Y239825*
X251182Y239981*
X250727*
X250500Y239825*
X250386Y239669*
X250273Y239356*
Y239044*
X250386Y238731*
X250614Y238263*
X250614D02*
X251750Y236700D01*
X250159*
X248455Y239981D02*
X248795Y239825D01*
X249023Y239356*
X249136Y238575*
Y238106*
X249023Y237325*
X248795Y236856*
X248455Y236700*
X248227*
X247886Y236856*
X247659Y237325*
X247545Y238106*
Y238575*
X247659Y239356*
X247886Y239825*
X248227Y239981*
X248455*
X246523Y239356D02*
X246295Y239513D01*
X246295D02*
X245955Y239981D01*
Y236700*
X254364Y393081D02*
Y390581D01*
X254477Y390113*
X254477D02*
X254591Y389956D01*
X254818Y389800*
X255045*
X255273Y389956*
X255386Y390113*
X255386D02*
X255500Y390581D01*
Y390894*
X253341Y392456D02*
X253114Y392613D01*
X253114D02*
X252773Y393081D01*
Y389800*
X251636Y392300D02*
Y392456D01*
X251523Y392769*
X251409Y392925*
X251182Y393081*
X250727*
X250500Y392925*
X250386Y392769*
X250273Y392456*
Y392144*
X250386Y391831*
X250614Y391363*
X250614D02*
X251750Y389800D01*
X250159*
X248455Y393081D02*
X248795Y392925D01*
X249023Y392456*
X249136Y391675*
Y391206*
X249023Y390425*
X248795Y389956*
X248455Y389800*
X248227*
X247886Y389956*
X247659Y390425*
X247545Y391206*
Y391675*
X247659Y392456*
X247886Y392925*
X248227Y393081*
X248455*
X246409Y392300D02*
Y392456D01*
X246295Y392769*
X246182Y392925*
X245955Y393081*
X245500*
X245273Y392925*
X245159Y392769*
X245045Y392456*
Y392144*
X245159Y391831*
X245386Y391363*
X245386D02*
X246523Y389800D01*
X244932*
X343205Y509500D02*
X343091Y509187D01*
X343091D02*
X342864Y508875D01*
X342636Y508719*
X342182*
X341955Y508875*
X341727Y509187*
X341727D02*
X341614Y509500D01*
X341500Y509969*
Y510750*
X341614Y511219*
X341727Y511531*
X341955Y511844*
X342182Y512000*
X342636*
X342864Y511844*
X343091Y511531*
X343205Y511219*
X344795Y508719D02*
X344455Y508875D01*
X344341Y509187*
X344341D02*
Y509500D01*
X344455Y509812*
X344455D02*
X344682Y509969D01*
X345136Y510125*
X345477Y510281*
X345705Y510594*
X345818Y510906*
Y511375*
X345705Y511687*
X345705D02*
X345591Y511844D01*
X345250Y512000*
X344795*
X344455Y511844*
X344341Y511687*
X344341D02*
X344227Y511375D01*
Y510906*
X344341Y510594*
X344568Y510281*
X344909Y510125*
X345364Y509969*
X345591Y509812*
X345591D02*
X345705Y509500D01*
Y509187*
X345705D02*
X345591Y508875D01*
X345250Y508719*
X344795*
X347523D02*
X347182Y508875D01*
X346955Y509344*
X346841Y510125*
Y510594*
X346955Y511375*
X347182Y511844*
X347523Y512000*
X347750*
X348091Y511844*
X348318Y511375*
X348432Y510594*
Y510125*
X348318Y509344*
X348091Y508875*
X347750Y508719*
X347523*
X349455Y509344D02*
X349682Y509187D01*
X349682D02*
X350023Y508719D01*
Y512000*
X343205Y520000D02*
X343091Y519687D01*
X343091D02*
X342864Y519375D01*
X342636Y519219*
X342182*
X341955Y519375*
X341727Y519687*
X341727D02*
X341614Y520000D01*
X341500Y520469*
Y521250*
X341614Y521719*
X341727Y522031*
X341955Y522344*
X342182Y522500*
X342636*
X342864Y522344*
X343091Y522031*
X343205Y521719*
X344795Y519219D02*
X344455Y519375D01*
X344341Y519687*
X344341D02*
Y520000D01*
X344455Y520312*
X344455D02*
X344682Y520469D01*
X345136Y520625*
X345477Y520781*
X345705Y521094*
X345818Y521406*
Y521875*
X345705Y522187*
X345705D02*
X345591Y522344D01*
X345250Y522500*
X344795*
X344455Y522344*
X344341Y522187*
X344341D02*
X344227Y521875D01*
Y521406*
X344341Y521094*
X344568Y520781*
X344909Y520625*
X345364Y520469*
X345591Y520312*
X345591D02*
X345705Y520000D01*
Y519687*
X345705D02*
X345591Y519375D01*
X345250Y519219*
X344795*
X347523D02*
X347182Y519375D01*
X346955Y519844*
X346841Y520625*
Y521094*
X346955Y521875*
X347182Y522344*
X347523Y522500*
X347750*
X348091Y522344*
X348318Y521875*
X348432Y521094*
Y520625*
X348318Y519844*
X348091Y519375*
X347750Y519219*
X347523*
X349568Y520000D02*
Y519844D01*
X349682Y519531*
X349795Y519375*
X350023Y519219*
X350477*
X350705Y519375*
X350818Y519531*
X350932Y519844*
Y520156*
X350818Y520469*
X350591Y520937*
X350591D02*
X349455Y522500D01*
X351045*
X343205Y530000D02*
X343091Y529687D01*
X343091D02*
X342864Y529375D01*
X342636Y529219*
X342182*
X341955Y529375*
X341727Y529687*
X341727D02*
X341614Y530000D01*
X341500Y530469*
Y531250*
X341614Y531719*
X341727Y532031*
X341955Y532344*
X342182Y532500*
X342636*
X342864Y532344*
X343091Y532031*
X343205Y531719*
X344795Y529219D02*
X344455Y529375D01*
X344341Y529687*
X344341D02*
Y530000D01*
X344455Y530312*
X344455D02*
X344682Y530469D01*
X345136Y530625*
X345477Y530781*
X345705Y531094*
X345818Y531406*
Y531875*
X345705Y532187*
X345705D02*
X345591Y532344D01*
X345250Y532500*
X344795*
X344455Y532344*
X344341Y532187*
X344341D02*
X344227Y531875D01*
Y531406*
X344341Y531094*
X344568Y530781*
X344909Y530625*
X345364Y530469*
X345591Y530312*
X345591D02*
X345705Y530000D01*
Y529687*
X345705D02*
X345591Y529375D01*
X345250Y529219*
X344795*
X347523D02*
X347182Y529375D01*
X346955Y529844*
X346841Y530625*
Y531094*
X346955Y531875*
X347182Y532344*
X347523Y532500*
X347750*
X348091Y532344*
X348318Y531875*
X348432Y531094*
Y530625*
X348318Y529844*
X348091Y529375*
X347750Y529219*
X347523*
X349682D02*
X350932D01*
X350250Y530469*
X350591*
X350818Y530625*
X350932Y530781*
X351045Y531250*
Y531562*
X351045D02*
X350932Y532031D01*
X350705Y532344*
X350364Y532500*
X350023*
X349682Y532344*
X349568Y532187*
X349568D02*
X349455Y531875D01*
X184534Y207281D02*
Y204000D01*
Y207281D02*
X183739D01*
X183398Y207125*
X183170Y206813*
X183170D02*
X183057Y206500D01*
X182943Y206031*
Y205250*
X183057Y204781*
X183170Y204469*
X183398Y204156*
X183739Y204000*
X184534*
X181920Y205250D02*
X180557D01*
Y205563*
X180557D02*
X180670Y205875D01*
X180784Y206031*
X181011Y206188*
X181011D02*
X181352D01*
X181352D02*
X181580Y206031D01*
X181807Y205719*
X181920Y205250*
Y204938*
X181920D02*
X181807Y204469D01*
X181580Y204156*
X181352Y204000*
X181011*
X180784Y204156*
X180557Y204469*
X178284Y205719D02*
X178398Y206031D01*
X178739Y206188*
X178739D02*
X179080D01*
X179080D02*
X179420Y206031D01*
X179534Y205719*
X179420Y205406*
X179193Y205250*
X178625Y205094*
X178398Y204938*
X178398D02*
X178284Y204625D01*
Y204469*
X178398Y204156*
X178739Y204000*
X179080*
X179420Y204156*
X179534Y204469*
X177261Y207281D02*
X177148Y207125D01*
X177034Y207281*
X177148Y207438*
X177148D02*
X177261Y207281D01*
X177148Y206188D02*
Y204000D01*
X174648Y206188D02*
Y203687D01*
X174648D02*
X174761Y203219D01*
X174875Y203062*
X174875D02*
X175102Y202906D01*
X175443*
X175670Y203062*
X174648Y205719D02*
X174875Y206031D01*
X175102Y206188*
X175102D02*
X175443D01*
X175443D02*
X175670Y206031D01*
X175898Y205719*
X176011Y205250*
Y204938*
X176011D02*
X175898Y204469D01*
X175670Y204156*
X175443Y204000*
X175102*
X174875Y204156*
X174648Y204469*
X173625Y206188D02*
Y204000D01*
Y205563D02*
X173284Y206031D01*
X173057Y206188*
X173057D02*
X172716D01*
X172716D02*
X172489Y206031D01*
X172375Y205563*
X172375D02*
Y204000D01*
X168739Y207281D02*
Y204000D01*
Y205719D02*
X168511Y206031D01*
X168284Y206188*
X168284D02*
X167943D01*
X167943D02*
X167716Y206031D01*
X167489Y205719*
X167375Y205250*
Y204938*
X167375D02*
X167489Y204469D01*
X167716Y204156*
X167943Y204000*
X168284*
X168511Y204156*
X168739Y204469*
X166239Y206188D02*
X165557Y204000D01*
X164875Y206188D02*
X165557Y204000D01*
X165784Y203375*
X166011Y203062*
X166011D02*
X166239Y202906D01*
X166352*
X161239Y207281D02*
Y204000D01*
Y207281D02*
X159761D01*
X161239Y205719D02*
X160330D01*
X158739Y207281D02*
Y204000D01*
X157716Y206188D02*
Y204625D01*
X157602Y204156*
X157375Y204000*
X157034*
X156807Y204156*
X156466Y204625*
Y206188D02*
Y204000D01*
X155443Y206188D02*
X154193Y204000D01*
Y206188D02*
X155443Y204000D01*
X150557Y207281D02*
Y204000D01*
Y207281D02*
X149080D01*
X150557Y205719D02*
X149648D01*
X150557Y204000D02*
X149080D01*
X148057Y206188D02*
X146807Y204000D01*
Y206188D02*
X148057Y204000D01*
X144420Y205719D02*
X144648Y206031D01*
X144875Y206188*
X144875D02*
X145216D01*
X145216D02*
X145443Y206031D01*
X145670Y205719*
X145784Y205250*
Y204938*
X145784D02*
X145670Y204469D01*
X145443Y204156*
X145216Y204000*
X144875*
X144648Y204156*
X144420Y204469*
X143398Y206188D02*
Y204625D01*
X143284Y204156*
X143057Y204000*
X142716*
X142489Y204156*
X142148Y204625*
Y206188D02*
Y204000D01*
X141125Y206188D02*
Y204000D01*
Y205250D02*
X141011Y205719D01*
X140784Y206031*
X140557Y206188*
X140557D02*
X140216D01*
X137943Y205719D02*
X138057Y206031D01*
X138398Y206188*
X138398D02*
X138739D01*
X138739D02*
X139080Y206031D01*
X139193Y205719*
X139080Y205406*
X138852Y205250*
X138284Y205094*
X138057Y204938*
X138057D02*
X137943Y204625D01*
Y204469*
X138057Y204156*
X138398Y204000*
X138739*
X139080Y204156*
X139193Y204469*
X136920Y207281D02*
X136807Y207125D01*
X136693Y207281*
X136807Y207438*
X136807D02*
X136920Y207281D01*
X136807Y206188D02*
Y204000D01*
X135102Y206188D02*
X135330Y206031D01*
X135557Y205719*
X135670Y205250*
Y204938*
X135670D02*
X135557Y204469D01*
X135330Y204156*
X135102Y204000*
X134761*
X134534Y204156*
X134307Y204469*
X134193Y204938*
X134193D02*
Y205250D01*
X134307Y205719*
X134534Y206031*
X134761Y206188*
X134761D02*
X135102D01*
X133170D02*
Y204000D01*
Y205563D02*
X132830Y206031D01*
X132602Y206188*
X132602D02*
X132261D01*
X132261D02*
X132034Y206031D01*
X131920Y205563*
X131920D02*
Y204000D01*
X180955Y201781D02*
Y198500D01*
X179591*
X177205Y200688D02*
Y198500D01*
Y200219D02*
X177432Y200531D01*
X177659Y200688*
X177659D02*
X178000D01*
X178000D02*
X178227Y200531D01*
X178455Y200219*
X178568Y199750*
Y199438*
X178568D02*
X178455Y198969D01*
X178227Y198656*
X178000Y198500*
X177659*
X177432Y198656*
X177205Y198969*
X176068Y200688D02*
X175386Y198500D01*
X174705Y200688D02*
X175386Y198500D01*
X175614Y197875*
X175841Y197562*
X175841D02*
X176068Y197406D01*
X176182*
X173114Y200688D02*
X173341Y200531D01*
X173568Y200219*
X173682Y199750*
Y199438*
X173682D02*
X173568Y198969D01*
X173341Y198656*
X173114Y198500*
X172773*
X172545Y198656*
X172318Y198969*
X172205Y199438*
X172205D02*
Y199750D01*
X172318Y200219*
X172545Y200531*
X172773Y200688*
X172773D02*
X173114D01*
X171182D02*
Y199125D01*
X171068Y198656*
X170841Y198500*
X170500*
X170273Y198656*
X169932Y199125*
Y200688D02*
Y198500D01*
X168568Y201781D02*
Y199125D01*
X168455Y198656*
X168227Y198500*
X168000*
X168909Y200688D02*
X168114D01*
X164364Y201781D02*
Y198500D01*
Y200219D02*
X164136Y200531D01*
X163909Y200688*
X163909D02*
X163568D01*
X163568D02*
X163341Y200531D01*
X163114Y200219*
X163000Y199750*
Y199438*
X163000D02*
X163114Y198969D01*
X163341Y198656*
X163568Y198500*
X163909*
X164136Y198656*
X164364Y198969*
X161864Y200688D02*
X161182Y198500D01*
X160500Y200688D02*
X161182Y198500D01*
X161409Y197875*
X161636Y197562*
X161636D02*
X161864Y197406D01*
X161977*
X156864Y201781D02*
Y198500D01*
X155273Y201781D02*
X156864Y199594D01*
X156295Y200375D02*
X155273Y198500D01*
X154250Y201781D02*
X154136Y201625D01*
X154023Y201781*
X154136Y201938*
X154136D02*
X154250Y201781D01*
X154136Y200688D02*
Y198500D01*
X152659Y201781D02*
Y199125D01*
X152545Y198656*
X152318Y198500*
X152091*
X153000Y200688D02*
X152205D01*
X148455Y201781D02*
Y198500D01*
Y201781D02*
X147545Y198500D01*
X146636Y201781D02*
X147545Y198500D01*
X146636Y201781D02*
Y198500D01*
X145045Y200688D02*
X145273Y200531D01*
X145500Y200219*
X145614Y199750*
Y199438*
X145614D02*
X145500Y198969D01*
X145273Y198656*
X145045Y198500*
X144705*
X144477Y198656*
X144250Y198969*
X144136Y199438*
X144136D02*
Y199750D01*
X144250Y200219*
X144477Y200531*
X144705Y200688*
X144705D02*
X145045D01*
X143114D02*
Y198500D01*
Y199750D02*
X143000Y200219D01*
X142773Y200531*
X142545Y200688*
X142545D02*
X142205D01*
X140841Y201781D02*
Y199125D01*
X140727Y198656*
X140500Y198500*
X140273*
X141182Y200688D02*
X140386D01*
X138682D02*
X138909Y200531D01*
X139136Y200219*
X139250Y199750*
Y199438*
X139250D02*
X139136Y198969D01*
X138909Y198656*
X138682Y198500*
X138341*
X138114Y198656*
X137886Y198969*
X137773Y199438*
X137773D02*
Y199750D01*
X137886Y200219*
X138114Y200531*
X138341Y200688*
X138341D02*
X138682D01*
X136750D02*
Y198500D01*
Y200063D02*
X136409Y200531D01*
X136182Y200688*
X136182D02*
X135841D01*
X135841D02*
X135614Y200531D01*
X135500Y200063*
X135500D02*
Y198500D01*
X189307Y212281D02*
Y209000D01*
Y212281D02*
X188284D01*
X187943Y212125*
X187830Y211969*
X187716Y211656*
Y211344*
X187830Y211031*
X187943Y210875*
X188284Y210719*
X189307*
X188511D02*
X187716Y209000D01*
X186693Y210250D02*
X185330D01*
Y210563*
X185330D02*
X185443Y210875D01*
X185557Y211031*
X185784Y211188*
X185784D02*
X186125D01*
X186125D02*
X186352Y211031D01*
X186580Y210719*
X186693Y210250*
Y209938*
X186693D02*
X186580Y209469D01*
X186352Y209156*
X186125Y209000*
X185784*
X185557Y209156*
X185330Y209469*
X184307Y211188D02*
Y209000D01*
Y210563D02*
X183966Y211031D01*
X183739Y211188*
X183739D02*
X183398D01*
X183398D02*
X183170Y211031D01*
X183057Y210563*
X183057D02*
Y209000D01*
Y210563D02*
X182716Y211031D01*
X182489Y211188*
X182489D02*
X182148D01*
X182148D02*
X181920Y211031D01*
X181807Y210563*
X181807D02*
Y209000D01*
X180216Y211188D02*
X180443Y211031D01*
X180670Y210719*
X180784Y210250*
Y209938*
X180784D02*
X180670Y209469D01*
X180443Y209156*
X180216Y209000*
X179875*
X179648Y209156*
X179420Y209469*
X179307Y209938*
X179307D02*
Y210250D01*
X179420Y210719*
X179648Y211031*
X179875Y211188*
X179875D02*
X180216D01*
X177943Y212281D02*
Y209625D01*
X177830Y209156*
X177602Y209000*
X177375*
X178284Y211188D02*
X177489D01*
X176352Y210250D02*
X174989D01*
Y210563*
X174989D02*
X175102Y210875D01*
X175216Y211031*
X175443Y211188*
X175443D02*
X175784D01*
X175784D02*
X176011Y211031D01*
X176239Y210719*
X176352Y210250*
Y209938*
X176352D02*
X176239Y209469D01*
X176011Y209156*
X175784Y209000*
X175443*
X175216Y209156*
X174989Y209469*
X171352Y212281D02*
Y209000D01*
Y212281D02*
X170443Y209000D01*
X169534Y212281D02*
X170443Y209000D01*
X169534Y212281D02*
Y209000D01*
X167943Y211188D02*
X168170Y211031D01*
X168398Y210719*
X168511Y210250*
Y209938*
X168511D02*
X168398Y209469D01*
X168170Y209156*
X167943Y209000*
X167602*
X167375Y209156*
X167148Y209469*
X167034Y209938*
X167034D02*
Y210250D01*
X167148Y210719*
X167375Y211031*
X167602Y211188*
X167602D02*
X167943D01*
X166011D02*
Y209000D01*
Y210563D02*
X165670Y211031D01*
X165443Y211188*
X165443D02*
X165102D01*
X165102D02*
X164875Y211031D01*
X164761Y210563*
X164761D02*
Y209000D01*
X163739Y212281D02*
X163625Y212125D01*
X163511Y212281*
X163625Y212438*
X163625D02*
X163739Y212281D01*
X163625Y211188D02*
Y209000D01*
X162148Y212281D02*
Y209625D01*
X162034Y209156*
X161807Y209000*
X161580*
X162489Y211188D02*
X161693D01*
X159989D02*
X160216Y211031D01*
X160443Y210719*
X160557Y210250*
Y209938*
X160557D02*
X160443Y209469D01*
X160216Y209156*
X159989Y209000*
X159648*
X159420Y209156*
X159193Y209469*
X159080Y209938*
X159080D02*
Y210250D01*
X159193Y210719*
X159420Y211031*
X159648Y211188*
X159648D02*
X159989D01*
X158057D02*
Y209000D01*
Y210250D02*
X157943Y210719D01*
X157716Y211031*
X157489Y211188*
X157489D02*
X157148D01*
X156125Y212281D02*
X156011Y212125D01*
X155898Y212281*
X156011Y212438*
X156011D02*
X156125Y212281D01*
X156011Y211188D02*
Y209000D01*
X154875Y211188D02*
Y209000D01*
Y210563D02*
X154534Y211031D01*
X154307Y211188*
X154307D02*
X153966D01*
X153966D02*
X153739Y211031D01*
X153625Y210563*
X153625D02*
Y209000D01*
X152261Y212281D02*
Y209625D01*
X152148Y209156*
X151920Y209000*
X151693*
X152602Y211188D02*
X151807D01*
X148057Y212281D02*
Y209938D01*
X148057D02*
X147943Y209469D01*
X147716Y209156*
X147375Y209000*
X147148*
X146807Y209156*
X146580Y209469*
X146466Y209938*
X146466D02*
Y212281D01*
X145443Y211188D02*
Y209000D01*
Y210563D02*
X145102Y211031D01*
X144875Y211188*
X144875D02*
X144534D01*
X144534D02*
X144307Y211031D01*
X144193Y210563*
X144193D02*
Y209000D01*
X143170Y212281D02*
X143057Y212125D01*
X142943Y212281*
X143057Y212438*
X143057D02*
X143170Y212281D01*
X143057Y211188D02*
Y209000D01*
X141580Y212281D02*
Y209625D01*
X141466Y209156*
X141239Y209000*
X141011*
X141920Y211188D02*
X141125D01*
X137375Y212281D02*
Y209000D01*
Y212281D02*
X136352D01*
X136011Y212125*
X135898Y211969*
X135784Y211656*
Y211344*
X135898Y211031*
X136011Y210875*
X136352Y210719*
X137375*
X136580D02*
X135784Y209000D01*
X134761Y210250D02*
X133398D01*
Y210563*
X133398D02*
X133511Y210875D01*
X133625Y211031*
X133852Y211188*
X133852D02*
X134193D01*
X134193D02*
X134420Y211031D01*
X134648Y210719*
X134761Y210250*
Y209938*
X134761D02*
X134648Y209469D01*
X134420Y209156*
X134193Y209000*
X133852*
X133625Y209156*
X133398Y209469*
X132375Y211188D02*
X131693Y209000D01*
X131011Y211188D02*
X131693Y209000D01*
X129875Y209313D02*
X129989Y209156D01*
X129875Y209000*
X129761Y209156*
X129875Y209313*
X128625Y211500D02*
Y211656D01*
X128511Y211969*
X128398Y212125*
X128170Y212281*
X127716*
X127489Y212125*
X127375Y211969*
X127261Y211656*
Y211344*
X127375Y211031*
X127602Y210563*
X127602D02*
X128739Y209000D01*
X127148*
G54D80*
X153000Y244000D02*
X143000Y234500D01*
G74*
X0Y0D02*
M02*
