*
*
G04 PADS 9.3.1 Build Number: 456998 generated Gerber (RS-274-X) file*
G04 PC Version=2.1*
*
%IN "remoteMonitor.pcb"*%
*
%MOIN*%
*
%FSLAX35Y35*%
*
*
*
*
G04 PC Standard Apertures*
*
*
G04 Thermal Relief Aperture macro.*
%AMTER*
1,1,$1,0,0*
1,0,$1-$2,0,0*
21,0,$3,$4,0,0,45*
21,0,$3,$4,0,0,135*
%
*
*
G04 Annular Aperture macro.*
%AMANN*
1,1,$1,0,0*
1,0,$2,0,0*
%
*
*
G04 Odd Aperture macro.*
%AMODD*
1,1,$1,0,0*
1,0,$1-0.005,0,0*
%
*
*
G04 PC Custom Aperture Macros*
*
*
*
*
*
*
G04 PC Aperture Table*
*
%ADD010C,0.001*%
%ADD032R,0.048X0.04*%
%ADD034C,0.08087*%
%ADD046R,0.04X0.048*%
%ADD092C,0.07*%
%ADD096R,0.07X0.07*%
%ADD113C,0.19*%
%ADD115C,0.07693*%
%ADD125O,0.15X0.35*%
%ADD126C,0.31*%
%ADD127C,0.09*%
*
*
*
*
G04 PC Circuitry*
G04 Layer Name remoteMonitor.pcb - circuitry*
%LPD*%
*
*
G04 PC Custom Flashes*
G04 Layer Name remoteMonitor.pcb - flashes*
%LPD*%
*
*
G04 PC Circuitry*
G04 Layer Name remoteMonitor.pcb - circuitry*
%LPD*%
*
G54D10*
G54D32*
G01X233400Y493500D03*
X239600D03*
X207900Y466500D03*
X214100D03*
X187900D03*
X194100D03*
X362600Y510000D03*
X356400D03*
X362600Y520500D03*
X356400D03*
X362600Y530500D03*
X356400D03*
G54D34*
X377500Y133843D03*
Y114157D03*
X160843Y125000D03*
X141157D03*
X346843Y113000D03*
X327157D03*
G54D46*
X218500Y480100D03*
Y473900D03*
Y487900D03*
Y494100D03*
X232500Y477400D03*
Y483600D03*
X241500D03*
Y477400D03*
G54D92*
X151500Y435500D03*
Y425500D03*
X141500Y435500D03*
Y425500D03*
X131500Y435500D03*
Y425500D03*
X381500Y510500D03*
Y520500D03*
Y530500D03*
X109500Y453000D03*
Y443000D03*
G54D96*
X371500Y510500D03*
Y520500D03*
Y530500D03*
X109500Y463000D03*
G54D113*
X225000Y307200D03*
X275000D03*
X250000Y290700D03*
X225000Y154400D03*
X275000D03*
X250000Y137900D03*
G54D115*
X220000Y531043D03*
Y541043D03*
X230000Y531043D03*
Y541043D03*
X240000Y531043D03*
Y541043D03*
X250000Y531043D03*
Y541043D03*
X260000Y531043D03*
Y541043D03*
X270000Y531043D03*
Y541043D03*
X280000Y531043D03*
Y541043D03*
X290000Y531043D03*
Y541043D03*
G54D125*
X275000Y392000D03*
X225000D03*
X275000Y239200D03*
X225000D03*
G54D126*
X250000Y345150D03*
Y192350D03*
G54D127*
X186000Y164000D03*
Y184000D03*
Y284000D03*
X116000D03*
Y264000D03*
Y204000D03*
Y164000D03*
X0Y0D02*
M02*
