%
T1C.02F197S55
X02071Y01316
X02071Y01216
X02071Y01516
X02071Y01416
X02071Y01616
X02135Y01515
X02135Y01615
X02171Y01216
X02171Y01416
X02171Y01316
X02271Y01316
X02271Y01216
X02271Y01416
X02389Y01291
X02389Y01491
X02389Y01591
X0239Y01215
X02485Y0151
X02489Y01591
X0249Y01215
X02589Y01591
X02589Y01491
X02589Y01291
X0259Y01215
X028218Y01456
X029218Y01556
X029218Y01456
X030218Y01556
X030218Y01456
X032Y0146
X032Y01565
X03485Y01505
X03595Y0162
X03685Y0151
X03835Y0151
X03835Y01645
X03831Y017954
X03685Y01645
X03681Y017954
X03485Y01795
X03335Y01795
X0333Y0173
X0321Y01795
X032Y0165
X03106Y01801
X03105Y01725
X0305Y0164
X03006Y01801
X03006Y01701
X0295Y0164
X02906Y01801
X02906Y01701
X02806Y01801
X02806Y01701
X02706Y01701
X02706Y01801
X02589Y01691
X02489Y01691
X02389Y01691
X02271Y01716
X02271Y01816
X02171Y01716
X02171Y01816
X02071Y01716
X02071Y01816
X02071Y01916
X02071Y02116
X02071Y02016
X02171Y01916
X02171Y02116
X02171Y02016
X02271Y01916
X02271Y02116
X02271Y02016
X02706Y01901
X02706Y02001
X02706Y02076
X02806Y01901
X02806Y02001
X02806Y02076
X02906Y01901
X02906Y02001
X02906Y02076
X03006Y01901
X03006Y02001
X03106Y01901
X0321Y0193
X03235Y0211
X03335Y0193
X03485Y0193
X03485Y0208
X03681Y019304
X03681Y020804
X03831Y019304
X03831Y020804
X03831Y022304
X03681Y022304
X03565Y0221
X0348Y02305
X02906Y02301
X02906Y02201
X02806Y02201
X02706Y02201
X02589Y02291
X02589Y02191
X02489Y02291
X02489Y02191
X02389Y02291
X02389Y02191
X0227Y02195
X02171Y02216
X0215Y0232
X02071Y02216
X02071Y02316
X01961Y02336
X01211Y02336
X01061Y02336
X01061Y02486
X01211Y02486
X01961Y02486
X02071Y02516
X02071Y02416
X02071Y02616
X0215Y0242
X0215Y0252
X02171Y02616
X02271Y02616
X02389Y02391
X02389Y02491
X02389Y02591
X02489Y02591
X02489Y02491
X02489Y02391
X02589Y02391
X02589Y02491
X02589Y02591
X02905Y0256
X02906Y02501
X02906Y02401
X03005Y02445
X03005Y0256
X03006Y02501
X03105Y02445
X03195Y0238
X032Y02525
X03235Y026
X0332Y024
X0348Y0258
X0352Y0238
X03681Y023804
X03681Y025304
X03831Y025304
X03831Y023804
X03831Y026804
X03831Y028304
X03681Y026804
X03681Y028304
X0352Y0283
X03425Y0283
X03335Y0283
X032Y02675
X032Y02825
X02615Y0287
X02589Y02691
X02589Y02791
X02489Y02691
X02489Y02791
X02389Y02691
X02389Y02791
X02385Y02875
X02271Y02816
X02271Y02716
X02171Y02816
X02171Y02716
X02071Y02816
X02071Y02716
X01961Y02636
X01961Y02786
X01811Y02786
X01661Y02786
X01511Y02786
X01361Y02786
X01211Y02786
X01061Y02636
X01061Y02786
X01061Y02936
X01061Y03086
X01211Y02936
X01211Y03086
X01361Y02936
X01361Y03086
X01511Y02936
X01661Y02936
X01881Y029804
X02071Y02916
X02071Y03116
X02071Y03016
X02135Y03015
X02135Y03115
X02171Y02916
X02271Y02916
X02389Y02991
X02389Y03091
X02489Y03091
X02589Y03091
X0259Y02995
X028238Y02986
X029238Y02986
X029238Y03086
X030238Y03086
X030238Y02986
X031238Y02986
X032Y0297
X032Y0312
X03334Y029796
X03425Y0298
X0352Y0298
X0368Y0298
X0383Y0298
X03831Y031304
X03831Y032804
X03706Y032804
X0368Y0313
X0363Y0315
X0353Y03285
X03425Y03285
X03325Y03245
X032Y0327
X03101Y03316
X031Y03245
X03045Y03165
X03001Y03316
X03001Y03216
X02955Y03165
X02901Y03216
X02901Y03316
X02801Y03216
X02801Y03316
X02701Y03216
X02701Y03316
X0259Y03285
X02589Y03191
X02489Y03191
X02389Y03291
X02389Y03191
X02271Y03316
X02271Y03216
X02171Y03316
X02171Y03216
X02071Y03216
X02071Y03316
X01511Y03236
X01211Y03236
X01061Y03236
X011374Y035554
X01211Y03386
X0131Y0361
X0136Y03445
X01511Y03386
X01605Y03605
X0165Y0351
X01731Y035804
X01731Y034304
X01881Y035804
X02071Y03516
X02071Y03416
X02071Y03616
X02171Y03516
X02171Y03416
X02171Y03616
X02271Y03516
X02271Y03616
X02271Y03416
X02374Y03591
X02615Y03595
X027Y03415
X02701Y03516
X02701Y03606
X02801Y03416
X02801Y03606
X02801Y03516
X02901Y03416
X02901Y03606
X02901Y03516
X03001Y03416
X03001Y03516
X03101Y03416
X03325Y0343
X03325Y03575
X03425Y03435
X03425Y03575
X0353Y03575
X0353Y03435
X037Y0358
X03706Y034304
X03831Y034304
X03831Y035804
X03831Y037304
X037Y0373
X0351Y0385
X03235Y03645
X02901Y03716
X02901Y03816
X02801Y03716
X02701Y03716
X0259Y03785
X0259Y037
X0249Y03785
X0249Y037
X0239Y037
X0239Y03785
X02271Y03716
X02171Y03716
X0215Y03815
X02071Y03816
X02071Y03716
X01881Y037304
X0179Y03855
X01765Y03685
X01485Y0375
X0136Y0375
X011374Y037054
X011374Y038554
X01135Y04105
X011374Y040054
X0132Y03955
X0149Y03955
X01725Y0405
X0179Y03965
X01881Y040304
X01885Y03905
X02071Y03916
X02071Y04016
X0215Y03915
X0215Y0409
X0215Y04015
X0239Y03885
X0239Y03985
X0239Y04085
X0249Y03885
X0249Y03985
X0249Y04085
X0259Y03885
X0259Y03985
X0259Y04085
X029Y04095
X02901Y03916
X02901Y04016
X0299Y03985
X0311Y03985
X0318Y041
X03325Y0401
X03325Y03915
X03405Y03915
X03425Y04065
X03535Y04055
X03585Y04055
X0363Y04055
X037Y0388
X0383Y03985
X03831Y038804
X039Y0419
X039Y0433
X038Y0433
X03615Y04295
X03475Y04295
X03335Y04295
X03285Y0413
X02911Y043304
X0291Y04245
X0278Y04305
X0278Y04245
X02685Y04335
X02635Y04245
X02481Y042954
X0248Y04245
X02335Y04245
X02331Y042954
X02181Y042954
X0218Y04245
X02031Y042954
X0203Y04245
X01881Y042954
X01881Y041804
X01731Y041804
X01725Y04325
X014374Y041554
X012874Y041554
X01095Y042
X0115Y04455
X012874Y044554
X0158Y0455
X0167Y0453
X01675Y0457
X0171Y046
X0173Y04445
X01775Y0449
X01775Y04615
X0184Y04615
X0189Y0444
X0192Y0441
X0195Y04385
X0257Y0453
X02595Y0438
X02635Y0444
X0264Y0456
X0266Y0441
X0271Y0459
X0293Y04425
X0302Y0458
X0303Y04425
X0313Y04585
X03245Y04625
X03335Y0455
X03335Y04445
X03475Y04445
X03485Y0455
X03615Y04445
X039Y0447
X039Y0464
X0382Y0473
X03805Y04825
X0376Y0464
X03635Y0474
X03555Y0467
X03545Y0474
X0354Y04845
X0313Y0471
X024874Y047554
X0247Y0484
X02325Y04725
X02235Y048
X02135Y04835
X02075Y04705
X01925Y04705
X0187Y0474
X01775Y04785
X01775Y0474
X0167Y04775
X0167Y04845
X015557Y047754
X015557Y048354
X01555Y04715
X014957Y047154
X014357Y047154
X013757Y047154
X013157Y047154
X012557Y047154
X011957Y047154
X011357Y047154
X010757Y047154
X015557Y048954
X015557Y049554
X015557Y050154
X016257Y050654
X016857Y050654
X0178Y04895
X01785Y04955
X01825Y05065
X02035Y04975
X0207Y05065
X02135Y0497
X02205Y0505
X02235Y0488
X02265Y05055
X0228Y04935
X02285Y0512
X02295Y05025
X02325Y04995
X02455Y04935
X02675Y0495
X0324Y05095
X0336Y0509
X0346Y04955
X0363Y04955
X03805Y05025
X035024Y053554
X03485Y05155
X03485Y0525
X03415Y0536
X033874Y052054
X0325Y0536
X032374Y052054
X0318Y05225
X0314Y05225
X031Y05225
X03095Y0536
X0304Y05225
X03Y05225
X0296Y05225
X0292Y05225
X0288Y05225
X0285Y05255
X0225Y052
X0218Y0513
X0215Y052
X0207Y05135
X0204Y05185
X0198Y05185
X0196Y05295
X019157Y052054
X018557Y052054
X017957Y052054
X017357Y052054
X016757Y052054
X0164Y053
X016157Y052054
X015557Y052054
X01555Y05325
X01555Y05265
X01555Y05385
X01555Y0544
X0164Y05415
X01925Y05435
T2C.035F197S55
X01315Y04355
X01315Y04255
X01415Y04355
X01415Y04255
X01515Y04355
X01515Y04255
X03815Y05105
X03715Y05105
X01095Y0463
X01095Y0443
X01095Y0453
X03715Y05205
X03715Y05305
X03815Y05205
X03815Y05305
T3C.03937F197S55
X014116Y0125
X016084Y0125
X032716Y0113
X034684Y0113
X03775Y013384
X03775Y011416
X029Y053104
X028Y053104
X027Y053104
X026Y053104
X025Y053104
X024Y053104
X023Y053104
X022Y053104
X022Y054104
X023Y054104
X024Y054104
X025Y054104
X026Y054104
X027Y054104
X028Y054104
X029Y054104
T4C.045F139S55
X0116Y0164
X0116Y0204
X0186Y0164
X0186Y0184
X0186Y0284
X0116Y0284
X0116Y0264
T5C.08F074S55
X0275Y02492G85X0275Y02292
X0225Y02492G85X0225Y02292
X0275Y0402G85X0275Y0382
X0225Y0402G85X0225Y0382
T6C.11F069S658
X0225Y01544
X025Y01379
X0275Y01544
X0275Y03072
X025Y02907
X0225Y03072
T7C.21F0S0
X025Y019235
X025Y034515
M30
