*
*
G04 PADS 9.3.1 Build Number: 456998 generated Gerber (RS-274-X) file*
G04 PC Version=2.1*
*
%IN "remoteMonitor.pcb"*%
*
%MOIN*%
*
%FSLAX35Y35*%
*
*
*
*
G04 PC Standard Apertures*
*
*
G04 Thermal Relief Aperture macro.*
%AMTER*
1,1,$1,0,0*
1,0,$1-$2,0,0*
21,0,$3,$4,0,0,45*
21,0,$3,$4,0,0,135*
%
*
*
G04 Annular Aperture macro.*
%AMANN*
1,1,$1,0,0*
1,0,$2,0,0*
%
*
*
G04 Odd Aperture macro.*
%AMODD*
1,1,$1,0,0*
1,0,$1-0.005,0,0*
%
*
*
G04 PC Custom Aperture Macros*
*
*
*
*
*
*
G04 PC Aperture Table*
*
%ADD010C,0.001*%
%ADD019C,0.01*%
%ADD020C,0.007*%
%ADD022C,0.005*%
*
*
*
*
G04 PC Circuitry*
G04 Layer Name remoteMonitor.pcb - circuitry*
%LPD*%
*
*
G04 PC Custom Flashes*
G04 Layer Name remoteMonitor.pcb - flashes*
%LPD*%
*
*
G04 PC Circuitry*
G04 Layer Name remoteMonitor.pcb - circuitry*
%LPD*%
*
G54D10*
G54D19*
G01X237700Y490000D02*
X243500D01*
Y497000*
X237700*
X235300Y490000D02*
X229500D01*
Y497000*
X235300*
X113000Y433700D02*
Y439500D01*
X106000*
Y433700*
X113000Y431300D02*
Y425500D01*
X106000*
Y431300*
X191503Y504677D02*
X196053D01*
Y510677*
X191503*
X189003Y504677D02*
X184453D01*
Y510677*
X189003*
X329000Y182000D02*
X375000D01*
Y164000*
X329000*
Y182000*
X340000Y173000D02*
X342000D01*
G75*
G03X352000I5000J0D01*
G01X362000D02*
G03X352000I-5000J0D01*
G01X362000D02*
X364000D01*
X366500Y515500D02*
X386500D01*
Y505500*
X366500*
Y515500*
Y525500D02*
X386500D01*
Y515500*
X366500*
Y525500*
Y535500D02*
X386500D01*
Y525500*
X366500*
Y535500*
X330693Y396843D02*
Y377157D01*
X317307*
Y396843*
X330693*
X314394Y398000D02*
G03X314394I-394J0D01*
G01X330693Y243843D02*
Y224157D01*
X317307*
Y243843*
X330693*
X314394Y245000D02*
G03X314394I-394J0D01*
G01X327602Y458898D02*
X365398D01*
Y421102*
X327602*
Y458898*
X327894Y418000D02*
G03X327894I-394J0D01*
G01X380811Y159701D02*
Y122299D01*
X357189*
Y159701*
X380811*
X349800Y352400D02*
X344200D01*
Y356500*
Y360500D02*
Y364600D01*
X349800*
X350800Y199900D02*
X345200D01*
Y204000*
Y208000D02*
Y212100D01*
X350800*
X170685Y125000D02*
G03X170685I-19685J0D01*
G01X168000Y115000D02*
Y134000D01*
X169000Y117000D02*
Y133000D01*
X170000Y120000D02*
Y130000D01*
X145074Y461784D02*
X150874D01*
Y468784*
X145074*
X142674Y461784D02*
X136874D01*
Y468784*
X142674*
X170500Y491300D02*
Y485500D01*
X177500*
Y491300*
X170500Y493700D02*
Y499500D01*
X177500*
Y493700*
X163500Y491300D02*
Y485500D01*
X170500*
Y491300*
X163500Y493700D02*
Y499500D01*
X170500*
Y493700*
X120000Y433700D02*
Y439500D01*
X113000*
Y433700*
X120000Y431300D02*
Y425500D01*
X113000*
Y431300*
X134000Y312000D02*
Y306000D01*
X130000Y302000*
X108000*
Y312000*
X134000Y318000D02*
Y324000D01*
X130000Y328000*
X108000*
Y318000*
X319583Y124268D02*
Y157732D01*
X342417*
Y124268*
X319583*
X191000Y335000D02*
Y331000D01*
X191118Y321000D02*
Y317000D01*
Y316945D02*
X180882D01*
Y335055D02*
X191118D01*
X129850Y332000D02*
Y330500D01*
X112150*
Y332000*
X129850Y340000D02*
Y341500D01*
X112150*
Y340000*
X200693Y539437D02*
Y542587D01*
X187307*
X200693Y531563D02*
Y528413D01*
X187307*
X133157Y381693D02*
X152843D01*
Y368307*
X133157*
Y381693*
X132394Y365000D02*
G03X132394I-394J0D01*
G01X156500Y381300D02*
Y375500D01*
X163500*
Y381300*
X156500Y383700D02*
Y389500D01*
X163500*
Y383700*
X164700Y368500D02*
X170500D01*
Y375500*
X164700*
X162300Y368500D02*
X156500D01*
Y375500*
X162300*
X360700Y506500D02*
X366500D01*
Y513500*
X360700*
X358300Y506500D02*
X352500D01*
Y513500*
X358300*
X360700Y517000D02*
X366500D01*
Y524000*
X360700*
X358300Y517000D02*
X352500D01*
Y524000*
X358300*
X360700Y527000D02*
X366500D01*
Y534000*
X360700*
X358300Y527000D02*
X352500D01*
Y534000*
X358300*
X310000Y364300D02*
Y358500D01*
X317000*
Y364300*
X310000Y366700D02*
Y372500D01*
X317000*
Y366700*
X310000Y350300D02*
Y344500D01*
X317000*
Y350300*
X310000Y352700D02*
Y358500D01*
X317000*
Y352700*
X338000D02*
Y358500D01*
X331000*
Y352700*
X338000Y350300D02*
Y344500D01*
X331000*
Y350300*
X310000Y211300D02*
Y205500D01*
X317000*
Y211300*
X310000Y213700D02*
Y219500D01*
X317000*
Y213700*
X310000Y197300D02*
Y191500D01*
X317000*
Y197300*
X310000Y199700D02*
Y205500D01*
X317000*
Y199700*
X338000D02*
Y205500D01*
X331000*
Y199700*
X338000Y197300D02*
Y191500D01*
X331000*
Y197300*
X385052Y483471D02*
X390852D01*
Y490471*
X385052*
X382652Y483471D02*
X376852D01*
Y490471*
X382652*
X385052D02*
X390852D01*
Y497471*
X385052*
X382652Y490471D02*
X376852D01*
Y497471*
X382652*
X174500Y534300D02*
Y528500D01*
X181500*
Y534300*
X174500Y536700D02*
Y542500D01*
X181500*
Y536700*
X145717Y312811D02*
Y318000D01*
Y334000D02*
Y339189D01*
X160283*
Y312811D02*
X145717D01*
X160283Y339189D02*
Y338000D01*
Y314000D02*
Y312811D01*
X105724Y151165D02*
Y296835D01*
X196276*
Y151165*
X105724*
X200000Y354000D02*
X300000D01*
Y254000*
X200000*
Y354000*
X215000Y344000D02*
G03X210000Y339000I0J-5000D01*
G01X215000Y344000D02*
X285000D01*
X290000Y339000D02*
G03X285000Y344000I-5000J0D01*
G01X290000Y339000D02*
Y269000D01*
X285000Y264000D02*
G03X290000Y269000I0J5000D01*
G01X285000Y264000D02*
X215000D01*
X210000Y269000D02*
G03X215000Y264000I5000J0D01*
G01X210000Y269000D02*
Y339000D01*
X200000Y201200D02*
X300000D01*
Y101200*
X200000*
Y201200*
X215000Y191200D02*
G03X210000Y186200I0J-5000D01*
G01X215000Y191200D02*
X285000D01*
X290000Y186200D02*
G03X285000Y191200I-5000J0D01*
G01X290000Y186200D02*
Y116200D01*
X285000Y111200D02*
G03X290000Y116200I0J5000D01*
G01X285000Y111200D02*
X215000D01*
X210000Y116200D02*
G03X215000Y111200I5000J0D01*
G01X210000Y116200D02*
Y186200D01*
X350343Y284807D02*
X330657D01*
Y298193*
X350343*
Y284807*
X351894Y301500D02*
G03X351894I-394J0D01*
G01X162300Y368500D02*
X156500D01*
Y361500*
X162300*
X164700Y368500D02*
X170500D01*
Y361500*
X164700*
X170500Y383700D02*
Y389500D01*
X163500*
Y383700*
X170500Y381300D02*
Y375500D01*
X163500*
Y381300*
X322800Y362000D02*
X317000D01*
Y355000*
X322800*
X325200Y362000D02*
X331000D01*
Y355000*
X325200*
X331000Y364300D02*
Y358500D01*
X338000*
Y364300*
X331000Y366700D02*
Y372500D01*
X338000*
Y366700*
X322800Y209000D02*
X317000D01*
Y202000*
X322800*
X325200Y209000D02*
X331000D01*
Y202000*
X325200*
X331000Y211300D02*
Y205500D01*
X338000*
Y211300*
X331000Y213700D02*
Y219500D01*
X338000*
Y213700*
X352000Y290300D02*
Y284500D01*
X359000*
Y290300*
X352000Y292700D02*
Y298500D01*
X359000*
Y292700*
X142800Y360500D02*
X137000D01*
Y353500*
X142800*
X145200Y360500D02*
X151000D01*
Y353500*
X145200*
X122200Y343500D02*
X128000D01*
Y350500*
X122200*
X119800Y343500D02*
X114000D01*
Y350500*
X119800*
X154200Y302500D02*
X160000D01*
Y309500*
X154200*
X151800Y302500D02*
X146000D01*
Y309500*
X151800*
X154200Y341500D02*
X160000D01*
Y348500*
X154200*
X151800Y341500D02*
X146000D01*
Y348500*
X151800*
X184800Y314500D02*
X179000D01*
Y307500*
X184800*
X187200Y314500D02*
X193000D01*
Y307500*
X187200*
X184800Y344500D02*
X179000D01*
Y337500*
X184800*
X187200Y344500D02*
X193000D01*
Y337500*
X187200*
X312000Y441800D02*
Y436000D01*
X319000*
Y441800*
X312000Y444200D02*
Y450000D01*
X319000*
Y444200*
X305000Y441800D02*
Y436000D01*
X312000*
Y441800*
X305000Y444200D02*
Y450000D01*
X312000*
Y444200*
X365300Y413500D02*
X359500D01*
Y406500*
X365300*
X367700Y413500D02*
X373500D01*
Y406500*
X367700*
X378800Y440000D02*
X373000D01*
Y433000*
X378800*
X381200Y440000D02*
X387000D01*
Y433000*
X381200*
X378800D02*
X373000D01*
Y426000*
X378800*
X381200Y433000D02*
X387000D01*
Y426000*
X381200*
X378800Y447000D02*
X373000D01*
Y440000*
X378800*
X381200Y447000D02*
X387000D01*
Y440000*
X381200*
X378800Y454000D02*
X373000D01*
Y447000*
X378800*
X381200Y454000D02*
X387000D01*
Y447000*
X381200*
X378800Y461000D02*
X373000D01*
Y454000*
X378800*
X381200Y461000D02*
X387000D01*
Y454000*
X381200*
X378800Y426000D02*
X373000D01*
Y419000*
X378800*
X381200Y426000D02*
X387000D01*
Y419000*
X381200*
X378800D02*
X373000D01*
Y412000*
X378800*
X381200Y419000D02*
X387000D01*
Y412000*
X381200*
X321000Y470800D02*
Y465000D01*
X328000*
Y470800*
X321000Y473200D02*
Y479000D01*
X328000*
Y473200*
Y470800D02*
Y465000D01*
X335000*
Y470800*
X328000Y473200D02*
Y479000D01*
X335000*
Y473200*
X348500Y383200D02*
Y389000D01*
X341500*
Y383200*
X348500Y380800D02*
Y375000D01*
X341500*
Y380800*
Y395800D02*
Y390000D01*
X348500*
Y395800*
X341500Y398200D02*
Y404000D01*
X348500*
Y398200*
X347500Y230200D02*
Y236000D01*
X340500*
Y230200*
X347500Y227800D02*
Y222000D01*
X340500*
Y227800*
Y242800D02*
Y237000D01*
X347500*
Y242800*
X340500Y245200D02*
Y251000D01*
X347500*
Y245200*
X212000Y536700D02*
Y542500D01*
X205000*
Y536700*
X212000Y534300D02*
Y528500D01*
X205000*
Y534300*
X313200Y429000D02*
X319000D01*
Y436000*
X313200*
X310800Y429000D02*
X305000D01*
Y436000*
X310800*
X313200Y422000D02*
X319000D01*
Y429000*
X313200*
X310800Y422000D02*
X305000D01*
Y429000*
X310800*
X147723Y447774D02*
X155773D01*
Y461774*
X147723*
X140223Y447774D02*
X132173D01*
Y461774*
X140223*
X212000Y548929D02*
X299000D01*
Y522000*
X212000*
Y548929*
X179666Y511777D02*
Y517577D01*
X172666*
Y511777*
X179666Y509377D02*
Y503577D01*
X172666*
Y509377*
X158641Y511772D02*
Y517572D01*
X151641*
Y511772*
X158641Y509372D02*
Y503572D01*
X151641*
Y509372*
X166839Y510189D02*
X172639D01*
Y517189*
X166839*
X164439Y510189D02*
X158639D01*
Y517189*
X164439*
X100000Y100000D02*
X400000D01*
Y549500*
X100000*
Y100000*
G54D20*
X216741Y501835D02*
X218315D01*
Y500260*
X184457Y501835D02*
X182882D01*
Y500260*
X217995Y467655D02*
Y466401D01*
X216741*
X182882Y467976D02*
Y466401D01*
X184457*
X217953Y503618D02*
G03X217953I-354J0D01*
G01X198040Y514661D02*
Y515055D01*
X203158*
Y514661*
X198040Y507575D02*
Y507181D01*
X203158*
Y507575*
X149135Y509346D02*
X111734D01*
X149135Y518008D02*
X111734D01*
X122500Y417000D02*
Y444000D01*
X160500*
Y417000*
X122500*
X148750Y444000D02*
Y440500D01*
X157000*
Y420500*
X126000*
Y440500*
X134250*
Y444000*
X148750*
G54D22*
X181500Y462781D02*
Y460438D01*
X181500D02*
X181614Y459969D01*
X181841Y459656*
X182182Y459500*
X182409*
X182750Y459656*
X182977Y459969*
X183091Y460438*
X183091D02*
Y462781D01*
X184114Y462156D02*
X184341Y462313D01*
X184341D02*
X184682Y462781D01*
Y459500*
X186386Y462781D02*
X186045Y462625D01*
X185818Y462156*
X185705Y461375*
Y460906*
X185818Y460125*
X186045Y459656*
X186386Y459500*
X186614*
X186955Y459656*
X187182Y460125*
X187295Y460906*
Y461375*
X187182Y462156*
X186955Y462625*
X186614Y462781*
X186386*
X188318Y462156D02*
X188545Y462313D01*
X188545D02*
X188886Y462781D01*
Y459500*
X235000Y501781D02*
Y498500D01*
X236364*
X237386Y501156D02*
X237614Y501313D01*
X237614D02*
X237955Y501781D01*
Y498500*
X239659Y501781D02*
X239318Y501625D01*
X239091Y501156*
X238977Y500375*
Y499906*
X239091Y499125*
X239318Y498656*
X239659Y498500*
X239886*
X240227Y498656*
X240455Y499125*
X240568Y499906*
Y500375*
X240455Y501156*
X240227Y501625*
X239886Y501781*
X239659*
X241591Y501156D02*
X241818Y501313D01*
X241818D02*
X242159Y501781D01*
Y498500*
X209719Y507000D02*
X212062D01*
X212062D02*
X212531Y507114D01*
X212844Y507341*
X213000Y507682*
Y507909*
X212844Y508250*
X212531Y508477*
X212062Y508591*
X212062D02*
X209719D01*
X210344Y509614D02*
X210187Y509841D01*
X210187D02*
X209719Y510182D01*
X213000*
X209719Y511886D02*
X209875Y511545D01*
X210344Y511318*
X211125Y511205*
X211594*
X212375Y511318*
X212844Y511545*
X213000Y511886*
Y512114*
X212844Y512455*
X212375Y512682*
X211594Y512795*
X211125*
X210344Y512682*
X209875Y512455*
X209719Y512114*
Y511886*
X210500Y513932D02*
X210344D01*
X210031Y514045*
X209875Y514159*
X209719Y514386*
Y514841*
X209875Y515068*
X210031Y515182*
X210344Y515295*
X210656*
X210969Y515182*
X211437Y514955*
X211437D02*
X213000Y513818D01*
Y515409*
X130258Y522003D02*
X129349Y518721D01*
X130258Y522003D02*
X131167Y518721D01*
X129690Y519815D02*
X130826D01*
X132190Y521378D02*
X132417Y521534D01*
X132758Y522003*
Y518721*
X134463Y522003D02*
X134122Y521846D01*
X133894Y521378*
X133781Y520596*
Y520128*
X133894Y519346*
X134122Y518878*
X134463Y518721*
X134690*
X135031Y518878*
X135258Y519346*
X135372Y520128*
Y520596*
X135258Y521378*
X135031Y521846*
X134690Y522003*
X134463*
X136394Y521378D02*
X136622Y521534D01*
X136963Y522003*
Y518721*
X110781Y424000D02*
X107500D01*
X110781D02*
Y422977D01*
X110625Y422636*
X110469Y422523*
X110156Y422409*
X109844*
X109531Y422523*
X109375Y422636*
X109219Y422977*
Y424000*
Y423205D02*
X107500Y422409D01*
X110156Y421386D02*
X110313Y421159D01*
X110781Y420818*
X107500*
X110781Y419114D02*
X110625Y419455D01*
X110156Y419682*
X109375Y419795*
X108906*
X108125Y419682*
X107656Y419455*
X107500Y419114*
Y418886*
X107656Y418545*
X108125Y418318*
X108906Y418205*
X109375*
X110156Y418318*
X110625Y418545*
X110781Y418886*
Y419114*
X110000Y417068D02*
X110156D01*
X110469Y416955*
X110625Y416841*
X110781Y416614*
Y416159*
X110625Y415932*
X110469Y415818*
X110156Y415705*
X109844*
X109531Y415818*
X109063Y416045*
X107500Y417182*
Y415591*
X154136Y415281D02*
Y412781D01*
X154023Y412313*
X153909Y412156*
X153682Y412000*
X153455*
X153227Y412156*
X153114Y412313*
X153000Y412781*
Y413094*
X155159Y414656D02*
X155386Y414813D01*
X155727Y415281*
Y412000*
X157432Y415281D02*
X157091Y415125D01*
X156864Y414656*
X156750Y413875*
Y413406*
X156864Y412625*
X157091Y412156*
X157432Y412000*
X157659*
X158000Y412156*
X158227Y412625*
X158341Y413406*
Y413875*
X158227Y414656*
X158000Y415125*
X157659Y415281*
X157432*
X159364Y414656D02*
X159591Y414813D01*
X159932Y415281*
Y412000*
X187205Y515000D02*
X187091Y515312D01*
X187091D02*
X186864Y515625D01*
X186636Y515781*
X186182*
X185955Y515625*
X185727Y515312*
X185727D02*
X185614Y515000D01*
X185500Y514531*
Y513750*
X185614Y513281*
X185727Y512969*
X185955Y512656*
X186182Y512500*
X186636*
X186864Y512656*
X187091Y512969*
X187205Y513281*
X188227Y515156D02*
X188455Y515312D01*
X188455D02*
X188795Y515781D01*
Y512500*
X189818Y515156D02*
X190045Y515312D01*
X190045D02*
X190386Y515781D01*
Y512500*
X192773Y515312D02*
X192659Y515625D01*
X192318Y515781*
X192091*
X191750Y515625*
X191523Y515156*
X191409Y514375*
Y513594*
X191523Y512969*
X191750Y512656*
X192091Y512500*
X192205*
X192545Y512656*
X192773Y512969*
X192886Y513437*
X192886D02*
Y513594D01*
X192773Y514062*
X192773D02*
X192545Y514375D01*
X192205Y514531*
X192091*
X191750Y514375*
X191523Y514062*
X191523D02*
X191409Y513594D01*
X347000Y187281D02*
Y184000D01*
Y187281D02*
X348477D01*
X347000Y185719D02*
X347909D01*
X350636Y187281D02*
X349500Y185094D01*
X351205*
X350636Y187281D02*
Y184000D01*
X352909Y187281D02*
X352568Y187125D01*
X352341Y186656*
X352227Y185875*
Y185406*
X352341Y184625*
X352568Y184156*
X352909Y184000*
X353136*
X353477Y184156*
X353705Y184625*
X353818Y185406*
Y185875*
X353705Y186656*
X353477Y187125*
X353136Y187281*
X352909*
X354841Y186656D02*
X355068Y186813D01*
X355068D02*
X355409Y187281D01*
Y184000*
X389591Y511813D02*
X389364Y512125D01*
X389023Y512281*
X388568*
X388227Y512125*
X388000Y511813*
X388000D02*
Y511500D01*
X388114Y511188*
X388114D02*
X388227Y511031D01*
X388455Y510875*
X389136Y510563*
X389136D02*
X389364Y510406D01*
X389477Y510250*
X389591Y509938*
X389591D02*
Y509469D01*
X389364Y509156*
X389023Y509000*
X388568*
X388227Y509156*
X388000Y509469*
X391182Y512281D02*
X390841Y512125D01*
X390727Y511813*
X390727D02*
Y511500D01*
X390841Y511188*
X390841D02*
X391068Y511031D01*
X391523Y510875*
X391864Y510719*
X392091Y510406*
X392205Y510094*
Y509625*
X392091Y509313*
X392091D02*
X391977Y509156D01*
X391636Y509000*
X391182*
X390841Y509156*
X390727Y509313*
X390727D02*
X390614Y509625D01*
Y510094*
X390727Y510406*
X390955Y510719*
X391295Y510875*
X391750Y511031*
X391977Y511188*
X391977D02*
X392091Y511500D01*
Y511813*
X392091D02*
X391977Y512125D01*
X391636Y512281*
X391182*
X393909D02*
X393568Y512125D01*
X393341Y511656*
X393227Y510875*
Y510406*
X393341Y509625*
X393568Y509156*
X393909Y509000*
X394136*
X394477Y509156*
X394705Y509625*
X394818Y510406*
Y510875*
X394705Y511656*
X394477Y512125*
X394136Y512281*
X393909*
X395841Y511656D02*
X396068Y511813D01*
X396068D02*
X396409Y512281D01*
Y509000*
X389591Y521813D02*
X389364Y522125D01*
X389023Y522281*
X388568*
X388227Y522125*
X388000Y521813*
X388000D02*
Y521500D01*
X388114Y521188*
X388114D02*
X388227Y521031D01*
X388455Y520875*
X389136Y520563*
X389136D02*
X389364Y520406D01*
X389477Y520250*
X389591Y519938*
X389591D02*
Y519469D01*
X389364Y519156*
X389023Y519000*
X388568*
X388227Y519156*
X388000Y519469*
X391182Y522281D02*
X390841Y522125D01*
X390727Y521813*
X390727D02*
Y521500D01*
X390841Y521188*
X390841D02*
X391068Y521031D01*
X391523Y520875*
X391864Y520719*
X392091Y520406*
X392205Y520094*
Y519625*
X392091Y519313*
X392091D02*
X391977Y519156D01*
X391636Y519000*
X391182*
X390841Y519156*
X390727Y519313*
X390727D02*
X390614Y519625D01*
Y520094*
X390727Y520406*
X390955Y520719*
X391295Y520875*
X391750Y521031*
X391977Y521188*
X391977D02*
X392091Y521500D01*
Y521813*
X392091D02*
X391977Y522125D01*
X391636Y522281*
X391182*
X393909D02*
X393568Y522125D01*
X393341Y521656*
X393227Y520875*
Y520406*
X393341Y519625*
X393568Y519156*
X393909Y519000*
X394136*
X394477Y519156*
X394705Y519625*
X394818Y520406*
Y520875*
X394705Y521656*
X394477Y522125*
X394136Y522281*
X393909*
X395955Y521500D02*
Y521656D01*
X396068Y521969*
X396182Y522125*
X396409Y522281*
X396864*
X397091Y522125*
X397205Y521969*
X397318Y521656*
Y521344*
X397205Y521031*
X396977Y520563*
X396977D02*
X395841Y519000D01*
X397432*
X389591Y531813D02*
X389364Y532125D01*
X389023Y532281*
X388568*
X388227Y532125*
X388000Y531813*
X388000D02*
Y531500D01*
X388114Y531188*
X388114D02*
X388227Y531031D01*
X388455Y530875*
X389136Y530563*
X389136D02*
X389364Y530406D01*
X389477Y530250*
X389591Y529938*
X389591D02*
Y529469D01*
X389364Y529156*
X389023Y529000*
X388568*
X388227Y529156*
X388000Y529469*
X391182Y532281D02*
X390841Y532125D01*
X390727Y531813*
X390727D02*
Y531500D01*
X390841Y531188*
X390841D02*
X391068Y531031D01*
X391523Y530875*
X391864Y530719*
X392091Y530406*
X392205Y530094*
Y529625*
X392091Y529313*
X392091D02*
X391977Y529156D01*
X391636Y529000*
X391182*
X390841Y529156*
X390727Y529313*
X390727D02*
X390614Y529625D01*
Y530094*
X390727Y530406*
X390955Y530719*
X391295Y530875*
X391750Y531031*
X391977Y531188*
X391977D02*
X392091Y531500D01*
Y531813*
X392091D02*
X391977Y532125D01*
X391636Y532281*
X391182*
X393909D02*
X393568Y532125D01*
X393341Y531656*
X393227Y530875*
Y530406*
X393341Y529625*
X393568Y529156*
X393909Y529000*
X394136*
X394477Y529156*
X394705Y529625*
X394818Y530406*
Y530875*
X394705Y531656*
X394477Y532125*
X394136Y532281*
X393909*
X396068D02*
X397318D01*
X396636Y531031*
X396977*
X397205Y530875*
X397318Y530719*
X397432Y530250*
Y529938*
X397432D02*
X397318Y529469D01*
X397091Y529156*
X396750Y529000*
X396409*
X396068Y529156*
X395955Y529313*
X395955D02*
X395841Y529625D01*
X319000Y402281D02*
Y399938D01*
X319000D02*
X319114Y399469D01*
X319341Y399156*
X319682Y399000*
X319909*
X320250Y399156*
X320477Y399469*
X320591Y399938*
X320591D02*
Y402281D01*
X323205D02*
X322068Y399000D01*
X321614Y402281D02*
X323205D01*
X324909D02*
X324568Y402125D01*
X324341Y401656*
X324227Y400875*
Y400406*
X324341Y399625*
X324568Y399156*
X324909Y399000*
X325136*
X325477Y399156*
X325705Y399625*
X325818Y400406*
Y400875*
X325705Y401656*
X325477Y402125*
X325136Y402281*
X324909*
X326841Y401656D02*
X327068Y401813D01*
X327068D02*
X327409Y402281D01*
Y399000*
X319000Y249281D02*
Y246938D01*
X319000D02*
X319114Y246469D01*
X319341Y246156*
X319682Y246000*
X319909*
X320250Y246156*
X320477Y246469*
X320591Y246938*
X320591D02*
Y249281D01*
X323205D02*
X322068Y246000D01*
X321614Y249281D02*
X323205D01*
X324909D02*
X324568Y249125D01*
X324341Y248656*
X324227Y247875*
Y247406*
X324341Y246625*
X324568Y246156*
X324909Y246000*
X325136*
X325477Y246156*
X325705Y246625*
X325818Y247406*
Y247875*
X325705Y248656*
X325477Y249125*
X325136Y249281*
X324909*
X326955Y248500D02*
Y248656D01*
X327068Y248969*
X327182Y249125*
X327409Y249281*
X327864*
X328091Y249125*
X328205Y248969*
X328318Y248656*
Y248344*
X328205Y248031*
X327977Y247563*
X327977D02*
X326841Y246000D01*
X328432*
X315500Y420281D02*
Y417938D01*
X315500D02*
X315614Y417469D01*
X315841Y417156*
X316182Y417000*
X316409*
X316750Y417156*
X316977Y417469*
X317091Y417938*
X317091D02*
Y420281D01*
X319477Y419813D02*
X319364Y420125D01*
X319023Y420281*
X318795*
X318455Y420125*
X318227Y419656*
X318114Y418875*
Y418094*
X318227Y417469*
X318455Y417156*
X318795Y417000*
X318909*
X319250Y417156*
X319477Y417469*
X319591Y417938*
X319591D02*
Y418094D01*
X319477Y418563*
X319477D02*
X319250Y418875D01*
X318909Y419031*
X318795*
X318455Y418875*
X318227Y418563*
X318227D02*
X318114Y418094D01*
X321295Y420281D02*
X320955Y420125D01*
X320727Y419656*
X320614Y418875*
Y418406*
X320727Y417625*
X320955Y417156*
X321295Y417000*
X321523*
X321864Y417156*
X322091Y417625*
X322205Y418406*
Y418875*
X322091Y419656*
X321864Y420125*
X321523Y420281*
X321295*
X323227Y419656D02*
X323455Y419813D01*
X323455D02*
X323795Y420281D01*
Y417000*
X385281Y146000D02*
X382000D01*
X385281D02*
Y144977D01*
X385125Y144636*
X384969Y144523*
X384656Y144409*
X384344*
X384031Y144523*
X383875Y144636*
X383719Y144977*
Y146000*
Y145205D02*
X382000Y144409D01*
X385281Y142250D02*
X383094Y143386D01*
Y141682*
X385281Y142250D02*
X382000D01*
X385281Y139977D02*
X385125Y140318D01*
X384656Y140545*
X383875Y140659*
X383406*
X382625Y140545*
X382156Y140318*
X382000Y139977*
Y139750*
X382156Y139409*
X382625Y139182*
X383406Y139068*
X383875*
X384656Y139182*
X385125Y139409*
X385281Y139750*
Y139977*
X384656Y138045D02*
X384813Y137818D01*
X384813D02*
X385281Y137477D01*
X382000*
X353719Y354500D02*
X357000D01*
X353719D02*
Y355295D01*
X353875Y355636*
X354187Y355864*
X354187D02*
X354500Y355977D01*
X354969Y356091*
X355750*
X356219Y355977*
X356531Y355864*
X356844Y355636*
X357000Y355295*
Y354500*
X354500Y357227D02*
X354344D01*
X354031Y357341*
X353875Y357455*
X353719Y357682*
Y358136*
X353875Y358364*
X354031Y358477*
X354344Y358591*
X354656*
X354969Y358477*
X355437Y358250*
X355437D02*
X357000Y357114D01*
Y358705*
X353719Y360409D02*
X353875Y360068D01*
X354344Y359841*
X355125Y359727*
X355594*
X356375Y359841*
X356844Y360068*
X357000Y360409*
Y360636*
X356844Y360977*
X356375Y361205*
X355594Y361318*
X355125*
X354344Y361205*
X353875Y360977*
X353719Y360636*
Y360409*
X354344Y362341D02*
X354187Y362568D01*
X354187D02*
X353719Y362909D01*
X357000*
X354719Y201500D02*
X358000D01*
X354719D02*
Y202295D01*
X354875Y202636*
X355187Y202864*
X355187D02*
X355500Y202977D01*
X355969Y203091*
X356750*
X357219Y202977*
X357531Y202864*
X357844Y202636*
X358000Y202295*
Y201500*
X355500Y204227D02*
X355344D01*
X355031Y204341*
X354875Y204455*
X354719Y204682*
Y205136*
X354875Y205364*
X355031Y205477*
X355344Y205591*
X355656*
X355969Y205477*
X356437Y205250*
X356437D02*
X358000Y204114D01*
Y205705*
X354719Y207409D02*
X354875Y207068D01*
X355344Y206841*
X356125Y206727*
X356594*
X357375Y206841*
X357844Y207068*
X358000Y207409*
Y207636*
X357844Y207977*
X357375Y208205*
X356594Y208318*
X356125*
X355344Y208205*
X354875Y207977*
X354719Y207636*
Y207409*
X355500Y209455D02*
X355344D01*
X355031Y209568*
X354875Y209682*
X354719Y209909*
Y210364*
X354875Y210591*
X355031Y210705*
X355344Y210818*
X355656*
X355969Y210705*
X356437Y210477*
X356437D02*
X358000Y209341D01*
Y210932*
X117205Y131500D02*
X117091Y131812D01*
X117091D02*
X116864Y132125D01*
X116636Y132281*
X116182*
X115955Y132125*
X115727Y131812*
X115727D02*
X115614Y131500D01*
X115500Y131031*
Y130250*
X115614Y129781*
X115727Y129469*
X115955Y129156*
X116182Y129000*
X116636*
X116864Y129156*
X117091Y129469*
X117205Y129781*
X119364Y132281D02*
X118227Y130094D01*
X119932*
X119364Y132281D02*
Y129000D01*
X121636Y132281D02*
X121295Y132125D01*
X121068Y131656*
X120955Y130875*
Y130406*
X121068Y129625*
X121295Y129156*
X121636Y129000*
X121864*
X122205Y129156*
X122432Y129625*
X122545Y130406*
Y130875*
X122432Y131656*
X122205Y132125*
X121864Y132281*
X121636*
X123795D02*
X125045D01*
X124364Y131031*
X124705*
X124932Y130875*
X125045Y130719*
X125159Y130250*
Y129937*
X125159D02*
X125045Y129469D01*
X124818Y129156*
X124477Y129000*
X124136*
X123795Y129156*
X123682Y129312*
X123682D02*
X123568Y129625D01*
X129205Y466000D02*
X129091Y466313D01*
X129091D02*
X128864Y466625D01*
X128636Y466781*
X128182*
X127955Y466625*
X127727Y466313*
X127727D02*
X127614Y466000D01*
X127500Y465531*
Y464750*
X127614Y464281*
X127727Y463969*
X127955Y463656*
X128182Y463500*
X128636*
X128864Y463656*
X129091Y463969*
X129205Y464281*
X130227Y466156D02*
X130455Y466313D01*
X130455D02*
X130795Y466781D01*
Y463500*
X132500Y466781D02*
X132159Y466625D01*
X131932Y466156*
X131818Y465375*
Y464906*
X131932Y464125*
X132159Y463656*
X132500Y463500*
X132727*
X133068Y463656*
X133295Y464125*
X133409Y464906*
Y465375*
X133295Y466156*
X133068Y466625*
X132727Y466781*
X132500*
X134432Y466156D02*
X134659Y466313D01*
X134659D02*
X135000Y466781D01*
Y463500*
X173000Y475205D02*
X172687Y475091D01*
X172687D02*
X172375Y474864D01*
X172219Y474636*
Y474182*
X172375Y473955*
X172687Y473727*
X172687D02*
X173000Y473614D01*
X173469Y473500*
X174250*
X174719Y473614*
X175031Y473727*
X175344Y473955*
X175500Y474182*
Y474636*
X175344Y474864*
X175031Y475091*
X174719Y475205*
X172844Y476227D02*
X172687Y476455D01*
X172687D02*
X172219Y476795D01*
X175500*
X172219Y478500D02*
X172375Y478159D01*
X172844Y477932*
X173625Y477818*
X174094*
X174875Y477932*
X175344Y478159*
X175500Y478500*
Y478727*
X175344Y479068*
X174875Y479295*
X174094Y479409*
X173625*
X172844Y479295*
X172375Y479068*
X172219Y478727*
Y478500*
Y482023D02*
X175500Y480886D01*
X172219Y480432D02*
Y482023D01*
X159500Y489705D02*
X159187Y489591D01*
X159187D02*
X158875Y489364D01*
X158719Y489136*
Y488682*
X158875Y488455*
X159187Y488227*
X159187D02*
X159500Y488114D01*
X159969Y488000*
X160750*
X161219Y488114*
X161531Y488227*
X161844Y488455*
X162000Y488682*
Y489136*
X161844Y489364*
X161531Y489591*
X161219Y489705*
X159344Y490727D02*
X159187Y490955D01*
X159187D02*
X158719Y491295D01*
X162000*
X158719Y493000D02*
X158875Y492659D01*
X159344Y492432*
X160125Y492318*
X160594*
X161375Y492432*
X161844Y492659*
X162000Y493000*
Y493227*
X161844Y493568*
X161375Y493795*
X160594Y493909*
X160125*
X159344Y493795*
X158875Y493568*
X158719Y493227*
Y493000*
X159812Y496409D02*
X160281Y496295D01*
X160594Y496068*
X160750Y495727*
Y495614*
X160594Y495273*
X160281Y495045*
X159812Y494932*
X159812D02*
X159656D01*
X159187Y495045*
X159187D02*
X158875Y495273D01*
X158719Y495614*
Y495727*
X158875Y496068*
X159187Y496295*
X159187D02*
X159812Y496409D01*
X159812D02*
X160594D01*
X161375Y496295*
X161844Y496068*
X162000Y495727*
Y495500*
X161844Y495159*
X161531Y495045*
X117500Y422295D02*
X117813Y422409D01*
X118125Y422636*
X118281Y422864*
Y423318*
X118125Y423545*
X117813Y423773*
X117500Y423886*
X117031Y424000*
X116250*
X115781Y423886*
X115469Y423773*
X115156Y423545*
X115000Y423318*
Y422864*
X115156Y422636*
X115469Y422409*
X115781Y422295*
X117656Y421273D02*
X117813Y421045D01*
X118281Y420705*
X115000*
X117656Y419682D02*
X117813Y419455D01*
X118281Y419114*
X115000*
X118281Y416614D02*
Y417750D01*
X116875Y417864*
X117031Y417750*
X117188Y417409*
Y417068*
X117031Y416727*
X116719Y416500*
X116250Y416386*
X115938Y416500*
X115469Y416614*
X115156Y416841*
X115000Y417182*
Y417523*
X115156Y417864*
X115313Y417977*
X115625Y418091*
X134705Y301500D02*
X134591Y301813D01*
X134364Y302125*
X134136Y302281*
X133682*
X133455Y302125*
X133227Y301813*
X133114Y301500*
X133000Y301031*
Y300250*
X133114Y299781*
X133227Y299469*
X133455Y299156*
X133682Y299000*
X134136*
X134364Y299156*
X134591Y299469*
X134705Y299781*
X136864Y302281D02*
X135727Y300094D01*
X137432*
X136864Y302281D02*
Y299000D01*
X139136Y302281D02*
X138795Y302125D01*
X138568Y301656*
X138455Y300875*
Y300406*
X138568Y299625*
X138795Y299156*
X139136Y299000*
X139364*
X139705Y299156*
X139932Y299625*
X140045Y300406*
Y300875*
X139932Y301656*
X139705Y302125*
X139364Y302281*
X139136*
X141068Y301656D02*
X141295Y301813D01*
X141636Y302281*
Y299000*
X314719Y136000D02*
X318000D01*
X314719D02*
X318000Y136909D01*
X314719Y137818D02*
X318000Y136909D01*
X314719Y137818D02*
X318000D01*
X314719Y139977D02*
X316906Y138841D01*
Y140545*
X314719Y139977D02*
X318000D01*
X314719Y142250D02*
X314875Y141909D01*
X315344Y141682*
X316125Y141568*
X316594*
X317375Y141682*
X317844Y141909*
X318000Y142250*
Y142477*
X317844Y142818*
X317375Y143045*
X316594Y143159*
X316125*
X315344Y143045*
X314875Y142818*
X314719Y142477*
Y142250*
X315344Y144182D02*
X315187Y144409D01*
X315187D02*
X314719Y144750D01*
X318000*
X197781Y341000D02*
X195437D01*
X195437D02*
X194969Y340886D01*
X194656Y340659*
X194500Y340318*
Y340091*
X194656Y339750*
X194969Y339523*
X195437Y339409*
X195437D02*
X197781D01*
Y337250D02*
X195594Y338386D01*
Y336682*
X197781Y337250D02*
X194500D01*
X197781Y334977D02*
X197625Y335318D01*
X197156Y335545*
X196375Y335659*
X195906*
X195125Y335545*
X194656Y335318*
X194500Y334977*
Y334750*
X194656Y334409*
X195125Y334182*
X195906Y334068*
X196375*
X197156Y334182*
X197625Y334409*
X197781Y334750*
Y334977*
X197000Y332932D02*
X197156D01*
X197469Y332818*
X197625Y332705*
X197781Y332477*
Y332023*
X197625Y331795*
X197469Y331682*
X197156Y331568*
X196844*
X196531Y331682*
X196062Y331909*
X196062D02*
X194500Y333045D01*
Y331455*
X103219Y332000D02*
X106500D01*
X103219D02*
Y332795D01*
X103375Y333136*
X103687Y333364*
X103687D02*
X104000Y333477D01*
X104469Y333591*
X105250*
X105719Y333477*
X106031Y333364*
X106344Y333136*
X106500Y332795*
Y332000*
X103219Y335750D02*
X105406Y334614D01*
Y336318*
X103219Y335750D02*
X106500D01*
X103219Y338023D02*
X103375Y337682D01*
X103844Y337455*
X104625Y337341*
X105094*
X105875Y337455*
X106344Y337682*
X106500Y338023*
Y338250*
X106344Y338591*
X105875Y338818*
X105094Y338932*
X104625*
X103844Y338818*
X103375Y338591*
X103219Y338250*
Y338023*
X103844Y339955D02*
X103687Y340182D01*
X103687D02*
X103219Y340523D01*
X106500*
X195000Y547281D02*
Y544000D01*
Y547281D02*
X196023D01*
X196364Y547125*
X196477Y546969*
X196591Y546656*
Y546344*
X196477Y546031*
X196364Y545875*
X196023Y545719*
X195000*
X195795D02*
X196591Y544000D01*
X199091Y546188D02*
X198977Y545719D01*
X198750Y545406*
X198409Y545250*
X198295*
X197955Y545406*
X197727Y545719*
X197614Y546188*
X197614D02*
Y546344D01*
X197727Y546813*
X197727D02*
X197955Y547125D01*
X198295Y547281*
X198409*
X198750Y547125*
X198977Y546813*
X198977D02*
X199091Y546188D01*
X199091D02*
Y545406D01*
X198977Y544625*
X198750Y544156*
X198409Y544000*
X198182*
X197841Y544156*
X197727Y544469*
X200795Y547281D02*
X200455Y547125D01*
X200227Y546656*
X200114Y545875*
Y545406*
X200227Y544625*
X200455Y544156*
X200795Y544000*
X201023*
X201364Y544156*
X201591Y544625*
X201705Y545406*
Y545875*
X201591Y546656*
X201364Y547125*
X201023Y547281*
X200795*
X202727Y546656D02*
X202955Y546813D01*
X202955D02*
X203295Y547281D01*
Y544000*
X127719Y370000D02*
X130062D01*
X130062D02*
X130531Y370114D01*
X130844Y370341*
X131000Y370682*
Y370909*
X130844Y371250*
X130531Y371477*
X130062Y371591*
X130062D02*
X127719D01*
X128344Y372614D02*
X128187Y372841D01*
X128187D02*
X127719Y373182D01*
X131000*
X127719Y374886D02*
X127875Y374545D01*
X128344Y374318*
X129125Y374205*
X129594*
X130375Y374318*
X130844Y374545*
X131000Y374886*
Y375114*
X130844Y375455*
X130375Y375682*
X129594Y375795*
X129125*
X128344Y375682*
X127875Y375455*
X127719Y375114*
Y374886*
Y377500D02*
X127875Y377159D01*
X128344Y376932*
X129125Y376818*
X129594*
X130375Y376932*
X130844Y377159*
X131000Y377500*
Y377727*
X130844Y378068*
X130375Y378295*
X129594Y378409*
X129125*
X128344Y378295*
X127875Y378068*
X127719Y377727*
Y377500*
X128344Y379432D02*
X128187Y379659D01*
X128187D02*
X127719Y380000D01*
X131000*
X161281Y401500D02*
X158000D01*
X161281D02*
Y400477D01*
X161125Y400136*
X160969Y400023*
X160656Y399909*
X160344*
X160031Y400023*
X159875Y400136*
X159719Y400477*
Y401500*
Y400705D02*
X158000Y399909D01*
X160656Y398886D02*
X160813Y398659D01*
X160813D02*
X161281Y398318D01*
X158000*
X161281Y396614D02*
X161125Y396955D01*
X160656Y397182*
X159875Y397295*
X159406*
X158625Y397182*
X158156Y396955*
X158000Y396614*
Y396386*
X158156Y396045*
X158625Y395818*
X159406Y395705*
X159875*
X160656Y395818*
X161125Y396045*
X161281Y396386*
Y396614*
Y394000D02*
X161125Y394341D01*
X160656Y394568*
X159875Y394682*
X159406*
X158625Y394568*
X158156Y394341*
X158000Y394000*
Y393773*
X158156Y393432*
X158625Y393205*
X159406Y393091*
X159875*
X160656Y393205*
X161125Y393432*
X161281Y393773*
Y394000*
X160656Y392068D02*
X160813Y391841D01*
X160813D02*
X161281Y391500D01*
X158000*
X172500Y373781D02*
Y370500D01*
Y373781D02*
X173523D01*
X173864Y373625*
X173977Y373469*
X174091Y373156*
Y372844*
X173977Y372531*
X173864Y372375*
X173523Y372219*
X172500*
X173295D02*
X174091Y370500D01*
X175114Y373156D02*
X175341Y373313D01*
X175682Y373781*
Y370500*
X177386Y373781D02*
X177045Y373625D01*
X176818Y373156*
X176705Y372375*
Y371906*
X176818Y371125*
X177045Y370656*
X177386Y370500*
X177614*
X177955Y370656*
X178182Y371125*
X178295Y371906*
Y372375*
X178182Y373156*
X177955Y373625*
X177614Y373781*
X177386*
X180000D02*
X179659Y373625D01*
X179432Y373156*
X179318Y372375*
Y371906*
X179432Y371125*
X179659Y370656*
X180000Y370500*
X180227*
X180568Y370656*
X180795Y371125*
X180909Y371906*
Y372375*
X180795Y373156*
X180568Y373625*
X180227Y373781*
X180000*
X182045Y373000D02*
Y373156D01*
X182159Y373469*
X182273Y373625*
X182500Y373781*
X182955*
X183182Y373625*
X183295Y373469*
X183409Y373156*
Y372844*
X183295Y372531*
X183068Y372063*
X181932Y370500*
X183523*
X342500Y511781D02*
Y508500D01*
Y511781D02*
X343523D01*
X343864Y511625*
X343977Y511469*
X344091Y511156*
Y510844*
X343977Y510531*
X343864Y510375*
X343523Y510219*
X342500*
X343295D02*
X344091Y508500D01*
X345114Y511156D02*
X345341Y511313D01*
X345341D02*
X345682Y511781D01*
Y508500*
X347386Y511781D02*
X347045Y511625D01*
X346818Y511156*
X346705Y510375*
Y509906*
X346818Y509125*
X347045Y508656*
X347386Y508500*
X347614*
X347955Y508656*
X348182Y509125*
X348295Y509906*
Y510375*
X348182Y511156*
X347955Y511625*
X347614Y511781*
X347386*
X349545D02*
X350795D01*
X350114Y510531*
X350455*
X350682Y510375*
X350795Y510219*
X350909Y509750*
Y509438*
X350909D02*
X350795Y508969D01*
X350568Y508656*
X350227Y508500*
X349886*
X349545Y508656*
X349432Y508813*
X349432D02*
X349318Y509125D01*
X342500Y522281D02*
Y519000D01*
Y522281D02*
X343523D01*
X343864Y522125*
X343977Y521969*
X344091Y521656*
Y521344*
X343977Y521031*
X343864Y520875*
X343523Y520719*
X342500*
X343295D02*
X344091Y519000D01*
X345114Y521656D02*
X345341Y521813D01*
X345341D02*
X345682Y522281D01*
Y519000*
X347386Y522281D02*
X347045Y522125D01*
X346818Y521656*
X346705Y520875*
Y520406*
X346818Y519625*
X347045Y519156*
X347386Y519000*
X347614*
X347955Y519156*
X348182Y519625*
X348295Y520406*
Y520875*
X348182Y521656*
X347955Y522125*
X347614Y522281*
X347386*
X350455D02*
X349318Y520094D01*
X351023*
X350455Y522281D02*
Y519000D01*
X342500Y532281D02*
Y529000D01*
Y532281D02*
X343523D01*
X343864Y532125*
X343977Y531969*
X344091Y531656*
Y531344*
X343977Y531031*
X343864Y530875*
X343523Y530719*
X342500*
X343295D02*
X344091Y529000D01*
X345114Y531656D02*
X345341Y531813D01*
X345341D02*
X345682Y532281D01*
Y529000*
X347386Y532281D02*
X347045Y532125D01*
X346818Y531656*
X346705Y530875*
Y530406*
X346818Y529625*
X347045Y529156*
X347386Y529000*
X347614*
X347955Y529156*
X348182Y529625*
X348295Y530406*
Y530875*
X348182Y531656*
X347955Y532125*
X347614Y532281*
X347386*
X350795D02*
X349659D01*
X349545Y530875*
X349659Y531031*
X350000Y531188*
X350000D02*
X350341D01*
X350341D02*
X350682Y531031D01*
X350909Y530719*
X351023Y530250*
X350909Y529938*
X350909D02*
X350795Y529469D01*
X350568Y529156*
X350227Y529000*
X349886*
X349545Y529156*
X349432Y529313*
X349432D02*
X349318Y529625D01*
X305219Y361000D02*
X308500D01*
X305219D02*
Y362023D01*
X305375Y362364*
X305531Y362477*
X305844Y362591*
X306156*
X306469Y362477*
X306625Y362364*
X306781Y362023*
Y361000*
Y361795D02*
X308500Y362591D01*
X306000Y363727D02*
X305844D01*
X305531Y363841*
X305375Y363955*
X305219Y364182*
Y364636*
X305375Y364864*
X305531Y364977*
X305844Y365091*
X306156*
X306469Y364977*
X306937Y364750*
X306937D02*
X308500Y363614D01*
Y365205*
X305219Y366909D02*
X305375Y366568D01*
X305844Y366341*
X306625Y366227*
X307094*
X307875Y366341*
X308344Y366568*
X308500Y366909*
Y367136*
X308344Y367477*
X307875Y367705*
X307094Y367818*
X306625*
X305844Y367705*
X305375Y367477*
X305219Y367136*
Y366909*
X305844Y368841D02*
X305687Y369068D01*
X305687D02*
X305219Y369409D01*
X308500*
X305219Y347000D02*
X308500D01*
X305219D02*
Y348023D01*
X305375Y348364*
X305531Y348477*
X305844Y348591*
X306156*
X306469Y348477*
X306625Y348364*
X306781Y348023*
Y347000*
Y347795D02*
X308500Y348591D01*
X306000Y349727D02*
X305844D01*
X305531Y349841*
X305375Y349955*
X305219Y350182*
Y350636*
X305375Y350864*
X305531Y350977*
X305844Y351091*
X306156*
X306469Y350977*
X306937Y350750*
X306937D02*
X308500Y349614D01*
Y351205*
X305219Y352909D02*
X305375Y352568D01*
X305844Y352341*
X306625Y352227*
X307094*
X307875Y352341*
X308344Y352568*
X308500Y352909*
Y353136*
X308344Y353477*
X307875Y353705*
X307094Y353818*
X306625*
X305844Y353705*
X305375Y353477*
X305219Y353136*
Y352909*
X306000Y354955D02*
X305844D01*
X305531Y355068*
X305375Y355182*
X305219Y355409*
Y355864*
X305375Y356091*
X305531Y356205*
X305844Y356318*
X306156*
X306469Y356205*
X306937Y355977*
X306937D02*
X308500Y354841D01*
Y356432*
X339219Y346500D02*
X342500D01*
X339219D02*
Y347523D01*
X339375Y347864*
X339531Y347977*
X339844Y348091*
X340156*
X340469Y347977*
X340625Y347864*
X340781Y347523*
Y346500*
Y347295D02*
X342500Y348091D01*
X340000Y349227D02*
X339844D01*
X339531Y349341*
X339375Y349455*
X339219Y349682*
Y350136*
X339375Y350364*
X339531Y350477*
X339844Y350591*
X340156*
X340469Y350477*
X340937Y350250*
X340937D02*
X342500Y349114D01*
Y350705*
X339219Y352409D02*
X339375Y352068D01*
X339844Y351841*
X340625Y351727*
X341094*
X341875Y351841*
X342344Y352068*
X342500Y352409*
Y352636*
X342344Y352977*
X341875Y353205*
X341094Y353318*
X340625*
X339844Y353205*
X339375Y352977*
X339219Y352636*
Y352409*
Y354568D02*
Y355818D01*
X340469Y355136*
Y355477*
X340625Y355705*
X340781Y355818*
X341250Y355932*
X341562*
X341562D02*
X342031Y355818D01*
X342344Y355591*
X342500Y355250*
Y354909*
X342344Y354568*
X342187Y354455*
X342187D02*
X341875Y354341D01*
X305219Y208000D02*
X308500D01*
X305219D02*
Y209023D01*
X305375Y209364*
X305531Y209477*
X305844Y209591*
X306156*
X306469Y209477*
X306625Y209364*
X306781Y209023*
Y208000*
Y208795D02*
X308500Y209591D01*
X306000Y210727D02*
X305844D01*
X305531Y210841*
X305375Y210955*
X305219Y211182*
Y211636*
X305375Y211864*
X305531Y211977*
X305844Y212091*
X306156*
X306469Y211977*
X306937Y211750*
X306937D02*
X308500Y210614D01*
Y212205*
X305219Y213909D02*
X305375Y213568D01*
X305844Y213341*
X306625Y213227*
X307094*
X307875Y213341*
X308344Y213568*
X308500Y213909*
Y214136*
X308344Y214477*
X307875Y214705*
X307094Y214818*
X306625*
X305844Y214705*
X305375Y214477*
X305219Y214136*
Y213909*
Y216977D02*
X307406Y215841D01*
Y217545*
X305219Y216977D02*
X308500D01*
X305219Y194000D02*
X308500D01*
X305219D02*
Y195023D01*
X305375Y195364*
X305531Y195477*
X305844Y195591*
X306156*
X306469Y195477*
X306625Y195364*
X306781Y195023*
Y194000*
Y194795D02*
X308500Y195591D01*
X306000Y196727D02*
X305844D01*
X305531Y196841*
X305375Y196955*
X305219Y197182*
Y197636*
X305375Y197864*
X305531Y197977*
X305844Y198091*
X306156*
X306469Y197977*
X306937Y197750*
X306937D02*
X308500Y196614D01*
Y198205*
X305219Y199909D02*
X305375Y199568D01*
X305844Y199341*
X306625Y199227*
X307094*
X307875Y199341*
X308344Y199568*
X308500Y199909*
Y200136*
X308344Y200477*
X307875Y200705*
X307094Y200818*
X306625*
X305844Y200705*
X305375Y200477*
X305219Y200136*
Y199909*
Y203318D02*
Y202182D01*
X306625Y202068*
X306469Y202182*
X306312Y202523*
X306312D02*
Y202864D01*
X306312D02*
X306469Y203205D01*
X306781Y203432*
X307250Y203545*
X307562Y203432*
X307562D02*
X308031Y203318D01*
X308344Y203091*
X308500Y202750*
Y202409*
X308344Y202068*
X308187Y201955*
X308187D02*
X307875Y201841D01*
X339219Y194000D02*
X342500D01*
X339219D02*
Y195023D01*
X339375Y195364*
X339531Y195477*
X339844Y195591*
X340156*
X340469Y195477*
X340625Y195364*
X340781Y195023*
Y194000*
Y194795D02*
X342500Y195591D01*
X340000Y196727D02*
X339844D01*
X339531Y196841*
X339375Y196955*
X339219Y197182*
Y197636*
X339375Y197864*
X339531Y197977*
X339844Y198091*
X340156*
X340469Y197977*
X340937Y197750*
X340937D02*
X342500Y196614D01*
Y198205*
X339219Y199909D02*
X339375Y199568D01*
X339844Y199341*
X340625Y199227*
X341094*
X341875Y199341*
X342344Y199568*
X342500Y199909*
Y200136*
X342344Y200477*
X341875Y200705*
X341094Y200818*
X340625*
X339844Y200705*
X339375Y200477*
X339219Y200136*
Y199909*
X339687Y203205D02*
X339375Y203091D01*
X339219Y202750*
Y202523*
X339375Y202182*
X339844Y201955*
X340625Y201841*
X341406*
X342031Y201955*
X342344Y202182*
X342500Y202523*
Y202636*
X342344Y202977*
X342031Y203205*
X341562Y203318*
X341562D02*
X341406D01*
X340937Y203205*
X340937D02*
X340625Y202977D01*
X340469Y202636*
Y202523*
X340625Y202182*
X340937Y201955*
X340937D02*
X341406Y201841D01*
X366500Y488281D02*
Y485000D01*
Y488281D02*
X367523D01*
X367864Y488125*
X367977Y487969*
X368091Y487656*
Y487344*
X367977Y487031*
X367864Y486875*
X367523Y486719*
X366500*
X367295D02*
X368091Y485000D01*
X369341Y488281D02*
X370591D01*
X369909Y487031*
X370250*
X370477Y486875*
X370591Y486719*
X370705Y486250*
Y485938*
X370705D02*
X370591Y485469D01*
X370364Y485156*
X370023Y485000*
X369682*
X369341Y485156*
X369227Y485313*
X369227D02*
X369114Y485625D01*
X372409Y488281D02*
X372068Y488125D01*
X371841Y487656*
X371727Y486875*
Y486406*
X371841Y485625*
X372068Y485156*
X372409Y485000*
X372636*
X372977Y485156*
X373205Y485625*
X373318Y486406*
Y486875*
X373205Y487656*
X372977Y488125*
X372636Y488281*
X372409*
X374341Y487656D02*
X374568Y487813D01*
X374568D02*
X374909Y488281D01*
Y485000*
X366000Y495781D02*
Y492500D01*
Y495781D02*
X367023D01*
X367364Y495625*
X367477Y495469*
X367591Y495156*
Y494844*
X367477Y494531*
X367364Y494375*
X367023Y494219*
X366000*
X366795D02*
X367591Y492500D01*
X368841Y495781D02*
X370091D01*
X369409Y494531*
X369750*
X369977Y494375*
X370091Y494219*
X370205Y493750*
Y493438*
X370205D02*
X370091Y492969D01*
X369864Y492656*
X369523Y492500*
X369182*
X368841Y492656*
X368727Y492813*
X368727D02*
X368614Y493125D01*
X371909Y495781D02*
X371568Y495625D01*
X371341Y495156*
X371227Y494375*
Y493906*
X371341Y493125*
X371568Y492656*
X371909Y492500*
X372136*
X372477Y492656*
X372705Y493125*
X372818Y493906*
Y494375*
X372705Y495156*
X372477Y495625*
X372136Y495781*
X371909*
X373955Y495000D02*
Y495156D01*
X374068Y495469*
X374182Y495625*
X374409Y495781*
X374864*
X375091Y495625*
X375205Y495469*
X375318Y495156*
Y494844*
X375205Y494531*
X374977Y494063*
X374977D02*
X373841Y492500D01*
X375432*
X169719Y531000D02*
X173000D01*
X169719D02*
Y532023D01*
X169875Y532364*
X170031Y532477*
X170344Y532591*
X170656*
X170969Y532477*
X171125Y532364*
X171281Y532023*
Y531000*
Y531795D02*
X173000Y532591D01*
X170812Y535091D02*
X171281Y534977D01*
X171594Y534750*
X171750Y534409*
Y534295*
X171594Y533955*
X171281Y533727*
X170812Y533614*
X170812D02*
X170656D01*
X170187Y533727*
X170187D02*
X169875Y533955D01*
X169719Y534295*
Y534409*
X169875Y534750*
X170187Y534977*
X170187D02*
X170812Y535091D01*
X170812D02*
X171594D01*
X172375Y534977*
X172844Y534750*
X173000Y534409*
Y534182*
X172844Y533841*
X172531Y533727*
X169719Y536795D02*
X169875Y536455D01*
X170344Y536227*
X171125Y536114*
X171594*
X172375Y536227*
X172844Y536455*
X173000Y536795*
Y537023*
X172844Y537364*
X172375Y537591*
X171594Y537705*
X171125*
X170344Y537591*
X169875Y537364*
X169719Y537023*
Y536795*
X170500Y538841D02*
X170344D01*
X170031Y538955*
X169875Y539068*
X169719Y539295*
Y539750*
X169875Y539977*
X170031Y540091*
X170344Y540205*
X170656*
X170969Y540091*
X171437Y539864*
X171437D02*
X173000Y538727D01*
Y540318*
X241500Y470719D02*
X239909Y474000D01*
Y470719D02*
X241500Y474000D01*
X238886Y471344D02*
X238659Y471187D01*
X238659D02*
X238318Y470719D01*
Y474000*
X236614Y470719D02*
X236955Y470875D01*
X237182Y471344*
X237295Y472125*
Y472594*
X237182Y473375*
X236955Y473844*
X236614Y474000*
X236386*
X236045Y473844*
X235818Y473375*
X235705Y472594*
Y472125*
X235818Y471344*
X236045Y470875*
X236386Y470719*
X236614*
X234682Y471344D02*
X234455Y471187D01*
X234455D02*
X234114Y470719D01*
Y474000*
X140219Y334000D02*
X142562D01*
X142562D02*
X143031Y334114D01*
X143344Y334341*
X143500Y334682*
Y334909*
X143344Y335250*
X143031Y335477*
X142562Y335591*
X142562D02*
X140219D01*
Y337750D02*
X142406Y336614D01*
Y338318*
X140219Y337750D02*
X143500D01*
X140219Y340023D02*
X140375Y339682D01*
X140844Y339455*
X141625Y339341*
X142094*
X142875Y339455*
X143344Y339682*
X143500Y340023*
Y340250*
X143344Y340591*
X142875Y340818*
X142094Y340932*
X141625*
X140844Y340818*
X140375Y340591*
X140219Y340250*
Y340023*
Y342182D02*
Y343432D01*
X141469Y342750*
Y343091*
X141625Y343318*
X141781Y343432*
X142250Y343545*
X142562*
X142562D02*
X143031Y343432D01*
X143344Y343205*
X143500Y342864*
Y342523*
X143344Y342182*
X143187Y342068*
X143187D02*
X142875Y341955D01*
X105000Y148281D02*
Y145938D01*
X105000D02*
X105114Y145469D01*
X105341Y145156*
X105682Y145000*
X105909*
X106250Y145156*
X106477Y145469*
X106591Y145938*
X106591D02*
Y148281D01*
X108750D02*
X107614Y146094D01*
X109318*
X108750Y148281D02*
Y145000D01*
X111023Y148281D02*
X110682Y148125D01*
X110455Y147656*
X110341Y146875*
Y146406*
X110455Y145625*
X110682Y145156*
X111023Y145000*
X111250*
X111591Y145156*
X111818Y145625*
X111932Y146406*
Y146875*
X111818Y147656*
X111591Y148125*
X111250Y148281*
X111023*
X112955Y147656D02*
X113182Y147813D01*
X113182D02*
X113523Y148281D01*
Y145000*
X304136Y258281D02*
Y255781D01*
X304023Y255313*
X304023D02*
X303909Y255156D01*
X303682Y255000*
X303455*
X303227Y255156*
X303114Y255313*
X303114D02*
X303000Y255781D01*
Y256094*
X305159Y257656D02*
X305386Y257813D01*
X305386D02*
X305727Y258281D01*
Y255000*
X306977Y258281D02*
X308227D01*
X307545Y257031*
X307886*
X308114Y256875*
X308227Y256719*
X308341Y256250*
Y255938*
X308341D02*
X308227Y255469D01*
X308000Y255156*
X307659Y255000*
X307318*
X306977Y255156*
X306864Y255313*
X306864D02*
X306750Y255625D01*
X310045Y258281D02*
X309705Y258125D01*
X309477Y257656*
X309364Y256875*
Y256406*
X309477Y255625*
X309705Y255156*
X310045Y255000*
X310273*
X310614Y255156*
X310841Y255625*
X310955Y256406*
Y256875*
X310841Y257656*
X310614Y258125*
X310273Y258281*
X310045*
X311977Y257656D02*
X312205Y257813D01*
X312205D02*
X312545Y258281D01*
Y255000*
X302636Y105281D02*
Y102781D01*
X302523Y102313*
X302523D02*
X302409Y102156D01*
X302182Y102000*
X301955*
X301727Y102156*
X301614Y102313*
X301614D02*
X301500Y102781D01*
Y103094*
X303659Y104656D02*
X303886Y104813D01*
X303886D02*
X304227Y105281D01*
Y102000*
X305477Y105281D02*
X306727D01*
X306045Y104031*
X306386*
X306614Y103875*
X306727Y103719*
X306841Y103250*
Y102938*
X306841D02*
X306727Y102469D01*
X306500Y102156*
X306159Y102000*
X305818*
X305477Y102156*
X305364Y102313*
X305364D02*
X305250Y102625D01*
X308545Y105281D02*
X308205Y105125D01*
X307977Y104656*
X307864Y103875*
Y103406*
X307977Y102625*
X308205Y102156*
X308545Y102000*
X308773*
X309114Y102156*
X309341Y102625*
X309455Y103406*
Y103875*
X309341Y104656*
X309114Y105125*
X308773Y105281*
X308545*
X310591Y104500D02*
Y104656D01*
X310705Y104969*
X310818Y105125*
X311045Y105281*
X311500*
X311727Y105125*
X311841Y104969*
X311955Y104656*
Y104344*
X311841Y104031*
X311614Y103563*
X311614D02*
X310477Y102000D01*
X312068*
X328781Y296000D02*
X326438D01*
X326438D02*
X325969Y295886D01*
X325656Y295659*
X325500Y295318*
Y295091*
X325656Y294750*
X325969Y294523*
X326438Y294409*
X326438D02*
X328781D01*
Y293159D02*
Y291909D01*
X327531Y292591*
Y292250*
X327375Y292023*
X327219Y291909*
X326750Y291795*
X326438*
X326438D02*
X325969Y291909D01*
X325656Y292136*
X325500Y292477*
Y292818*
X325656Y293159*
X325813Y293273*
X325813D02*
X326125Y293386D01*
X328781Y290091D02*
X328625Y290432D01*
X328156Y290659*
X327375Y290773*
X326906*
X326125Y290659*
X325656Y290432*
X325500Y290091*
Y289864*
X325656Y289523*
X326125Y289295*
X326906Y289182*
X327375*
X328156Y289295*
X328625Y289523*
X328781Y289864*
Y290091*
X328156Y288159D02*
X328313Y287932D01*
X328313D02*
X328781Y287591D01*
X325500*
X174205Y365500D02*
X174091Y365813D01*
X174091D02*
X173864Y366125D01*
X173636Y366281*
X173182*
X172955Y366125*
X172727Y365813*
X172727D02*
X172614Y365500D01*
X172500Y365031*
Y364250*
X172614Y363781*
X172727Y363469*
X172955Y363156*
X173182Y363000*
X173636*
X173864Y363156*
X174091Y363469*
X174205Y363781*
X175227Y365656D02*
X175455Y365813D01*
X175455D02*
X175795Y366281D01*
Y363000*
X177500Y366281D02*
X177159Y366125D01*
X176932Y365656*
X176818Y364875*
Y364406*
X176932Y363625*
X177159Y363156*
X177500Y363000*
X177727*
X178068Y363156*
X178295Y363625*
X178409Y364406*
Y364875*
X178295Y365656*
X178068Y366125*
X177727Y366281*
X177500*
X180114D02*
X179773Y366125D01*
X179545Y365656*
X179432Y364875*
Y364406*
X179545Y363625*
X179773Y363156*
X180114Y363000*
X180341*
X180682Y363156*
X180909Y363625*
X181023Y364406*
Y364875*
X180909Y365656*
X180682Y366125*
X180341Y366281*
X180114*
X182159Y365500D02*
Y365656D01*
X182273Y365969*
X182386Y366125*
X182614Y366281*
X183068*
X183295Y366125*
X183409Y365969*
X183523Y365656*
Y365344*
X183409Y365031*
X183182Y364563*
X183182D02*
X182045Y363000D01*
X183636*
X168000Y400295D02*
X168313Y400409D01*
X168313D02*
X168625Y400636D01*
X168781Y400864*
Y401318*
X168625Y401545*
X168313Y401773*
X168313D02*
X168000Y401886D01*
X167531Y402000*
X166750*
X166281Y401886*
X165969Y401773*
X165656Y401545*
X165500Y401318*
Y400864*
X165656Y400636*
X165969Y400409*
X166281Y400295*
X168156Y399273D02*
X168313Y399045D01*
X168313D02*
X168781Y398705D01*
X165500*
X168781Y397000D02*
X168625Y397341D01*
X168156Y397568*
X167375Y397682*
X166906*
X166125Y397568*
X165656Y397341*
X165500Y397000*
Y396773*
X165656Y396432*
X166125Y396205*
X166906Y396091*
X167375*
X168156Y396205*
X168625Y396432*
X168781Y396773*
Y397000*
Y394386D02*
X168625Y394727D01*
X168156Y394955*
X167375Y395068*
X166906*
X166125Y394955*
X165656Y394727*
X165500Y394386*
Y394159*
X165656Y393818*
X166125Y393591*
X166906Y393477*
X167375*
X168156Y393591*
X168625Y393818*
X168781Y394159*
Y394386*
Y392227D02*
Y390977D01*
X167531Y391659*
Y391318*
X167375Y391091*
X167219Y390977*
X166750Y390864*
X166438*
X166438D02*
X165969Y390977D01*
X165656Y391205*
X165500Y391545*
Y391886*
X165656Y392227*
X165813Y392341*
X165813D02*
X166125Y392455D01*
X321205Y366000D02*
X321091Y366313D01*
X321091D02*
X320864Y366625D01*
X320636Y366781*
X320182*
X319955Y366625*
X319727Y366313*
X319727D02*
X319614Y366000D01*
X319500Y365531*
Y364750*
X319614Y364281*
X319727Y363969*
X319955Y363656*
X320182Y363500*
X320636*
X320864Y363656*
X321091Y363969*
X321205Y364281*
X322341Y366000D02*
Y366156D01*
X322455Y366469*
X322568Y366625*
X322795Y366781*
X323250*
X323477Y366625*
X323591Y366469*
X323705Y366156*
Y365844*
X323591Y365531*
X323364Y365063*
X323364D02*
X322227Y363500D01*
X323818*
X325523Y366781D02*
X325182Y366625D01*
X324955Y366156*
X324841Y365375*
Y364906*
X324955Y364125*
X325182Y363656*
X325523Y363500*
X325750*
X326091Y363656*
X326318Y364125*
X326432Y364906*
Y365375*
X326318Y366156*
X326091Y366625*
X325750Y366781*
X325523*
X327455Y366156D02*
X327682Y366313D01*
X327682D02*
X328023Y366781D01*
Y363500*
X340000Y362705D02*
X339687Y362591D01*
X339687D02*
X339375Y362364D01*
X339219Y362136*
Y361682*
X339375Y361455*
X339687Y361227*
X339687D02*
X340000Y361114D01*
X340469Y361000*
X341250*
X341719Y361114*
X342031Y361227*
X342344Y361455*
X342500Y361682*
Y362136*
X342344Y362364*
X342031Y362591*
X341719Y362705*
X340000Y363841D02*
X339844D01*
X339531Y363955*
X339375Y364068*
X339219Y364295*
Y364750*
X339375Y364977*
X339531Y365091*
X339844Y365205*
X340156*
X340469Y365091*
X340937Y364864*
X340937D02*
X342500Y363727D01*
Y365318*
X339219Y367023D02*
X339375Y366682D01*
X339844Y366455*
X340625Y366341*
X341094*
X341875Y366455*
X342344Y366682*
X342500Y367023*
Y367250*
X342344Y367591*
X341875Y367818*
X341094Y367932*
X340625*
X339844Y367818*
X339375Y367591*
X339219Y367250*
Y367023*
X340000Y369068D02*
X339844D01*
X339531Y369182*
X339375Y369295*
X339219Y369523*
Y369977*
X339375Y370205*
X339531Y370318*
X339844Y370432*
X340156*
X340469Y370318*
X340937Y370091*
X340937D02*
X342500Y368955D01*
Y370545*
X321205Y213000D02*
X321091Y213313D01*
X321091D02*
X320864Y213625D01*
X320636Y213781*
X320182*
X319955Y213625*
X319727Y213313*
X319727D02*
X319614Y213000D01*
X319500Y212531*
Y211750*
X319614Y211281*
X319727Y210969*
X319955Y210656*
X320182Y210500*
X320636*
X320864Y210656*
X321091Y210969*
X321205Y211281*
X322341Y213000D02*
Y213156D01*
X322455Y213469*
X322568Y213625*
X322795Y213781*
X323250*
X323477Y213625*
X323591Y213469*
X323705Y213156*
Y212844*
X323591Y212531*
X323364Y212063*
X323364D02*
X322227Y210500D01*
X323818*
X325523Y213781D02*
X325182Y213625D01*
X324955Y213156*
X324841Y212375*
Y211906*
X324955Y211125*
X325182Y210656*
X325523Y210500*
X325750*
X326091Y210656*
X326318Y211125*
X326432Y211906*
Y212375*
X326318Y213156*
X326091Y213625*
X325750Y213781*
X325523*
X327682D02*
X328932D01*
X328250Y212531*
X328591*
X328818Y212375*
X328932Y212219*
X329045Y211750*
Y211438*
X329045D02*
X328932Y210969D01*
X328705Y210656*
X328364Y210500*
X328023*
X327682Y210656*
X327568Y210813*
X327568D02*
X327455Y211125D01*
X340000Y209705D02*
X339687Y209591D01*
X339687D02*
X339375Y209364D01*
X339219Y209136*
Y208682*
X339375Y208455*
X339687Y208227*
X339687D02*
X340000Y208114D01*
X340469Y208000*
X341250*
X341719Y208114*
X342031Y208227*
X342344Y208455*
X342500Y208682*
Y209136*
X342344Y209364*
X342031Y209591*
X341719Y209705*
X340000Y210841D02*
X339844D01*
X339531Y210955*
X339375Y211068*
X339219Y211295*
Y211750*
X339375Y211977*
X339531Y212091*
X339844Y212205*
X340156*
X340469Y212091*
X340937Y211864*
X340937D02*
X342500Y210727D01*
Y212318*
X339219Y214023D02*
X339375Y213682D01*
X339844Y213455*
X340625Y213341*
X341094*
X341875Y213455*
X342344Y213682*
X342500Y214023*
Y214250*
X342344Y214591*
X341875Y214818*
X341094Y214932*
X340625*
X339844Y214818*
X339375Y214591*
X339219Y214250*
Y214023*
Y217091D02*
X341406Y215955D01*
Y217659*
X339219Y217091D02*
X342500D01*
X363500Y293795D02*
X363813Y293909D01*
X363813D02*
X364125Y294136D01*
X364281Y294364*
Y294818*
X364125Y295045*
X363813Y295273*
X363813D02*
X363500Y295386D01*
X363031Y295500*
X362250*
X361781Y295386*
X361469Y295273*
X361156Y295045*
X361000Y294818*
Y294364*
X361156Y294136*
X361469Y293909*
X361781Y293795*
X364281Y292545D02*
Y291295D01*
X363031Y291977*
Y291636*
X362875Y291409*
X362719Y291295*
X362250Y291182*
X361938*
X361938D02*
X361469Y291295D01*
X361156Y291523*
X361000Y291864*
Y292205*
X361156Y292545*
X361313Y292659*
X361313D02*
X361625Y292773D01*
X364281Y289477D02*
X364125Y289818D01*
X363656Y290045*
X362875Y290159*
X362406*
X361625Y290045*
X361156Y289818*
X361000Y289477*
Y289250*
X361156Y288909*
X361625Y288682*
X362406Y288568*
X362875*
X363656Y288682*
X364125Y288909*
X364281Y289250*
Y289477*
X363656Y287545D02*
X363813Y287318D01*
X363813D02*
X364281Y286977D01*
X361000*
X154205Y358000D02*
X154091Y358313D01*
X154091D02*
X153864Y358625D01*
X153636Y358781*
X153182*
X152955Y358625*
X152727Y358313*
X152727D02*
X152614Y358000D01*
X152500Y357531*
Y356750*
X152614Y356281*
X152727Y355969*
X152955Y355656*
X153182Y355500*
X153636*
X153864Y355656*
X154091Y355969*
X154205Y356281*
X156364Y358781D02*
X155227Y356594D01*
X156932*
X156364Y358781D02*
Y355500D01*
X158636Y358781D02*
X158295Y358625D01*
X158068Y358156*
X157955Y357375*
Y356906*
X158068Y356125*
X158295Y355656*
X158636Y355500*
X158864*
X159205Y355656*
X159432Y356125*
X159545Y356906*
Y357375*
X159432Y358156*
X159205Y358625*
X158864Y358781*
X158636*
X161250D02*
X160909Y358625D01*
X160682Y358156*
X160568Y357375*
Y356906*
X160682Y356125*
X160909Y355656*
X161250Y355500*
X161477*
X161818Y355656*
X162045Y356125*
X162159Y356906*
Y357375*
X162045Y358156*
X161818Y358625*
X161477Y358781*
X161250*
X163182Y358156D02*
X163409Y358313D01*
X163409D02*
X163750Y358781D01*
Y355500*
X118705Y354500D02*
X118591Y354812D01*
X118591D02*
X118364Y355125D01*
X118136Y355281*
X117682*
X117455Y355125*
X117227Y354812*
X117227D02*
X117114Y354500D01*
X117000Y354031*
Y353250*
X117114Y352781*
X117227Y352469*
X117455Y352156*
X117682Y352000*
X118136*
X118364Y352156*
X118591Y352469*
X118705Y352781*
X120864Y355281D02*
X119727Y353094D01*
X121432*
X120864Y355281D02*
Y352000D01*
X123136Y355281D02*
X122795Y355125D01*
X122568Y354656*
X122455Y353875*
Y353406*
X122568Y352625*
X122795Y352156*
X123136Y352000*
X123364*
X123705Y352156*
X123932Y352625*
X124045Y353406*
Y353875*
X123932Y354656*
X123705Y355125*
X123364Y355281*
X123136*
X125182Y354500D02*
Y354656D01*
X125295Y354969*
X125409Y355125*
X125636Y355281*
X126091*
X126318Y355125*
X126432Y354969*
X126545Y354656*
Y354344*
X126432Y354031*
X126205Y353562*
X126205D02*
X125068Y352000D01*
X126659*
X163205Y307000D02*
X163091Y307313D01*
X162864Y307625*
X162636Y307781*
X162182*
X161955Y307625*
X161727Y307313*
X161614Y307000*
X161500Y306531*
Y305750*
X161614Y305281*
X161727Y304969*
X161955Y304656*
X162182Y304500*
X162636*
X162864Y304656*
X163091Y304969*
X163205Y305281*
X165364Y307781D02*
X164227Y305594D01*
X165932*
X165364Y307781D02*
Y304500D01*
X167636Y307781D02*
X167295Y307625D01*
X167068Y307156*
X166955Y306375*
Y305906*
X167068Y305125*
X167295Y304656*
X167636Y304500*
X167864*
X168205Y304656*
X168432Y305125*
X168545Y305906*
Y306375*
X168432Y307156*
X168205Y307625*
X167864Y307781*
X167636*
X170705D02*
X169568Y305594D01*
X171273*
X170705Y307781D02*
Y304500D01*
X163205Y346000D02*
X163091Y346313D01*
X162864Y346625*
X162636Y346781*
X162182*
X161955Y346625*
X161727Y346313*
X161614Y346000*
X161500Y345531*
Y344750*
X161614Y344281*
X161727Y343969*
X161955Y343656*
X162182Y343500*
X162636*
X162864Y343656*
X163091Y343969*
X163205Y344281*
X165364Y346781D02*
X164227Y344594D01*
X165932*
X165364Y346781D02*
Y343500D01*
X167636Y346781D02*
X167295Y346625D01*
X167068Y346156*
X166955Y345375*
Y344906*
X167068Y344125*
X167295Y343656*
X167636Y343500*
X167864*
X168205Y343656*
X168432Y344125*
X168545Y344906*
Y345375*
X168432Y346156*
X168205Y346625*
X167864Y346781*
X167636*
X171045D02*
X169909D01*
X169795Y345375*
X169909Y345531*
X170250Y345688*
X170591*
X170932Y345531*
X171159Y345219*
X171273Y344750*
X171159Y344438*
X171045Y343969*
X170818Y343656*
X170477Y343500*
X170136*
X169795Y343656*
X169682Y343813*
X169568Y344125*
X182705Y305000D02*
X182591Y305313D01*
X182591D02*
X182364Y305625D01*
X182136Y305781*
X181682*
X181455Y305625*
X181227Y305313*
X181227D02*
X181114Y305000D01*
X181000Y304531*
Y303750*
X181114Y303281*
X181227Y302969*
X181455Y302656*
X181682Y302500*
X182136*
X182364Y302656*
X182591Y302969*
X182705Y303281*
X184864Y305781D02*
X183727Y303594D01*
X185432*
X184864Y305781D02*
Y302500D01*
X187136Y305781D02*
X186795Y305625D01*
X186568Y305156*
X186455Y304375*
Y303906*
X186568Y303125*
X186795Y302656*
X187136Y302500*
X187364*
X187705Y302656*
X187932Y303125*
X188045Y303906*
Y304375*
X187932Y305156*
X187705Y305625*
X187364Y305781*
X187136*
X190432Y305313D02*
X190318Y305625D01*
X189977Y305781*
X189750*
X189409Y305625*
X189182Y305156*
X189068Y304375*
Y303594*
X189182Y302969*
X189409Y302656*
X189750Y302500*
X189864*
X190205Y302656*
X190432Y302969*
X190545Y303438*
X190545D02*
Y303594D01*
X190432Y304063*
X190432D02*
X190205Y304375D01*
X189864Y304531*
X189750*
X189409Y304375*
X189182Y304063*
X189182D02*
X189068Y303594D01*
X183205Y349000D02*
X183091Y349313D01*
X183091D02*
X182864Y349625D01*
X182636Y349781*
X182182*
X181955Y349625*
X181727Y349313*
X181727D02*
X181614Y349000D01*
X181500Y348531*
Y347750*
X181614Y347281*
X181727Y346969*
X181955Y346656*
X182182Y346500*
X182636*
X182864Y346656*
X183091Y346969*
X183205Y347281*
X185364Y349781D02*
X184227Y347594D01*
X185932*
X185364Y349781D02*
Y346500D01*
X187636Y349781D02*
X187295Y349625D01*
X187068Y349156*
X186955Y348375*
Y347906*
X187068Y347125*
X187295Y346656*
X187636Y346500*
X187864*
X188205Y346656*
X188432Y347125*
X188545Y347906*
Y348375*
X188432Y349156*
X188205Y349625*
X187864Y349781*
X187636*
X191159D02*
X190023Y346500D01*
X189568Y349781D02*
X191159D01*
X314500Y453205D02*
X314187Y453091D01*
X313875Y452864*
X313719Y452636*
Y452182*
X313875Y451955*
X314187Y451727*
X314500Y451614*
X314969Y451500*
X315750*
X316219Y451614*
X316531Y451727*
X316844Y451955*
X317000Y452182*
Y452636*
X316844Y452864*
X316531Y453091*
X316219Y453205*
X314187Y455591D02*
X313875Y455477D01*
X313719Y455136*
Y454909*
X313875Y454568*
X314344Y454341*
X315125Y454227*
X315906*
X316531Y454341*
X316844Y454568*
X317000Y454909*
Y455023*
X316844Y455364*
X316531Y455591*
X316062Y455705*
X315906*
X315437Y455591*
X315125Y455364*
X314969Y455023*
Y454909*
X315125Y454568*
X315437Y454341*
X315906Y454227*
X313719Y457409D02*
X313875Y457068D01*
X314344Y456841*
X315125Y456727*
X315594*
X316375Y456841*
X316844Y457068*
X317000Y457409*
Y457636*
X316844Y457977*
X316375Y458205*
X315594Y458318*
X315125*
X314344Y458205*
X313875Y457977*
X313719Y457636*
Y457409*
X314344Y459341D02*
X314187Y459568D01*
X313719Y459909*
X317000*
X307500Y453205D02*
X307187Y453091D01*
X306875Y452864*
X306719Y452636*
Y452182*
X306875Y451955*
X307187Y451727*
X307500Y451614*
X307969Y451500*
X308750*
X309219Y451614*
X309531Y451727*
X309844Y451955*
X310000Y452182*
Y452636*
X309844Y452864*
X309531Y453091*
X309219Y453205*
X307187Y455591D02*
X306875Y455477D01*
X306719Y455136*
Y454909*
X306875Y454568*
X307344Y454341*
X308125Y454227*
X308906*
X309531Y454341*
X309844Y454568*
X310000Y454909*
Y455023*
X309844Y455364*
X309531Y455591*
X309062Y455705*
X308906*
X308437Y455591*
X308125Y455364*
X307969Y455023*
Y454909*
X308125Y454568*
X308437Y454341*
X308906Y454227*
X306719Y457409D02*
X306875Y457068D01*
X307344Y456841*
X308125Y456727*
X308594*
X309375Y456841*
X309844Y457068*
X310000Y457409*
Y457636*
X309844Y457977*
X309375Y458205*
X308594Y458318*
X308125*
X307344Y458205*
X306875Y457977*
X306719Y457636*
Y457409*
X307500Y459455D02*
X307344D01*
X307031Y459568*
X306875Y459682*
X306719Y459909*
Y460364*
X306875Y460591*
X307031Y460705*
X307344Y460818*
X307656*
X307969Y460705*
X308437Y460477*
X310000Y459341*
Y460932*
X363705Y404500D02*
X363591Y404813D01*
X363591D02*
X363364Y405125D01*
X363136Y405281*
X362682*
X362455Y405125*
X362227Y404813*
X362227D02*
X362114Y404500D01*
X362000Y404031*
Y403250*
X362114Y402781*
X362227Y402469*
X362455Y402156*
X362682Y402000*
X363136*
X363364Y402156*
X363591Y402469*
X363705Y402781*
X366091Y404813D02*
X365977Y405125D01*
X365636Y405281*
X365409*
X365068Y405125*
X364841Y404656*
X364727Y403875*
Y403094*
X364841Y402469*
X365068Y402156*
X365409Y402000*
X365523*
X365864Y402156*
X366091Y402469*
X366205Y402938*
X366205D02*
Y403094D01*
X366091Y403563*
X366091D02*
X365864Y403875D01*
X365523Y404031*
X365409*
X365068Y403875*
X364841Y403563*
X364841D02*
X364727Y403094D01*
X367909Y405281D02*
X367568Y405125D01*
X367341Y404656*
X367227Y403875*
Y403406*
X367341Y402625*
X367568Y402156*
X367909Y402000*
X368136*
X368477Y402156*
X368705Y402625*
X368818Y403406*
Y403875*
X368705Y404656*
X368477Y405125*
X368136Y405281*
X367909*
X370068D02*
X371318D01*
X370636Y404031*
X370977*
X371205Y403875*
X371318Y403719*
X371432Y403250*
Y402938*
X371432D02*
X371318Y402469D01*
X371091Y402156*
X370750Y402000*
X370409*
X370068Y402156*
X369955Y402313*
X369955D02*
X369841Y402625D01*
X390205Y438000D02*
X390091Y438313D01*
X390091D02*
X389864Y438625D01*
X389636Y438781*
X389182*
X388955Y438625*
X388727Y438313*
X388727D02*
X388614Y438000D01*
X388500Y437531*
Y436750*
X388614Y436281*
X388727Y435969*
X388955Y435656*
X389182Y435500*
X389636*
X389864Y435656*
X390091Y435969*
X390205Y436281*
X392591Y438313D02*
X392477Y438625D01*
X392136Y438781*
X391909*
X391568Y438625*
X391341Y438156*
X391227Y437375*
Y436594*
X391341Y435969*
X391568Y435656*
X391909Y435500*
X392023*
X392364Y435656*
X392591Y435969*
X392705Y436438*
X392705D02*
Y436594D01*
X392591Y437063*
X392591D02*
X392364Y437375D01*
X392023Y437531*
X391909*
X391568Y437375*
X391341Y437063*
X391341D02*
X391227Y436594D01*
X394409Y438781D02*
X394068Y438625D01*
X393841Y438156*
X393727Y437375*
Y436906*
X393841Y436125*
X394068Y435656*
X394409Y435500*
X394636*
X394977Y435656*
X395205Y436125*
X395318Y436906*
Y437375*
X395205Y438156*
X394977Y438625*
X394636Y438781*
X394409*
X397477D02*
X396341Y436594D01*
X398045*
X397477Y438781D02*
Y435500D01*
X390205Y429500D02*
X390091Y429813D01*
X390091D02*
X389864Y430125D01*
X389636Y430281*
X389182*
X388955Y430125*
X388727Y429813*
X388727D02*
X388614Y429500D01*
X388500Y429031*
Y428250*
X388614Y427781*
X388727Y427469*
X388955Y427156*
X389182Y427000*
X389636*
X389864Y427156*
X390091Y427469*
X390205Y427781*
X392591Y429813D02*
X392477Y430125D01*
X392136Y430281*
X391909*
X391568Y430125*
X391341Y429656*
X391227Y428875*
Y428094*
X391341Y427469*
X391568Y427156*
X391909Y427000*
X392023*
X392364Y427156*
X392591Y427469*
X392705Y427938*
X392705D02*
Y428094D01*
X392591Y428563*
X392591D02*
X392364Y428875D01*
X392023Y429031*
X391909*
X391568Y428875*
X391341Y428563*
X391341D02*
X391227Y428094D01*
X394409Y430281D02*
X394068Y430125D01*
X393841Y429656*
X393727Y428875*
Y428406*
X393841Y427625*
X394068Y427156*
X394409Y427000*
X394636*
X394977Y427156*
X395205Y427625*
X395318Y428406*
Y428875*
X395205Y429656*
X394977Y430125*
X394636Y430281*
X394409*
X397818D02*
X396682D01*
X396568Y428875*
X396682Y429031*
X397023Y429188*
X397023D02*
X397364D01*
X397364D02*
X397705Y429031D01*
X397932Y428719*
X398045Y428250*
X397932Y427938*
X397932D02*
X397818Y427469D01*
X397591Y427156*
X397250Y427000*
X396909*
X396568Y427156*
X396455Y427313*
X396455D02*
X396341Y427625D01*
X390205Y444000D02*
X390091Y444313D01*
X390091D02*
X389864Y444625D01*
X389636Y444781*
X389182*
X388955Y444625*
X388727Y444313*
X388727D02*
X388614Y444000D01*
X388500Y443531*
Y442750*
X388614Y442281*
X388727Y441969*
X388955Y441656*
X389182Y441500*
X389636*
X389864Y441656*
X390091Y441969*
X390205Y442281*
X392591Y444313D02*
X392477Y444625D01*
X392136Y444781*
X391909*
X391568Y444625*
X391341Y444156*
X391227Y443375*
Y442594*
X391341Y441969*
X391568Y441656*
X391909Y441500*
X392023*
X392364Y441656*
X392591Y441969*
X392705Y442438*
X392705D02*
Y442594D01*
X392591Y443063*
X392591D02*
X392364Y443375D01*
X392023Y443531*
X391909*
X391568Y443375*
X391341Y443063*
X391341D02*
X391227Y442594D01*
X394409Y444781D02*
X394068Y444625D01*
X393841Y444156*
X393727Y443375*
Y442906*
X393841Y442125*
X394068Y441656*
X394409Y441500*
X394636*
X394977Y441656*
X395205Y442125*
X395318Y442906*
Y443375*
X395205Y444156*
X394977Y444625*
X394636Y444781*
X394409*
X397705Y444313D02*
X397591Y444625D01*
X397250Y444781*
X397023*
X396682Y444625*
X396455Y444156*
X396341Y443375*
Y442594*
X396455Y441969*
X396682Y441656*
X397023Y441500*
X397136*
X397477Y441656*
X397705Y441969*
X397818Y442438*
X397818D02*
Y442594D01*
X397705Y443063*
X397705D02*
X397477Y443375D01*
X397136Y443531*
X397023*
X396682Y443375*
X396455Y443063*
X396455D02*
X396341Y442594D01*
X390205Y452000D02*
X390091Y452313D01*
X390091D02*
X389864Y452625D01*
X389636Y452781*
X389182*
X388955Y452625*
X388727Y452313*
X388727D02*
X388614Y452000D01*
X388500Y451531*
Y450750*
X388614Y450281*
X388727Y449969*
X388955Y449656*
X389182Y449500*
X389636*
X389864Y449656*
X390091Y449969*
X390205Y450281*
X392591Y452313D02*
X392477Y452625D01*
X392136Y452781*
X391909*
X391568Y452625*
X391341Y452156*
X391227Y451375*
Y450594*
X391341Y449969*
X391568Y449656*
X391909Y449500*
X392023*
X392364Y449656*
X392591Y449969*
X392705Y450438*
X392705D02*
Y450594D01*
X392591Y451063*
X392591D02*
X392364Y451375D01*
X392023Y451531*
X391909*
X391568Y451375*
X391341Y451063*
X391341D02*
X391227Y450594D01*
X394409Y452781D02*
X394068Y452625D01*
X393841Y452156*
X393727Y451375*
Y450906*
X393841Y450125*
X394068Y449656*
X394409Y449500*
X394636*
X394977Y449656*
X395205Y450125*
X395318Y450906*
Y451375*
X395205Y452156*
X394977Y452625*
X394636Y452781*
X394409*
X397932D02*
X396795Y449500D01*
X396341Y452781D02*
X397932D01*
X390205Y458500D02*
X390091Y458813D01*
X390091D02*
X389864Y459125D01*
X389636Y459281*
X389182*
X388955Y459125*
X388727Y458813*
X388727D02*
X388614Y458500D01*
X388500Y458031*
Y457250*
X388614Y456781*
X388727Y456469*
X388955Y456156*
X389182Y456000*
X389636*
X389864Y456156*
X390091Y456469*
X390205Y456781*
X392591Y458813D02*
X392477Y459125D01*
X392136Y459281*
X391909*
X391568Y459125*
X391341Y458656*
X391227Y457875*
Y457094*
X391341Y456469*
X391568Y456156*
X391909Y456000*
X392023*
X392364Y456156*
X392591Y456469*
X392705Y456938*
X392705D02*
Y457094D01*
X392591Y457563*
X392591D02*
X392364Y457875D01*
X392023Y458031*
X391909*
X391568Y457875*
X391341Y457563*
X391341D02*
X391227Y457094D01*
X394409Y459281D02*
X394068Y459125D01*
X393841Y458656*
X393727Y457875*
Y457406*
X393841Y456625*
X394068Y456156*
X394409Y456000*
X394636*
X394977Y456156*
X395205Y456625*
X395318Y457406*
Y457875*
X395205Y458656*
X394977Y459125*
X394636Y459281*
X394409*
X396909D02*
X396568Y459125D01*
X396455Y458813*
X396455D02*
Y458500D01*
X396568Y458188*
X396568D02*
X396795Y458031D01*
X397250Y457875*
X397591Y457719*
X397818Y457406*
X397932Y457094*
Y456625*
X397818Y456313*
X397818D02*
X397705Y456156D01*
X397364Y456000*
X396909*
X396568Y456156*
X396455Y456313*
X396455D02*
X396341Y456625D01*
Y457094*
X396455Y457406*
X396682Y457719*
X397023Y457875*
X397477Y458031*
X397705Y458188*
X397705D02*
X397818Y458500D01*
Y458813*
X397818D02*
X397705Y459125D01*
X397364Y459281*
X396909*
X390205Y424000D02*
X390091Y424313D01*
X390091D02*
X389864Y424625D01*
X389636Y424781*
X389182*
X388955Y424625*
X388727Y424313*
X388727D02*
X388614Y424000D01*
X388500Y423531*
Y422750*
X388614Y422281*
X388727Y421969*
X388955Y421656*
X389182Y421500*
X389636*
X389864Y421656*
X390091Y421969*
X390205Y422281*
X392591Y424313D02*
X392477Y424625D01*
X392136Y424781*
X391909*
X391568Y424625*
X391341Y424156*
X391227Y423375*
Y422594*
X391341Y421969*
X391568Y421656*
X391909Y421500*
X392023*
X392364Y421656*
X392591Y421969*
X392705Y422438*
X392705D02*
Y422594D01*
X392591Y423063*
X392591D02*
X392364Y423375D01*
X392023Y423531*
X391909*
X391568Y423375*
X391341Y423063*
X391341D02*
X391227Y422594D01*
X394409Y424781D02*
X394068Y424625D01*
X393841Y424156*
X393727Y423375*
Y422906*
X393841Y422125*
X394068Y421656*
X394409Y421500*
X394636*
X394977Y421656*
X395205Y422125*
X395318Y422906*
Y423375*
X395205Y424156*
X394977Y424625*
X394636Y424781*
X394409*
X397818Y423688D02*
X397705Y423219D01*
X397477Y422906*
X397136Y422750*
X397023*
X396682Y422906*
X396455Y423219*
X396341Y423688*
X396341D02*
Y423844D01*
X396455Y424313*
X396455D02*
X396682Y424625D01*
X397023Y424781*
X397136*
X397477Y424625*
X397705Y424313*
X397705D02*
X397818Y423688D01*
X397818D02*
Y422906D01*
X397705Y422125*
X397477Y421656*
X397136Y421500*
X396909*
X396568Y421656*
X396455Y421969*
X390205Y415500D02*
X390091Y415813D01*
X390091D02*
X389864Y416125D01*
X389636Y416281*
X389182*
X388955Y416125*
X388727Y415813*
X388727D02*
X388614Y415500D01*
X388500Y415031*
Y414250*
X388614Y413781*
X388727Y413469*
X388955Y413156*
X389182Y413000*
X389636*
X389864Y413156*
X390091Y413469*
X390205Y413781*
X392591Y415813D02*
X392477Y416125D01*
X392136Y416281*
X391909*
X391568Y416125*
X391341Y415656*
X391227Y414875*
Y414094*
X391341Y413469*
X391568Y413156*
X391909Y413000*
X392023*
X392364Y413156*
X392591Y413469*
X392705Y413938*
X392705D02*
Y414094D01*
X392591Y414563*
X392591D02*
X392364Y414875D01*
X392023Y415031*
X391909*
X391568Y414875*
X391341Y414563*
X391341D02*
X391227Y414094D01*
X393727Y415656D02*
X393955Y415813D01*
X393955D02*
X394295Y416281D01*
Y413000*
X396000Y416281D02*
X395659Y416125D01*
X395432Y415656*
X395318Y414875*
Y414406*
X395432Y413625*
X395659Y413156*
X396000Y413000*
X396227*
X396568Y413156*
X396795Y413625*
X396909Y414406*
Y414875*
X396795Y415656*
X396568Y416125*
X396227Y416281*
X396000*
X323500Y482205D02*
X323187Y482091D01*
X322875Y481864*
X322719Y481636*
Y481182*
X322875Y480955*
X323187Y480727*
X323500Y480614*
X323969Y480500*
X324750*
X325219Y480614*
X325531Y480727*
X325844Y480955*
X326000Y481182*
Y481636*
X325844Y481864*
X325531Y482091*
X325219Y482205*
X323187Y484591D02*
X322875Y484477D01*
X322719Y484136*
Y483909*
X322875Y483568*
X323344Y483341*
X324125Y483227*
X324906*
X325531Y483341*
X325844Y483568*
X326000Y483909*
Y484023*
X325844Y484364*
X325531Y484591*
X325062Y484705*
X324906*
X324437Y484591*
X324125Y484364*
X323969Y484023*
Y483909*
X324125Y483568*
X324437Y483341*
X324906Y483227*
X323344Y485727D02*
X323187Y485955D01*
X322719Y486295*
X326000*
X323344Y487318D02*
X323187Y487545D01*
X322719Y487886*
X326000*
X330500Y482205D02*
X330187Y482091D01*
X329875Y481864*
X329719Y481636*
Y481182*
X329875Y480955*
X330187Y480727*
X330500Y480614*
X330969Y480500*
X331750*
X332219Y480614*
X332531Y480727*
X332844Y480955*
X333000Y481182*
Y481636*
X332844Y481864*
X332531Y482091*
X332219Y482205*
X330187Y484591D02*
X329875Y484477D01*
X329719Y484136*
Y483909*
X329875Y483568*
X330344Y483341*
X331125Y483227*
X331906*
X332531Y483341*
X332844Y483568*
X333000Y483909*
Y484023*
X332844Y484364*
X332531Y484591*
X332062Y484705*
X331906*
X331437Y484591*
X331125Y484364*
X330969Y484023*
Y483909*
X331125Y483568*
X331437Y483341*
X331906Y483227*
X330344Y485727D02*
X330187Y485955D01*
X329719Y486295*
X333000*
X330500Y487432D02*
X330344D01*
X330031Y487545*
X329875Y487659*
X329719Y487886*
Y488341*
X329875Y488568*
X330031Y488682*
X330344Y488795*
X330656*
X330969Y488682*
X331437Y488455*
X333000Y487318*
Y488909*
X351000Y379705D02*
X350687Y379591D01*
X350687D02*
X350375Y379364D01*
X350219Y379136*
Y378682*
X350375Y378455*
X350687Y378227*
X350687D02*
X351000Y378114D01*
X351469Y378000*
X352250*
X352719Y378114*
X353031Y378227*
X353344Y378455*
X353500Y378682*
Y379136*
X353344Y379364*
X353031Y379591*
X352719Y379705*
X350219Y382318D02*
X353500Y381182D01*
X350219Y380727D02*
Y382318D01*
Y384023D02*
X350375Y383682D01*
X350844Y383455*
X351625Y383341*
X352094*
X352875Y383455*
X353344Y383682*
X353500Y384023*
Y384250*
X353344Y384591*
X352875Y384818*
X352094Y384932*
X351625*
X350844Y384818*
X350375Y384591*
X350219Y384250*
Y384023*
X350844Y385955D02*
X350687Y386182D01*
X350687D02*
X350219Y386523D01*
X353500*
X351000Y393705D02*
X350687Y393591D01*
X350687D02*
X350375Y393364D01*
X350219Y393136*
Y392682*
X350375Y392455*
X350687Y392227*
X350687D02*
X351000Y392114D01*
X351469Y392000*
X352250*
X352719Y392114*
X353031Y392227*
X353344Y392455*
X353500Y392682*
Y393136*
X353344Y393364*
X353031Y393591*
X352719Y393705*
X350219Y396318D02*
X353500Y395182D01*
X350219Y394727D02*
Y396318D01*
Y398023D02*
X350375Y397682D01*
X350844Y397455*
X351625Y397341*
X352094*
X352875Y397455*
X353344Y397682*
X353500Y398023*
Y398250*
X353344Y398591*
X352875Y398818*
X352094Y398932*
X351625*
X350844Y398818*
X350375Y398591*
X350219Y398250*
Y398023*
X351000Y400068D02*
X350844D01*
X350531Y400182*
X350375Y400295*
X350219Y400523*
Y400977*
X350375Y401205*
X350531Y401318*
X350844Y401432*
X351156*
X351469Y401318*
X351937Y401091*
X351937D02*
X353500Y399955D01*
Y401545*
X350000Y225705D02*
X349687Y225591D01*
X349687D02*
X349375Y225364D01*
X349219Y225136*
Y224682*
X349375Y224455*
X349687Y224227*
X349687D02*
X350000Y224114D01*
X350469Y224000*
X351250*
X351719Y224114*
X352031Y224227*
X352344Y224455*
X352500Y224682*
Y225136*
X352344Y225364*
X352031Y225591*
X351719Y225705*
X349219Y228318D02*
X352500Y227182D01*
X349219Y226727D02*
Y228318D01*
Y230023D02*
X349375Y229682D01*
X349844Y229455*
X350625Y229341*
X351094*
X351875Y229455*
X352344Y229682*
X352500Y230023*
Y230250*
X352344Y230591*
X351875Y230818*
X351094Y230932*
X350625*
X349844Y230818*
X349375Y230591*
X349219Y230250*
Y230023*
Y232182D02*
Y233432D01*
X350469Y232750*
Y233091*
X350625Y233318*
X350781Y233432*
X351250Y233545*
X351562*
X351562D02*
X352031Y233432D01*
X352344Y233205*
X352500Y232864*
Y232523*
X352344Y232182*
X352187Y232068*
X352187D02*
X351875Y231955D01*
X350000Y241205D02*
X349687Y241091D01*
X349687D02*
X349375Y240864D01*
X349219Y240636*
Y240182*
X349375Y239955*
X349687Y239727*
X349687D02*
X350000Y239614D01*
X350469Y239500*
X351250*
X351719Y239614*
X352031Y239727*
X352344Y239955*
X352500Y240182*
Y240636*
X352344Y240864*
X352031Y241091*
X351719Y241205*
X349219Y243818D02*
X352500Y242682D01*
X349219Y242227D02*
Y243818D01*
Y245523D02*
X349375Y245182D01*
X349844Y244955*
X350625Y244841*
X351094*
X351875Y244955*
X352344Y245182*
X352500Y245523*
Y245750*
X352344Y246091*
X351875Y246318*
X351094Y246432*
X350625*
X349844Y246318*
X349375Y246091*
X349219Y245750*
Y245523*
Y248591D02*
X351406Y247455D01*
Y249159*
X349219Y248591D02*
X352500D01*
X207560Y519737D02*
X207247Y519623D01*
X206935Y519396*
X206778Y519169*
Y518714*
X206935Y518487*
X207247Y518260*
X207560Y518146*
X208028Y518032*
X208810*
X209278Y518146*
X209591Y518260*
X209903Y518487*
X210060Y518714*
Y519169*
X209903Y519396*
X209591Y519623*
X209278Y519737*
X207872Y522237D02*
X208341Y522123D01*
X208653Y521896*
X208810Y521555*
Y521442*
X208653Y521101*
X208341Y520873*
X207872Y520760*
X207716*
X207247Y520873*
X206935Y521101*
X206778Y521442*
Y521555*
X206935Y521896*
X207247Y522123*
X207872Y522237*
X208653*
X209435Y522123*
X209903Y521896*
X210060Y521555*
Y521328*
X209903Y520987*
X209591Y520873*
X206778Y523942D02*
X206935Y523601D01*
X207403Y523373*
X208185Y523260*
X208653*
X209435Y523373*
X209903Y523601*
X210060Y523942*
Y524169*
X209903Y524510*
X209435Y524737*
X208653Y524851*
X208185*
X207403Y524737*
X206935Y524510*
X206778Y524169*
Y523942*
X207403Y525873D02*
X207247Y526101D01*
X206778Y526442*
X210060*
X296705Y433500D02*
X296591Y433813D01*
X296591D02*
X296364Y434125D01*
X296136Y434281*
X295682*
X295455Y434125*
X295227Y433813*
X295227D02*
X295114Y433500D01*
X295000Y433031*
Y432250*
X295114Y431781*
X295227Y431469*
X295455Y431156*
X295682Y431000*
X296136*
X296364Y431156*
X296591Y431469*
X296705Y431781*
X299091Y433813D02*
X298977Y434125D01*
X298636Y434281*
X298409*
X298068Y434125*
X297841Y433656*
X297727Y432875*
Y432094*
X297841Y431469*
X298068Y431156*
X298409Y431000*
X298523*
X298864Y431156*
X299091Y431469*
X299205Y431938*
X299205D02*
Y432094D01*
X299091Y432563*
X299091D02*
X298864Y432875D01*
X298523Y433031*
X298409*
X298068Y432875*
X297841Y432563*
X297841D02*
X297727Y432094D01*
X300227Y433656D02*
X300455Y433813D01*
X300455D02*
X300795Y434281D01*
Y431000*
X302045Y434281D02*
X303295D01*
X302614Y433031*
X302955*
X303182Y432875*
X303295Y432719*
X303409Y432250*
Y431938*
X303409D02*
X303295Y431469D01*
X303068Y431156*
X302727Y431000*
X302386*
X302045Y431156*
X301932Y431313*
X301932D02*
X301818Y431625D01*
X296705Y426500D02*
X296591Y426813D01*
X296591D02*
X296364Y427125D01*
X296136Y427281*
X295682*
X295455Y427125*
X295227Y426813*
X295227D02*
X295114Y426500D01*
X295000Y426031*
Y425250*
X295114Y424781*
X295227Y424469*
X295455Y424156*
X295682Y424000*
X296136*
X296364Y424156*
X296591Y424469*
X296705Y424781*
X299091Y426813D02*
X298977Y427125D01*
X298636Y427281*
X298409*
X298068Y427125*
X297841Y426656*
X297727Y425875*
Y425094*
X297841Y424469*
X298068Y424156*
X298409Y424000*
X298523*
X298864Y424156*
X299091Y424469*
X299205Y424938*
X299205D02*
Y425094D01*
X299091Y425563*
X299091D02*
X298864Y425875D01*
X298523Y426031*
X298409*
X298068Y425875*
X297841Y425563*
X297841D02*
X297727Y425094D01*
X300227Y426656D02*
X300455Y426813D01*
X300455D02*
X300795Y427281D01*
Y424000*
X302955Y427281D02*
X301818Y425094D01*
X303523*
X302955Y427281D02*
Y424000D01*
X127500Y452205D02*
X127187Y452091D01*
X127187D02*
X126875Y451864D01*
X126719Y451636*
Y451182*
X126875Y450955*
X127187Y450727*
X127187D02*
X127500Y450614D01*
X127969Y450500*
X128750*
X129219Y450614*
X129531Y450727*
X129844Y450955*
X130000Y451182*
Y451636*
X129844Y451864*
X129531Y452091*
X129219Y452205*
X127344Y453227D02*
X127187Y453455D01*
X127187D02*
X126719Y453795D01*
X130000*
X127344Y454818D02*
X127187Y455045D01*
X127187D02*
X126719Y455386D01*
X130000*
X126719Y457091D02*
X126875Y456750D01*
X127344Y456523*
X128125Y456409*
X128594*
X129375Y456523*
X129844Y456750*
X130000Y457091*
Y457318*
X129844Y457659*
X129375Y457886*
X128594Y458000*
X128125*
X127344Y457886*
X126875Y457659*
X126719Y457318*
Y457091*
X303781Y538500D02*
X301438D01*
X301438D02*
X300969Y538386D01*
X300656Y538159*
X300500Y537818*
Y537591*
X300656Y537250*
X300969Y537023*
X301438Y536909*
X301438D02*
X303781D01*
X302688Y534409D02*
X302219Y534523D01*
X301906Y534750*
X301750Y535091*
Y535205*
X301906Y535545*
X302219Y535773*
X302688Y535886*
X302688D02*
X302844D01*
X303313Y535773*
X303313D02*
X303625Y535545D01*
X303781Y535205*
Y535091*
X303625Y534750*
X303313Y534523*
X303313D02*
X302688Y534409D01*
X302688D02*
X301906D01*
X301125Y534523*
X300656Y534750*
X300500Y535091*
Y535318*
X300656Y535659*
X300969Y535773*
X303781Y532705D02*
X303625Y533045D01*
X303156Y533273*
X302375Y533386*
X301906*
X301125Y533273*
X300656Y533045*
X300500Y532705*
Y532477*
X300656Y532136*
X301125Y531909*
X301906Y531795*
X302375*
X303156Y531909*
X303625Y532136*
X303781Y532477*
Y532705*
X303156Y530773D02*
X303313Y530545D01*
X303313D02*
X303781Y530205D01*
X300500*
X174137Y502900D02*
X174023Y503213D01*
X173796Y503525*
X173569Y503681*
X173114*
X172887Y503525*
X172660Y503213*
X172546Y502900*
X172432Y502431*
Y501650*
X172546Y501181*
X172660Y500869*
X172887Y500556*
X173114Y500400*
X173569*
X173796Y500556*
X174023Y500869*
X174137Y501181*
X175160Y503056D02*
X175387Y503213D01*
X175728Y503681*
Y500400*
X176751Y503056D02*
X176978Y503213D01*
X177319Y503681*
Y500400*
X178342Y503056D02*
X178569Y503213D01*
X178910Y503681*
Y500400*
X149493Y505191D02*
X149805Y505304D01*
X150118Y505532*
X150274Y505759*
Y506213*
X150118Y506441*
X149805Y506668*
X149493Y506782*
X149024Y506895*
X148243*
X147774Y506782*
X147461Y506668*
X147149Y506441*
X146993Y506213*
Y505759*
X147149Y505532*
X147461Y505304*
X147774Y505191*
X149649Y504168D02*
X149805Y503941D01*
X150274Y503600*
X146993*
X149649Y502577D02*
X149805Y502350D01*
X150274Y502009*
X146993*
X149493Y500873D02*
X149649D01*
X149961Y500759*
X150118Y500645*
X150274Y500418*
Y499963*
X150118Y499736*
X149961Y499623*
X149649Y499509*
X149336*
X149024Y499623*
X148555Y499850*
X146993Y500986*
Y499395*
X162000Y525781D02*
Y522500D01*
Y525781D02*
X163023D01*
X163364Y525625*
X163477Y525469*
X163591Y525156*
Y524844*
X163477Y524531*
X163364Y524375*
X163023Y524219*
X162000*
X162795D02*
X163591Y522500D01*
X164614Y525156D02*
X164841Y525313D01*
X164841D02*
X165182Y525781D01*
Y522500*
X166886Y525781D02*
X166545Y525625D01*
X166318Y525156*
X166205Y524375*
Y523906*
X166318Y523125*
X166545Y522656*
X166886Y522500*
X167114*
X167455Y522656*
X167682Y523125*
X167795Y523906*
Y524375*
X167682Y525156*
X167455Y525625*
X167114Y525781*
X166886*
X168818Y525156D02*
X169045Y525313D01*
X169045D02*
X169386Y525781D01*
Y522500*
X116136Y126281D02*
X115000Y124094D01*
X116705*
X116136Y126281D02*
Y123000D01*
X117841Y123313D02*
X117727Y123156D01*
X117841Y123000*
X117955Y123156*
X117841Y123313*
X120568Y126281D02*
X119432Y123000D01*
X118977Y126281D02*
X120568D01*
X121591Y125188D02*
Y123625D01*
X121705Y123156*
X121932Y123000*
X122273*
X122500Y123156*
X122841Y123625*
Y125188D02*
Y123000D01*
X123864Y126281D02*
Y123000D01*
Y126281D02*
X125341D01*
X123864Y124719D02*
X124773D01*
G74*
X0Y0D02*
M02*
