%
T1C.02F197S55
X0304Y0196
X0313Y0185
X03235Y01955
X0325Y0173
X03531Y019304
X03681Y019304
X03831Y019304
X03831Y020804
X03831Y022304
X03831Y023804
X03681Y020804
X03681Y022304
X03681Y023804
X0354Y02365
X0348Y02135
X03435Y022
X0338Y0206
X03345Y02465
X01961Y02336
X01961Y02486
X01211Y02486
X01211Y02336
X01061Y02486
X01061Y02336
X01061Y02636
X01061Y02786
X01061Y02936
X01211Y02786
X01211Y02936
X01361Y02786
X01361Y02936
X01511Y02786
X01511Y02936
X01661Y02786
X01661Y02936
X01811Y02786
X01881Y029804
X01961Y02786
X01961Y02636
X03235Y02915
X0333Y02745
X0338Y0269
X03435Y0253
X03435Y0264
X0348Y02885
X03575Y0269
X03681Y026804
X03681Y025304
X03681Y028304
X03831Y025304
X03831Y026804
X03831Y029804
X03831Y028304
X03831Y031304
X03831Y032804
X03831Y034304
X03681Y031304
X03681Y032804
X03681Y034304
X03381Y032804
X03381Y031304
X03381Y034304
X03235Y03485
X0304Y0348
X01731Y034304
X01511Y03386
X01511Y03236
X01361Y03086
X0136Y03445
X01211Y03386
X01211Y03236
X01211Y03086
X01061Y03086
X01061Y03236
X011374Y035554
X011374Y037054
X0131Y0361
X01605Y03605
X0165Y0351
X01731Y035804
X01881Y035804
X01881Y037304
X03381Y037304
X0344Y0373
X0351Y03665
X03625Y0373
X03681Y035804
X03831Y035804
X03831Y037304
X03831Y038804
X03625Y0388
X0362Y03985
X03345Y03995
X01885Y03905
X0174Y03765
X0173Y03855
X0173Y03905
X0149Y03935
X01485Y0375
X0136Y0375
X01315Y0393
X011374Y038554
X01095Y04245
X011374Y041554
X011374Y040054
X012874Y041554
X014374Y041554
X01731Y041804
X01731Y040304
X01881Y040304
X01881Y041804
X0203Y04245
X0218Y04245
X02335Y04245
X0248Y04245
X02635Y04245
X0278Y04245
X0291Y04245
X0318Y041
X0326Y04155
X0339Y0411
X03495Y0409
X03575Y0404
X03831Y040304
X039Y0419
X039Y0433
X039Y0447
X038Y0433
X03615Y04295
X03615Y04445
X03475Y04295
X03475Y04445
X03335Y04295
X03335Y04445
X0303Y04425
X0293Y04425
X02911Y043304
X02781Y043304
X0264Y0445
X02631Y043154
X02625Y04385
X0262Y04485
X02505Y04415
X02481Y043154
X02331Y043154
X02181Y043154
X02031Y043304
X01975Y04385
X0195Y04415
X0192Y0445
X01895Y04485
X01881Y043304
X01731Y043304
X012874Y044554
X011374Y044554
X010757Y047154
X011357Y047154
X011957Y047154
X012557Y047154
X013157Y047154
X013757Y047154
X014357Y047154
X014957Y047154
X01555Y04715
X0158Y0455
X0167Y0458
X01685Y0462
X01735Y04625
X0178Y04635
X0187Y0474
X01925Y04705
X02075Y04705
X02325Y04725
X02615Y04575
X0266Y04575
X0277Y0462
X028Y0467
X0302Y0458
X0313Y04585
X03161Y04736
X03245Y04625
X03335Y0455
X03485Y0455
X03555Y0467
X03645Y0474
X0376Y0464
X0382Y0473
X039Y0464
X03805Y04825
X0369Y0482
X0358Y04945
X0355Y0482
X034274Y049404
X02675Y0495
X024874Y047554
X0247Y0484
X02455Y04935
X02325Y04995
X0228Y04935
X02235Y0488
X02235Y048
X02135Y04835
X02135Y0497
X02035Y04975
X01785Y04955
X0178Y04895
X0174Y0484
X0167Y04835
X0167Y04775
X015557Y048354
X015557Y047754
X015557Y048954
X015557Y049554
X015557Y050154
X015557Y052054
X016157Y052054
X016257Y050654
X016757Y052054
X016857Y050654
X017357Y052054
X017957Y052054
X01825Y05065
X018557Y052054
X019157Y052054
X0198Y05185
X0204Y05185
X0207Y05065
X0207Y05135
X0215Y052
X0218Y0513
X02205Y0505
X0225Y052
X02265Y05055
X02285Y0512
X02295Y05025
X0288Y05225
X0292Y05225
X0296Y05225
X03Y05225
X0304Y05225
X031Y05225
X0314Y05225
X0318Y05225
X032374Y052054
X0324Y05095
X0336Y0509
X033874Y052054
X03485Y05155
X03805Y05025
X035024Y053554
X03485Y0525
X03415Y0536
X0325Y0536
X03095Y0536
X0285Y05255
X0196Y05295
X01925Y05435
X0164Y05415
X0164Y053
X01555Y05265
X01555Y05325
X01555Y0544
X01555Y05385
T2C.02756F197S55
X014116Y0125
X016084Y0125
X0331Y013116
X0331Y015084
X0369Y015084
X0369Y013116
T3C.035F197S55
X0116Y0164
X0116Y0204
X0186Y0184
X0186Y0164
X0186Y0284
X0116Y0264
X0116Y0284
X01315Y04255
X01315Y04355
X01415Y04355
X01415Y04255
X01515Y04355
X01515Y04255
X03815Y05205
X03815Y05105
X03715Y05105
X03715Y05205
X03715Y05305
X03815Y05305
T4C.03937F197S55
X022Y053054
X022Y054054
X023Y053054
X023Y054054
X024Y053054
X024Y054054
X025Y053054
X025Y054054
X026Y053054
X026Y054054
X027Y053054
X027Y054054
X028Y053054
X028Y054054
X029Y053054
X029Y054054
T5C.06F089S55
X0275Y040152G85X0275Y038248
X0225Y040152G85X0225Y038248
X0275Y024872G85X0275Y022968
X0225Y024872G85X0225Y022968
T6C.11F069S658
X0225Y01544
X025Y01379
X0275Y01544
X0275Y03072
X025Y02907
X0225Y03072
T7C.19F035S1033
X025Y019235
X025Y034515
M30
