*
*
G04 PADS 9.3.1 Build Number: 456998 generated Gerber (RS-274-X) file*
G04 PC Version=2.1*
*
%IN "remoteMonitor.pcb"*%
*
%MOIN*%
*
%FSLAX35Y35*%
*
*
*
*
G04 PC Standard Apertures*
*
*
G04 Thermal Relief Aperture macro.*
%AMTER*
1,1,$1,0,0*
1,0,$1-$2,0,0*
21,0,$3,$4,0,0,45*
21,0,$3,$4,0,0,135*
%
*
*
G04 Annular Aperture macro.*
%AMANN*
1,1,$1,0,0*
1,0,$2,0,0*
%
*
*
G04 Odd Aperture macro.*
%AMODD*
1,1,$1,0,0*
1,0,$1-0.005,0,0*
%
*
*
G04 PC Custom Aperture Macros*
*
*
*
*
*
*
G04 PC Aperture Table*
*
%ADD010C,0.001*%
%ADD011C,0.04*%
%ADD018R,0.038X0.03*%
%ADD019C,0.01*%
%ADD023C,0.015*%
%ADD025C,0.05*%
%ADD037C,0.05118*%
%ADD038R,0.03X0.038*%
%ADD056C,0.06*%
%ADD060R,0.06X0.06*%
%ADD068O,0.1X0.29*%
%ADD069C,0.26*%
%ADD077C,0.18*%
%ADD079C,0.06693*%
%ADD080C,0.03*%
%ADD082C,0.008*%
%ADD087C,0.1*%
*
*
*
*
G04 PC Circuitry*
G04 Layer Name remoteMonitor.pcb - circuitry*
%LPD*%
*
*
G04 PC Custom Flashes*
G04 Layer Name remoteMonitor.pcb - flashes*
%LPD*%
*
*
G04 PC Circuitry*
G04 Layer Name remoteMonitor.pcb - circuitry*
%LPD*%
*
G54D10*
G54D11*
G01X353100Y193037D03*
X368100D03*
X383100D03*
X343500Y220000D03*
X368100Y208037D03*
X383100D03*
X106100Y233600D03*
X121100D03*
X196100D03*
X368100Y238037D03*
Y223037D03*
X383100Y238037D03*
Y223037D03*
X106100Y248600D03*
X121100D03*
X196100D03*
X343500Y253000D03*
X368100Y253037D03*
X383100D03*
X106100Y278600D03*
Y263600D03*
X121100Y278600D03*
X136100D03*
X166100D03*
X151100D03*
X181100D03*
X196100D03*
Y263600D03*
X343500Y264000D03*
X368100Y268037D03*
X383100D03*
X106100Y293600D03*
X121100D03*
X136100D03*
X166100D03*
X151100D03*
X188100Y298037D03*
X368100Y283037D03*
X383100Y298037D03*
Y283037D03*
X106100Y308600D03*
X121100D03*
X136100D03*
X338100Y313037D03*
X368100D03*
X383100D03*
X106100Y323600D03*
X121100Y338600D03*
Y323600D03*
X151100Y338600D03*
Y323600D03*
X338100Y328037D03*
X368100D03*
X383100D03*
X113744Y355543D03*
X131000Y361000D03*
X136000Y344500D03*
X188100Y358037D03*
X173100D03*
Y343037D03*
X338100D03*
X368100Y358037D03*
Y343037D03*
X383100Y358037D03*
Y343037D03*
X113744Y370543D03*
X148500Y375000D03*
X136000D03*
X188100Y373037D03*
X174000Y376500D03*
X344000Y373000D03*
X338100Y373037D03*
X362500Y373000D03*
X383100Y373037D03*
X113744Y400543D03*
Y385543D03*
X149000Y393500D03*
X131500Y393000D03*
X188500Y390500D03*
X173000D03*
X362500Y388000D03*
X362000Y398500D03*
X383100Y388037D03*
X128744Y415543D03*
X113744D03*
X143744D03*
X188100Y418037D03*
Y403037D03*
X173100Y418037D03*
Y403037D03*
X339000Y411000D03*
X390000Y419000D03*
X383100Y403037D03*
X188100Y433037D03*
X173100D03*
X203000Y424500D03*
X203100Y433037D03*
X218000Y424500D03*
X218100Y431537D03*
X233500Y424500D03*
X233100Y431537D03*
X248000Y424500D03*
X248100Y431537D03*
X263500Y424500D03*
X263100Y431537D03*
X278100Y433037D03*
X278000Y424500D03*
X291100Y433037D03*
X291000Y424500D03*
X333500Y429500D03*
X347500D03*
X361500D03*
X390000Y433000D03*
X128744Y445543D03*
X113744D03*
X303000Y442500D03*
X293000D03*
X302000Y458000D03*
X313000Y458500D03*
X333500Y444500D03*
X347500D03*
X348500Y455000D03*
X333500D03*
X361500Y444500D03*
X390000Y447000D03*
X107575Y471539D03*
X119575D03*
X113575D03*
X125575D03*
X149575D03*
X143575D03*
X131575D03*
X137575D03*
X167000Y477500D03*
X155575Y477539D03*
X155500Y471500D03*
X248744Y475543D03*
X316100Y473600D03*
X364500Y474000D03*
X390000Y464000D03*
X376000D03*
X382000Y473000D03*
X167000Y483500D03*
X155575Y483539D03*
Y489539D03*
Y495539D03*
X174000Y484000D03*
X178500Y495500D03*
X203500Y497500D03*
X213500Y483500D03*
Y497000D03*
X267500Y495000D03*
X342744Y494043D03*
X369000Y482000D03*
X355000D03*
X358000Y494500D03*
X155575Y501539D03*
X162575Y506539D03*
X168575D03*
X167575Y520539D03*
X161575D03*
X155575D03*
X179575D03*
X173575D03*
X185575D03*
X182500Y506500D03*
X207000Y513500D03*
X204000Y518500D03*
X207000Y506500D03*
X198000Y518500D03*
X191575Y520539D03*
X220500Y505000D03*
X225000Y520000D03*
X218000Y513000D03*
X228500Y512000D03*
X215000Y520000D03*
X324000Y509500D03*
X323744Y520543D03*
X336000Y509000D03*
X348500Y515500D03*
X338744Y520543D03*
X164000Y530000D03*
X155500Y526500D03*
Y538500D03*
Y532500D03*
X196000Y529500D03*
X309500Y536000D03*
X325000D03*
X348500Y525000D03*
X350244Y535543D03*
X341500Y536000D03*
X164000Y541500D03*
X155500Y544000D03*
X192500Y543500D03*
G54D18*
X233400Y493500D03*
X239600D03*
X207900Y466500D03*
X214100D03*
X187900D03*
X194100D03*
X362600Y510000D03*
X356400D03*
X362600Y520500D03*
X356400D03*
X362600Y530500D03*
X356400D03*
G54D19*
X385800Y510500D02*
G75*
G03X385800I-4300J0D01*
G01Y520500D02*
G03X385800I-4300J0D01*
G01Y530500D02*
G03X385800I-4300J0D01*
G01X224646Y530543D02*
G03X224646I-4646J0D01*
G01X190300Y284000D02*
G03X190300I-4300J0D01*
G01X120300Y264000D02*
G03X120300I-4300J0D01*
G01Y284000D02*
G03X120300I-4300J0D01*
G01X155800Y435500D02*
G03X155800I-4300J0D01*
G01X145800Y425500D02*
G03X145800I-4300J0D01*
G01Y435500D02*
G03X145800I-4300J0D01*
G01X135800Y425500D02*
G03X135800I-4300J0D01*
G01X395500Y470000D02*
Y545000D01*
X291314*
X288686D02*
G03X291314I1314J-4457D01*
G01X288686D02*
X281314D01*
X283107Y537088D02*
G03X281314Y545000I-3107J3455D01*
G01X283702Y536702D02*
G03X283107Y537088I-1202J-1202D01*
G01X283702Y536702D02*
X286202Y534202D01*
X286563Y533670D02*
G03X286202Y534202I-1563J-670D01*
G01X287586Y526573D02*
G03X286563Y533670I2414J3970D01*
G01X287792Y525292D02*
G03X287586Y526573I-2792J208D01*
G01X290000Y524460D02*
G03X287792Y525292I-2000J-1960D01*
G01X294000Y524460D02*
G03X290000I-2000J-1960D01*
G01X298000D02*
G03X294000I-2000J-1960D01*
G01X302000D02*
G03X298000I-2000J-1960D01*
G01X305300Y524980D02*
G03X302000Y524460I-1300J-2480D01*
G01X305300Y524980D02*
Y525500D01*
X305798Y526702D02*
G03X305300Y525500I1202J-1202D01*
G01X305798Y526702D02*
X306798Y527702D01*
X308000Y528200D02*
G03X306798Y527702I0J-1700D01*
G01X308000Y528200D02*
X313000D01*
X314202Y527702D02*
G03X313000Y528200I-1202J-1202D01*
G01X314202Y527702D02*
X315202Y526702D01*
X315700Y525500D02*
G03X315202Y526702I-1700J0D01*
G01X315700Y525500D02*
Y524725D01*
X316000Y524460D02*
G03X315700Y524725I-2000J-1960D01*
G01X317629Y519725D02*
G03X316000Y524460I371J2775D01*
G01X317629Y519725D02*
X305104Y507200D01*
X337796*
X342800Y512204*
Y535500*
X343298Y536702D02*
G03X342800Y535500I1202J-1202D01*
G01X343298Y536702D02*
X347798Y541202D01*
X349000Y541700D02*
G03X347798Y541202I0J-1700D01*
G01X349000Y541700D02*
X359500D01*
X360702Y541202D02*
G03X359500Y541700I-1202J-1202D01*
G01X360702Y541202D02*
X363702Y538202D01*
X364200Y537000D02*
G03X363702Y538202I-1700J0D01*
G01X364200Y537000D02*
Y534974D01*
X364300Y534400D02*
G03X364200Y534974I-1700J0D01*
G01X364300Y534400D02*
Y533300D01*
X364500*
X365785Y532200D02*
G03X364500Y533300I-1285J-200D01*
G01X365785Y532200D02*
X367200D01*
Y533500*
X368500Y534800D02*
G03X367200Y533500I0J-1300D01*
G01X368500Y534800D02*
X374500D01*
X375800Y533500D02*
G03X374500Y534800I-1300J0D01*
G01X375800Y533500D02*
Y527500D01*
X374500Y526200D02*
G03X375800Y527500I0J1300D01*
G01X374500Y526200D02*
X368500D01*
X367200Y527500D02*
G03X368500Y526200I1300J0D01*
G01X367200Y527500D02*
Y528800D01*
X365785*
X364500Y527700D02*
G03X365785Y528800I0J1300D01*
G01X364500Y527700D02*
X360700D01*
X359500Y528500D02*
G03X360700Y527700I1200J500D01*
G01X358300D02*
G03X359500Y528500I0J1300D01*
G01X358300Y527700D02*
X354500D01*
X353200Y529000D02*
G03X354500Y527700I1300J0D01*
G01X353200Y529000D02*
Y532000D01*
X354500Y533300D02*
G03X353200Y532000I0J-1300D01*
G01X354500Y533300D02*
X358300D01*
X359500Y532500D02*
G03X358300Y533300I-1200J-500D01*
G01X360700D02*
G03X359500Y532500I0J-1300D01*
G01X360700Y533300D02*
X360900D01*
Y533926*
X360800Y534500D02*
G03X360900Y533926I1700J0D01*
G01X360800Y534500D02*
Y536296D01*
X358796Y538300*
X349704*
X346200Y534796*
Y511500*
X345702Y510298D02*
G03X346200Y511500I-1202J1202D01*
G01X345702Y510298D02*
X339702Y504298D01*
X339596Y504200D02*
G03X339702Y504298I-1096J1300D01*
G01X339596Y504200D02*
X354796D01*
X357796Y507200*
X354500*
X353200Y508500D02*
G03X354500Y507200I1300J0D01*
G01X353200Y508500D02*
Y511500D01*
X354500Y512800D02*
G03X353200Y511500I0J-1300D01*
G01X354500Y512800D02*
X357800D01*
Y517700*
X354500*
X353200Y519000D02*
G03X354500Y517700I1300J0D01*
G01X353200Y519000D02*
Y522000D01*
X354500Y523300D02*
G03X353200Y522000I0J-1300D01*
G01X354500Y523300D02*
X358300D01*
X359500Y522500D02*
G03X358300Y523300I-1200J-500D01*
G01X360700D02*
G03X359500Y522500I0J-1300D01*
G01X360700Y523300D02*
X364500D01*
X365785Y522200D02*
G03X364500Y523300I-1285J-200D01*
G01X365785Y522200D02*
X367200D01*
Y523500*
X368500Y524800D02*
G03X367200Y523500I0J-1300D01*
G01X368500Y524800D02*
X374500D01*
X375800Y523500D02*
G03X374500Y524800I-1300J0D01*
G01X375800Y523500D02*
Y517500D01*
X374500Y516200D02*
G03X375800Y517500I0J1300D01*
G01X374500Y516200D02*
X368500D01*
X367200Y517500D02*
G03X368500Y516200I1300J0D01*
G01X367200Y517500D02*
Y518800D01*
X365785*
X364500Y517700D02*
G03X365785Y518800I0J1300D01*
G01X364500Y517700D02*
X361604D01*
X361200Y517296*
Y512800*
X364500*
X365746Y511872D02*
G03X364500Y512800I-1246J-372D01*
G01X366750Y512200D02*
G03X365746Y511872I0J-1700D01*
G01X366750Y512200D02*
X367200D01*
Y513500*
X368500Y514800D02*
G03X367200Y513500I0J-1300D01*
G01X368500Y514800D02*
X374500D01*
X375800Y513500D02*
G03X374500Y514800I-1300J0D01*
G01X375800Y513500D02*
Y507500D01*
X374500Y506200D02*
G03X375800Y507500I0J1300D01*
G01X374500Y506200D02*
X373200D01*
Y504000*
X372702Y502798D02*
G03X373200Y504000I-1202J1202D01*
G01X372702Y502798D02*
X368202Y498298D01*
X367000Y497800D02*
G03X368202Y498298I0J1700D01*
G01X367000Y497800D02*
X234725D01*
X229708Y499708D02*
G03X234725Y497800I2792J-208D01*
G01X226708Y502708D02*
G03X229708Y499708I2792J-208D01*
G01X228725Y507200D02*
G03X226708Y502708I-2225J-1700D01*
G01X228725Y507200D02*
X248396D01*
X233798Y521798*
X233300Y523000D02*
G03X233798Y521798I1700J0D01*
G01X233300Y523000D02*
Y527272D01*
Y533814D02*
G03Y527272I-3300J-3271D01*
G01Y533814D02*
Y534839D01*
X231856Y536283*
X228686Y545000D02*
G03X231856Y536283I1314J-4457D01*
G01X228686Y545000D02*
X221314D01*
X218686D02*
G03X221314I1314J-4457D01*
G01X218686D02*
X153000D01*
Y474000*
X104500*
Y232000*
X199000*
Y292000*
X169000*
Y352000*
X167615*
X165000Y348200D02*
G03X167615Y352000I0J2800D01*
G01X165000Y348200D02*
X130500D01*
X128520Y349020D02*
G03X130500Y348200I1980J1980D01*
G01X128520Y349020D02*
X125540Y352000D01*
X125500*
Y352040*
X120520Y357020*
X119700Y359000D02*
G03X120520Y357020I2800J0D01*
G01X119700Y359000D02*
Y396000D01*
X120520Y397980D02*
G03X119700Y396000I1980J-1980D01*
G01X120520Y397980D02*
X122520Y399980D01*
X122800Y400260*
Y408796*
X109871Y421725*
X112275Y424129D02*
G03X109871Y421725I-2775J371D01*
G01X112275Y424129D02*
X125702Y410702D01*
X126200Y409500D02*
G03X125702Y410702I-1700J0D01*
G01X126200Y409500D02*
Y403660D01*
X126520Y403980*
X128500Y404800D02*
G03X126520Y403980I0J-2800D01*
G01X128500Y404800D02*
X157340D01*
X160200Y407660*
Y423800*
X155450*
Y427200D02*
G03Y423800I-3950J-1700D01*
G01Y427200D02*
X160200D01*
Y453268*
X159157Y457550D02*
G03X160200Y453268I-1157J-2550D01*
G01X159157Y457550D02*
X160200D01*
Y462500*
X161020Y464480D02*
G03X160200Y462500I1980J-1980D01*
G01X161020Y464480D02*
X166020Y469480D01*
X168000Y470300D02*
G03X166020Y469480I0J-2800D01*
G01X168000Y470300D02*
X185877D01*
X186326Y471282D02*
G03X185877Y470300I1574J-1314D01*
G01X184775Y472300D02*
G03X186326Y471282I2225J1700D01*
G01X184775Y472300D02*
X164204D01*
X133200Y441296*
Y439450*
X129800D02*
G03X133200I1700J-3950D01*
G01X129800D02*
Y442000D01*
X130298Y443202D02*
G03X129800Y442000I1202J-1202D01*
G01X130298Y443202D02*
X162298Y475202D01*
X163500Y475700D02*
G03X162298Y475202I0J-1700D01*
G01X163500Y475700D02*
X184775D01*
X188000Y476615D02*
G03X184775Y475700I-1000J-2615D01*
G01X188000Y476615D02*
Y482101D01*
X182651Y487450*
X179907*
Y491550D02*
G03Y487450I-1907J-2050D01*
G01Y491550D02*
X183500D01*
X184950Y490950D02*
G03X183500Y491550I-1450J-1450D01*
G01X184950Y490950D02*
X191500Y484400D01*
X192100Y482950D02*
G03X191500Y484400I-2050J0D01*
G01X192100Y482950D02*
Y473271D01*
X194407Y472550D02*
G03X192100Y473271I-1907J-2050D01*
G01X194407Y472550D02*
X205593D01*
X207399Y473298D02*
G03X205593Y472550I101J-2798D01*
G01X207399Y473298D02*
X207465Y473364D01*
Y475009*
X207450Y477488*
X208050Y478950D02*
G03X207450Y477488I1450J-1450D01*
G01X208050Y478950D02*
X210650Y481550D01*
X212100Y482150D02*
G03X210650Y481550I0J-2050D01*
G01X212100Y482150D02*
X215709D01*
X217000Y483300D02*
G03X215709Y482150I0J-1300D01*
G01X217000Y483300D02*
X220000D01*
X221299Y482050D02*
G03X220000Y483300I-1299J-50D01*
G01X221299Y482050D02*
X221593D01*
Y477950D02*
G03Y482050I1907J2050D01*
G01Y477950D02*
X221276D01*
X220500Y477000D02*
G03X221276Y477950I-500J1200D01*
G01X221300Y475800D02*
G03X220500Y477000I-1300J0D01*
G01X221300Y475800D02*
Y472000D01*
X220000Y470700D02*
G03X221300Y472000I0J1300D01*
G01X220000Y470700D02*
X217000D01*
X215700Y472000D02*
G03X217000Y470700I1300J0D01*
G01X215700Y472000D02*
Y475800D01*
X216500Y477000D02*
G03X215700Y475800I500J-1200D01*
G01X215709Y478050D02*
G03X216500Y477000I1291J150D01*
G01X215709Y478050D02*
X212949D01*
X211555Y476656*
X211565Y475028*
Y475015D02*
G03Y475028I-2050J0D01*
G01Y475015D02*
Y472515D01*
X210965Y471066D02*
G03X211565Y472515I-1450J1449D01*
G01X210965Y471066D02*
X210298Y470399D01*
X210021Y469281D02*
G03X210298Y470399I-2521J1219D01*
G01X211000Y468500D02*
G03X210021Y469281I-1200J-500D01*
G01X212200Y469300D02*
G03X211000Y468500I0J-1300D01*
G01X212200Y469300D02*
X216000D01*
X217300Y468000D02*
G03X216000Y469300I-1300J0D01*
G01X217300Y468000D02*
Y465000D01*
X216000Y463700D02*
G03X217300Y465000I0J1300D01*
G01X216000Y463700D02*
X212200D01*
X211000Y464500D02*
G03X212200Y463700I1200J500D01*
G01X209800D02*
G03X211000Y464500I0J1300D01*
G01X209800Y463700D02*
X206000D01*
X204700Y465000D02*
G03X206000Y463700I1300J0D01*
G01X204700Y465000D02*
Y468000D01*
X204780Y468450D02*
G03X204700Y468000I1220J-450D01*
G01X204780Y468450D02*
X197220D01*
X197300Y468000D02*
G03X197220Y468450I-1300J0D01*
G01X197300Y468000D02*
Y465000D01*
X196000Y463700D02*
G03X197300Y465000I0J1300D01*
G01X196000Y463700D02*
X192200D01*
X191000Y464500D02*
G03X192200Y463700I1200J500D01*
G01X189800D02*
G03X191000Y464500I0J1300D01*
G01X189800Y463700D02*
X186000D01*
X184735Y464700D02*
G03X186000Y463700I1265J300D01*
G01X184735Y464700D02*
X180530D01*
X180798Y463600D02*
G03X180530Y464700I-2798J-100D01*
G01X180798Y463600D02*
X245696D01*
X248298Y466202*
X249500Y466700D02*
G03X248298Y466202I0J-1700D01*
G01X249500Y466700D02*
X277216D01*
X280319Y469782D02*
G03X277216Y466700I-319J-2782D01*
G01X280319Y469782D02*
X258651Y491450D01*
X247407*
X242800Y492758D02*
G03X247407Y491450I2700J742D01*
G01X242800Y492758D02*
Y492000D01*
X241500Y490700D02*
G03X242800Y492000I0J1300D01*
G01X241500Y490700D02*
X237700D01*
X236500Y491500D02*
G03X237700Y490700I1200J500D01*
G01X235300D02*
G03X236500Y491500I0J1300D01*
G01X235300Y490700D02*
X231500D01*
X230217Y491790D02*
G03X231500Y490700I1283J210D01*
G01X230217Y495210D02*
G03Y491790I-2217J-1710D01*
G01X231500Y496300D02*
G03X230217Y495210I0J-1300D01*
G01X231500Y496300D02*
X235300D01*
X236500Y495500D02*
G03X235300Y496300I-1200J-500D01*
G01X237700D02*
G03X236500Y495500I0J-1300D01*
G01X237700Y496300D02*
X241500D01*
X242800Y495000D02*
G03X241500Y496300I-1300J0D01*
G01X242800Y495000D02*
Y494242D01*
X247407Y495550D02*
G03X242800Y494242I-1907J-2050D01*
G01X247407Y495550D02*
X259500D01*
X260950Y494950D02*
G03X259500Y495550I-1450J-1450D01*
G01X260950Y494950D02*
X288950Y466950D01*
X289550Y465500D02*
G03X288950Y466950I-2050J0D01*
G01X289550Y465500D02*
Y455800D01*
X313840*
X322520Y464480*
X324399Y465298D02*
G03X322520Y464480I101J-2798D01*
G01X324399Y465298D02*
X327550Y468450D01*
X329000Y469050D02*
G03X327550Y468450I0J-2050D01*
G01X329000Y469050D02*
X353593D01*
X357407D02*
G03X353593I-1907J-2050D01*
G01X357407D02*
X364151D01*
X377702Y482601*
X378450Y484407D02*
G03X377702Y482601I2050J-1907D01*
G01X378450Y484407D02*
Y500593D01*
X382550D02*
G03X378450I-2050J1907D01*
G01X382550D02*
Y484407D01*
X380601Y479702D02*
G03X382550Y484407I-101J2798D01*
G01X380601Y479702D02*
X366450Y465550D01*
X365000Y464950D02*
G03X366450Y465550I0J2050D01*
G01X365000Y464950D02*
X357407D01*
X353593D02*
G03X357407I1907J2050D01*
G01X353593D02*
X329849D01*
X327298Y462399*
X326480Y460520D02*
G03X327298Y462399I-1980J1980D01*
G01X326480Y460520D02*
X316980Y451020D01*
X316261Y450500D02*
G03X316980Y451020I-1261J2500D01*
G01X316261Y450500D02*
X354293D01*
X373793Y470000*
X395500*
X395000Y187500D02*
Y467500D01*
X374707*
X354707Y447500*
X284207*
X273207Y436500*
X264460*
X260540D02*
G03X264460I1960J2000D01*
G01X260540D02*
X199460D01*
X195540D02*
G03X199460I1960J2000D01*
G01X195540D02*
X168000D01*
Y397000*
X128000*
Y357460*
X130960Y354500*
X171500*
Y298000*
X199000*
Y383601*
X194950Y379550*
X193500Y378950D02*
G03X194950Y379550I0J2050D01*
G01X193500Y378950D02*
X165349D01*
X162550Y376151*
Y362407*
X158450D02*
G03X162550I2050J-1907D01*
G01X158450D02*
Y377000D01*
X159050Y378450D02*
G03X158450Y377000I1450J-1450D01*
G01X159050Y378450D02*
X163050Y382450D01*
X164500Y383050D02*
G03X163050Y382450I0J-2050D01*
G01X164500Y383050D02*
X171644D01*
X174907Y387550D02*
G03X171644Y383050I-1907J-2050D01*
G01X174907Y387550D02*
X190151D01*
X194450Y391849*
Y413000*
X195050Y414450D02*
G03X194450Y413000I1450J-1450D01*
G01X195050Y414450D02*
X202550Y421950D01*
X204000Y422550D02*
G03X202550Y421950I0J-2050D01*
G01X204000Y422550D02*
X319500D01*
X366651*
X377202Y433101*
X380101Y430202D02*
G03X377202Y433101I-101J2798D01*
G01X380101Y430202D02*
X368950Y419050D01*
X367500Y418450D02*
G03X368950Y419050I0J2050D01*
G01X367500Y418450D02*
X321550D01*
Y416849*
X322399Y416000*
X323245*
X328798Y415601D02*
G03X323245Y416000I-2798J-101D01*
G01X328798Y415601D02*
X349450Y394950D01*
X350050Y393500D02*
G03X349450Y394950I-2050J0D01*
G01X350050Y393500D02*
Y369134D01*
X352300Y368980D02*
G03X350050Y369134I-1300J-2480D01*
G01X352300Y368980D02*
Y403796D01*
X349871Y406225*
X352275Y408629D02*
G03X349871Y406225I-2775J371D01*
G01X352275Y408629D02*
X355202Y405702D01*
X355244Y405659D02*
G03X355202Y405702I-1244J-1159D01*
G01X359200Y401775D02*
G03X355244Y405659I-1700J2225D01*
G01X359200Y401775D02*
Y271225D01*
X355700Y266855D02*
G03X359200Y271225I1800J2145D01*
G01X355700Y266855D02*
Y238725D01*
X352300D02*
G03X355700I1700J-2225D01*
G01X352300D02*
Y364020D01*
X350050Y363866D02*
G03X352300Y364020I950J2634D01*
G01X350050Y363866D02*
Y290407D01*
Y286593D02*
G03Y290407I-2050J1907D01*
G01Y286593D02*
Y215407D01*
X345950D02*
G03X350050I2050J-1907D01*
G01X345950D02*
Y286593D01*
Y290407D02*
G03Y286593I2050J-1907D01*
G01Y290407D02*
Y366500D01*
Y392651*
X325899Y412702*
X325681Y412718D02*
G03X325899Y412702I319J2782D01*
G01X325681Y412718D02*
X329950Y408450D01*
X330550Y407000D02*
G03X329950Y408450I-2050J0D01*
G01X330550Y407000D02*
Y401550D01*
X332593*
Y397450D02*
G03Y401550I1907J2050D01*
G01Y397450D02*
X330550D01*
Y275856*
X335798Y274601D02*
G03X330550Y275856I-2798J-101D01*
G01X335798Y274601D02*
X338684Y271715D01*
X340050Y267093D02*
G03X338684Y271715I-2050J1907D01*
G01X340050Y267093D02*
Y207907D01*
X335950D02*
G03X340050I2050J-1907D01*
G01X335950D02*
Y244105D01*
X331702Y246399D02*
G03X335950Y244105I2798J101D01*
G01X331702Y246399D02*
X327050Y251050D01*
X326450Y252500D02*
G03X327050Y251050I2050J0D01*
G01X326450Y252500D02*
Y399500D01*
Y406151*
X325500Y407101*
Y404950*
X325550Y404500D02*
G03X325500Y404950I-2050J0D01*
G01X325550Y404500D02*
Y350407D01*
Y346593D02*
G03Y350407I-2050J1907D01*
G01Y346593D02*
Y293407D01*
Y289593D02*
G03Y293407I-2050J1907D01*
G01Y289593D02*
Y197407D01*
X325500Y193540D02*
G03X325550Y197407I-2000J1960D01*
G01X325500Y193540D02*
Y187500D01*
X395000*
X385800Y510500D02*
G03X385800I-4300J0D01*
G01Y520500D02*
G03X385800I-4300J0D01*
G01Y530500D02*
G03X385800I-4300J0D01*
G01X244775Y482300D02*
G03Y485700I2225J1700D01*
G01Y482300D02*
X244300D01*
Y481700*
X243500Y480500D02*
G03X244300Y481700I-500J1200D01*
G01Y479300D02*
G03X243500Y480500I-1300J0D01*
G01X244300Y479300D02*
Y475500D01*
X243000Y474200D02*
G03X244300Y475500I0J1300D01*
G01X243000Y474200D02*
X240000D01*
X238700Y475500D02*
G03X240000Y474200I1300J0D01*
G01X238700Y475500D02*
Y479300D01*
X239500Y480500D02*
G03X238700Y479300I500J-1200D01*
G01Y481700D02*
G03X239500Y480500I1300J0D01*
G01X238700Y481700D02*
Y485500D01*
X240000Y486800D02*
G03X238700Y485500I0J-1300D01*
G01X240000Y486800D02*
X243000D01*
X244285Y485700D02*
G03X243000Y486800I-1285J-200D01*
G01X244285Y485700D02*
X244775D01*
X235300Y485500D02*
Y481700D01*
X234500Y480500D02*
G03X235300Y481700I-500J1200D01*
G01Y479300D02*
G03X234500Y480500I-1300J0D01*
G01X235300Y479300D02*
Y475500D01*
X234603Y474348D02*
G03X235300Y475500I-603J1152D01*
G01X230397Y474348D02*
G03X234603I2103J-1848D01*
G01X229700Y475500D02*
G03X230397Y474348I1300J0D01*
G01X229700Y475500D02*
Y479300D01*
X230500Y480500D02*
G03X229700Y479300I500J-1200D01*
G01Y481700D02*
G03X230500Y480500I1300J0D01*
G01X229700Y481700D02*
Y485500D01*
X231000Y486800D02*
G03X229700Y485500I0J-1300D01*
G01X231000Y486800D02*
X234000D01*
X235300Y485500D02*
G03X234000Y486800I-1300J0D01*
G01X221300Y486268D02*
G03Y489732I2200J1732D01*
G01Y486268D02*
Y486000D01*
X220000Y484700D02*
G03X221300Y486000I0J1300D01*
G01X220000Y484700D02*
X217000D01*
X215700Y486000D02*
G03X217000Y484700I1300J0D01*
G01X215700Y486000D02*
Y489800D01*
X216500Y491000D02*
G03X215700Y489800I500J-1200D01*
G01Y492200D02*
G03X216500Y491000I1300J0D01*
G01X215700Y492200D02*
Y496000D01*
X217000Y497300D02*
G03X215700Y496000I0J-1300D01*
G01X217000Y497300D02*
X220000D01*
X221300Y496000D02*
G03X220000Y497300I-1300J0D01*
G01X221300Y496000D02*
Y492200D01*
X220500Y491000D02*
G03X221300Y492200I-500J1200D01*
G01Y489800D02*
G03X220500Y491000I-1300J0D01*
G01X221300Y489800D02*
Y489732D01*
X224646Y530543D02*
G03X224646I-4646J0D01*
G01X190300Y284000D02*
G03X190300I-4300J0D01*
G01X120300Y264000D02*
G03X120300I-4300J0D01*
G01Y284000D02*
G03X120300I-4300J0D01*
G01X155800Y435500D02*
G03X155800I-4300J0D01*
G01X145800Y425500D02*
G03X145800I-4300J0D01*
G01Y435500D02*
G03X145800I-4300J0D01*
G01X135800Y425500D02*
G03X135800I-4300J0D01*
G01X292736Y544299D02*
X395500D01*
X293666Y543399D02*
X395500D01*
X294215Y542499D02*
X395500D01*
X360078Y541599D02*
X395500D01*
X361206Y540699D02*
X395500D01*
X362106Y539799D02*
X395500D01*
X363006Y538899D02*
X395500D01*
X363876Y537999D02*
X395500D01*
X364197Y537099D02*
X395500D01*
X364200Y536199D02*
X395500D01*
X364200Y535299D02*
X395500D01*
X383314Y534399D02*
X395500D01*
X384582Y533499D02*
X395500D01*
X385253Y532599D02*
X395500D01*
X385630Y531699D02*
X395500D01*
X385790Y530799D02*
X395500D01*
X385758Y529899D02*
X395500D01*
X385529Y528999D02*
X395500D01*
X385067Y528099D02*
X395500D01*
X384255Y527199D02*
X395500D01*
X382416Y526299D02*
X395500D01*
X346200Y525399D02*
X395500D01*
X383081Y524499D02*
X395500D01*
X384481Y523599D02*
X395500D01*
X385195Y522699D02*
X395500D01*
X385599Y521799D02*
X395500D01*
X385781Y520899D02*
X395500D01*
X385771Y519999D02*
X395500D01*
X385565Y519099D02*
X395500D01*
X385132Y518199D02*
X395500D01*
X384371Y517299D02*
X395500D01*
X382792Y516399D02*
X395500D01*
X361200Y515499D02*
X395500D01*
X382800Y514599D02*
X395500D01*
X384374Y513699D02*
X395500D01*
X385134Y512799D02*
X395500D01*
X385566Y511899D02*
X395500D01*
X385771Y510999D02*
X395500D01*
X385781Y510099D02*
X395500D01*
X385598Y509199D02*
X395500D01*
X385194Y508299D02*
X395500D01*
X384479Y507399D02*
X395500D01*
X383075Y506499D02*
X395500D01*
X373200Y505599D02*
X395500D01*
X382234Y504699D02*
X395500D01*
X382981Y503799D02*
X395500D01*
X383271Y502899D02*
X395500D01*
X383255Y501999D02*
X395500D01*
X382924Y501099D02*
X395500D01*
X382550Y500199D02*
X395500D01*
X382550Y499299D02*
X395500D01*
X382550Y498399D02*
X395500D01*
X382550Y497499D02*
X395500D01*
X382550Y496599D02*
X395500D01*
X382550Y495699D02*
X395500D01*
X382550Y494799D02*
X395500D01*
X382550Y493899D02*
X395500D01*
X382550Y492999D02*
X395500D01*
X382550Y492099D02*
X395500D01*
X382550Y491199D02*
X395500D01*
X382550Y490299D02*
X395500D01*
X382550Y489399D02*
X395500D01*
X382550Y488499D02*
X395500D01*
X382550Y487599D02*
X395500D01*
X382550Y486699D02*
X395500D01*
X382550Y485799D02*
X395500D01*
X382550Y484899D02*
X395500D01*
X382865Y483999D02*
X395500D01*
X383235Y483099D02*
X395500D01*
X383284Y482199D02*
X395500D01*
X383029Y481299D02*
X395500D01*
X382351Y480399D02*
X395500D01*
X380398Y479499D02*
X395500D01*
X379498Y478599D02*
X395500D01*
X378598Y477699D02*
X395500D01*
X377698Y476799D02*
X395500D01*
X376798Y475899D02*
X395500D01*
X375898Y474999D02*
X395500D01*
X374998Y474099D02*
X395500D01*
X374098Y473199D02*
X395500D01*
X373198Y472299D02*
X395500D01*
X372298Y471399D02*
X395500D01*
X371398Y470499D02*
X395500D01*
X374997Y526299D02*
X380584D01*
X375191Y516399D02*
X380208D01*
X375195Y514599D02*
X380200D01*
X375329Y506499D02*
X379925D01*
X375332Y524499D02*
X379919D01*
X375439Y534399D02*
X379686D01*
X373200Y504699D02*
X378766D01*
X375765Y527199D02*
X378745D01*
X375784Y517299D02*
X378629D01*
X375785Y513699D02*
X378626D01*
X375796Y507399D02*
X378521D01*
X375796Y523599D02*
X378519D01*
X370103Y500199D02*
X378450D01*
X369203Y499299D02*
X378450D01*
X368303Y498399D02*
X378450D01*
X234458Y497499D02*
X378450D01*
X221154Y496599D02*
X378450D01*
X247234Y495699D02*
X378450D01*
X261100Y494799D02*
X378450D01*
X262000Y493899D02*
X378450D01*
X262900Y492999D02*
X378450D01*
X263800Y492099D02*
X378450D01*
X264700Y491199D02*
X378450D01*
X265600Y490299D02*
X378450D01*
X266500Y489399D02*
X378450D01*
X267400Y488499D02*
X378450D01*
X268300Y487599D02*
X378450D01*
X269200Y486699D02*
X378450D01*
X270100Y485799D02*
X378450D01*
X271000Y484899D02*
X378450D01*
X375800Y533499D02*
X378418D01*
X271900Y483999D02*
X378135D01*
X371003Y501099D02*
X378076D01*
X373188Y503799D02*
X378019D01*
X375800Y528099D02*
X377933D01*
X375800Y518199D02*
X377868D01*
X375800Y512799D02*
X377866D01*
X375800Y508299D02*
X377806D01*
X375800Y522699D02*
X377805D01*
X272800Y483099D02*
X377765D01*
X375800Y532599D02*
X377747D01*
X371903Y501999D02*
X377745D01*
X372795Y502899D02*
X377729D01*
X375800Y528999D02*
X377471D01*
X375800Y519099D02*
X377435D01*
X375800Y511899D02*
X377434D01*
X375800Y509199D02*
X377402D01*
X375800Y521799D02*
X377401D01*
X375800Y531699D02*
X377370D01*
X273700Y482199D02*
X377300D01*
X375800Y529899D02*
X377242D01*
X375800Y519999D02*
X377229D01*
X375800Y510999D02*
X377229D01*
X375800Y510099D02*
X377219D01*
X375800Y520899D02*
X377219D01*
X375800Y530799D02*
X377210D01*
X274600Y481299D02*
X376400D01*
X275500Y480399D02*
X375500D01*
X276400Y479499D02*
X374600D01*
X277300Y478599D02*
X373700D01*
X370498Y469599D02*
X373392D01*
X278200Y477699D02*
X372800D01*
X369598Y468699D02*
X372492D01*
X279100Y476799D02*
X371900D01*
X368698Y467799D02*
X371592D01*
X280000Y475899D02*
X371000D01*
X367798Y466899D02*
X370692D01*
X280900Y474999D02*
X370100D01*
X366898Y465999D02*
X369792D01*
X281800Y474099D02*
X369200D01*
X365767Y465099D02*
X368892D01*
X282700Y473199D02*
X368300D01*
X346200Y526299D02*
X368003D01*
X329098Y464199D02*
X367992D01*
X361200Y516399D02*
X367809D01*
X361200Y514599D02*
X367805D01*
X346200Y524499D02*
X367668D01*
X364300Y534399D02*
X367561D01*
X283600Y472299D02*
X367400D01*
X346200Y527199D02*
X367235D01*
X361203Y517299D02*
X367216D01*
X361200Y513699D02*
X367215D01*
X346200Y523599D02*
X367204D01*
X364300Y533499D02*
X367200D01*
X365654Y532599D02*
X367200D01*
X365437Y528099D02*
X367200D01*
X365596Y522699D02*
X367200D01*
X365524Y518199D02*
X367200D01*
X364559Y512799D02*
X367200D01*
X328198Y463299D02*
X367092D01*
X284500Y471399D02*
X366500D01*
X327298Y462399D02*
X366192D01*
X365737Y511899D02*
X365784D01*
X285400Y470499D02*
X365600D01*
X327115Y461499D02*
X365292D01*
X356543Y469599D02*
X364700D01*
X326556Y460599D02*
X364392D01*
X325659Y459699D02*
X363492D01*
X324759Y458799D02*
X362592D01*
X323859Y457899D02*
X361692D01*
X346200Y533499D02*
X360900D01*
X346200Y534399D02*
X360803D01*
X347603Y536199D02*
X360800D01*
X346703Y535299D02*
X360800D01*
X322959Y456999D02*
X360792D01*
X348503Y537099D02*
X359997D01*
X322059Y456099D02*
X359892D01*
X359237Y528099D02*
X359763D01*
X359396Y522699D02*
X359604D01*
X359454Y532599D02*
X359546D01*
X349403Y537999D02*
X359097D01*
X321159Y455199D02*
X358992D01*
X320259Y454299D02*
X358092D01*
X346200Y517299D02*
X357800D01*
X346200Y516399D02*
X357800D01*
X346200Y515499D02*
X357800D01*
X346200Y514599D02*
X357800D01*
X346200Y513699D02*
X357800D01*
X319359Y453399D02*
X357192D01*
X341903Y506499D02*
X357094D01*
X318459Y452499D02*
X356292D01*
X341003Y505599D02*
X356194D01*
X317559Y451599D02*
X355392D01*
X340103Y504699D02*
X355294D01*
X316595Y450699D02*
X354492D01*
X286300Y469599D02*
X354457D01*
X346200Y512799D02*
X354441D01*
X342803Y507399D02*
X353809D01*
X346200Y528099D02*
X353563D01*
X346200Y518199D02*
X353476D01*
X346200Y522699D02*
X353404D01*
X346200Y532599D02*
X353346D01*
X346200Y511899D02*
X353263D01*
X343703Y508299D02*
X353216D01*
X346200Y531699D02*
X353200D01*
X346200Y530799D02*
X353200D01*
X346200Y529899D02*
X353200D01*
X346200Y528999D02*
X353200D01*
X346200Y521799D02*
X353200D01*
X346200Y520899D02*
X353200D01*
X346200Y519999D02*
X353200D01*
X346200Y519099D02*
X353200D01*
X346124Y510999D02*
X353200D01*
X345503Y510099D02*
X353200D01*
X344603Y509199D02*
X353200D01*
X294525Y541599D02*
X348422D01*
X294644Y540699D02*
X347294D01*
X294586Y539799D02*
X346394D01*
X294346Y538899D02*
X345494D01*
X293888Y537999D02*
X344594D01*
X293118Y537099D02*
X343694D01*
X291647Y536199D02*
X342950D01*
X285106Y535299D02*
X342800D01*
X292593Y534399D02*
X342800D01*
X293585Y533499D02*
X342800D01*
X294167Y532599D02*
X342800D01*
X294501Y531699D02*
X342800D01*
X294639Y530799D02*
X342800D01*
X294602Y529899D02*
X342800D01*
X294382Y528999D02*
X342800D01*
X313578Y528099D02*
X342800D01*
X314706Y527199D02*
X342800D01*
X315501Y526299D02*
X342800D01*
X315700Y525399D02*
X342800D01*
X319961Y524499D02*
X342800D01*
X320575Y523599D02*
X342800D01*
X320793Y522699D02*
X342800D01*
X320711Y521799D02*
X342800D01*
X320297Y520899D02*
X342800D01*
X319258Y519999D02*
X342800D01*
X317003Y519099D02*
X342800D01*
X316103Y518199D02*
X342800D01*
X315203Y517299D02*
X342800D01*
X314303Y516399D02*
X342800D01*
X313403Y515499D02*
X342800D01*
X312503Y514599D02*
X342800D01*
X311603Y513699D02*
X342800D01*
X310703Y512799D02*
X342800D01*
X309803Y511899D02*
X342494D01*
X308903Y510999D02*
X341594D01*
X308003Y510099D02*
X340694D01*
X307103Y509199D02*
X339794D01*
X306203Y508299D02*
X338894D01*
X305303Y507399D02*
X337994D01*
X287200Y468699D02*
X327852D01*
X288100Y467799D02*
X326900D01*
X288999Y466899D02*
X326000D01*
X289488Y465999D02*
X325100D01*
X289550Y465099D02*
X323457D01*
X289550Y464199D02*
X322239D01*
X289550Y463299D02*
X321339D01*
X289550Y462399D02*
X320439D01*
X289550Y461499D02*
X319539D01*
X289550Y460599D02*
X318639D01*
X289550Y459699D02*
X317739D01*
X289550Y458799D02*
X316839D01*
X315961Y524499D02*
X316039D01*
X289550Y457899D02*
X315939D01*
X289550Y456999D02*
X315039D01*
X289550Y456099D02*
X314139D01*
X293951Y528099D02*
X307422D01*
X293225Y527199D02*
X306294D01*
X291890Y526299D02*
X305499D01*
X287798Y525399D02*
X305300D01*
X301961Y524499D02*
X302039D01*
X297961D02*
X298039D01*
X293961D02*
X294039D01*
X289961D02*
X290039D01*
X284206Y536199D02*
X288353D01*
X287684Y526299D02*
X288110D01*
X286006Y534399D02*
X287407D01*
X282736Y544299D02*
X287264D01*
X283118Y537099D02*
X286882D01*
X283666Y543399D02*
X286334D01*
X283888Y537999D02*
X286112D01*
X284215Y542499D02*
X285785D01*
X284346Y538899D02*
X285654D01*
X284525Y541599D02*
X285475D01*
X284586Y539799D02*
X285414D01*
X284644Y540699D02*
X285356D01*
X234458Y470499D02*
X279602D01*
X210151Y469599D02*
X278957D01*
X235074Y471399D02*
X278702D01*
X235293Y472299D02*
X277802D01*
X217096Y468699D02*
X277774D01*
X217300Y467799D02*
X277316D01*
X217300Y466899D02*
X277202D01*
X235211Y473199D02*
X276902D01*
X234799Y474099D02*
X276002D01*
X244199Y474999D02*
X275102D01*
X244300Y475899D02*
X274202D01*
X244300Y476799D02*
X273302D01*
X244300Y477699D02*
X272402D01*
X244300Y478599D02*
X271502D01*
X244285Y479499D02*
X270602D01*
X243695Y480399D02*
X269702D01*
X247737Y481299D02*
X268802D01*
X249144Y482199D02*
X267902D01*
X249651Y483099D02*
X267002D01*
X249800Y483999D02*
X266102D01*
X249652Y484899D02*
X265202D01*
X249146Y485799D02*
X264302D01*
X247746Y486699D02*
X263402D01*
X226271Y487599D02*
X262502D01*
X226255Y488499D02*
X261602D01*
X225926Y489399D02*
X260702D01*
X225099Y490299D02*
X259802D01*
X247095Y491199D02*
X258902D01*
X228558Y507399D02*
X248197D01*
X217300Y465999D02*
X248094D01*
X226586Y508299D02*
X247297D01*
X217300Y465099D02*
X247194D01*
X153000Y509199D02*
X246397D01*
X217024Y464199D02*
X246294D01*
X244237Y481299D02*
X246263D01*
X243503Y486699D02*
X246254D01*
X153000Y510099D02*
X245497D01*
X244300Y482199D02*
X244856D01*
X244265Y485799D02*
X244854D01*
X153000Y510999D02*
X244597D01*
X242524Y491199D02*
X243905D01*
X242596Y495699D02*
X243766D01*
X153000Y511899D02*
X243697D01*
X242800Y492099D02*
X243076D01*
X242800Y494799D02*
X243019D01*
X153000Y512799D02*
X242797D01*
X153000Y513699D02*
X241897D01*
X153000Y514599D02*
X240997D01*
X153000Y515499D02*
X240097D01*
X234503Y486699D02*
X239497D01*
X234695Y480399D02*
X239305D01*
X153000Y516399D02*
X239197D01*
X235199Y474999D02*
X238801D01*
X235237Y481299D02*
X238763D01*
X235265Y485799D02*
X238735D01*
X235285Y479499D02*
X238715D01*
X235300Y484899D02*
X238700D01*
X235300Y483999D02*
X238700D01*
X235300Y483099D02*
X238700D01*
X235300Y482199D02*
X238700D01*
X235300Y478599D02*
X238700D01*
X235300Y477699D02*
X238700D01*
X235300Y476799D02*
X238700D01*
X235300Y475899D02*
X238700D01*
X153000Y517299D02*
X238297D01*
X153000Y518199D02*
X237397D01*
X236324Y491199D02*
X236676D01*
X236396Y495699D02*
X236604D01*
X153000Y519099D02*
X236497D01*
X153000Y519999D02*
X235597D01*
X153000Y520899D02*
X234697D01*
X153000Y521799D02*
X233797D01*
X153000Y522699D02*
X233327D01*
X232593Y534399D02*
X233300D01*
X233225Y527199D02*
X233300D01*
X231890Y526299D02*
X233300D01*
X153000Y525399D02*
X233300D01*
X153000Y524499D02*
X233300D01*
X153000Y523599D02*
X233300D01*
X153000Y535299D02*
X232840D01*
X231647Y536199D02*
X231940D01*
X153000Y497499D02*
X230542D01*
X210398Y470499D02*
X230542D01*
X225979Y486699D02*
X230497D01*
X229595Y491199D02*
X230476D01*
X229734Y495699D02*
X230404D01*
X226271Y480399D02*
X230305D01*
X221300Y474099D02*
X230201D01*
X153000Y498399D02*
X229926D01*
X221153Y471399D02*
X229926D01*
X221300Y474999D02*
X229801D01*
X221300Y473199D02*
X229789D01*
X225981Y481299D02*
X229763D01*
X225230Y485799D02*
X229735D01*
X226255Y479499D02*
X229715D01*
X153000Y499299D02*
X229707D01*
X221300Y472299D02*
X229707D01*
X220691Y484899D02*
X229700D01*
X191811Y483999D02*
X229700D01*
X220695Y483099D02*
X229700D01*
X225234Y482199D02*
X229700D01*
X225924Y478599D02*
X229700D01*
X225095Y477699D02*
X229700D01*
X220832Y476799D02*
X229700D01*
X221296Y475899D02*
X229700D01*
X221647Y536199D02*
X228353D01*
X221890Y526299D02*
X228110D01*
X153000Y500199D02*
X227905D01*
X222593Y534399D02*
X227407D01*
X222736Y544299D02*
X227264D01*
X153000Y501099D02*
X227076D01*
X223118Y537099D02*
X226882D01*
X223225Y527199D02*
X226775D01*
X153000Y501999D02*
X226745D01*
X223585Y533499D02*
X226415D01*
X153000Y508299D02*
X226414D01*
X220829Y491199D02*
X226405D01*
X223666Y543399D02*
X226334D01*
X221300Y495699D02*
X226266D01*
X223888Y537999D02*
X226112D01*
X223951Y528099D02*
X226049D01*
X224167Y532599D02*
X225833D01*
X224215Y542499D02*
X225785D01*
X224346Y538899D02*
X225654D01*
X224382Y528999D02*
X225618D01*
X221296Y492099D02*
X225576D01*
X221300Y494799D02*
X225519D01*
X224501Y531699D02*
X225499D01*
X224525Y541599D02*
X225475D01*
X153000Y502899D02*
X225464D01*
X224586Y539799D02*
X225414D01*
X224602Y529899D02*
X225398D01*
X224639Y530799D02*
X225361D01*
X224644Y540699D02*
X225356D01*
X221300Y492999D02*
X225245D01*
X221300Y493899D02*
X225229D01*
X153000Y507399D02*
X224442D01*
X153000Y503799D02*
X224276D01*
X153000Y506499D02*
X223884D01*
X153000Y504699D02*
X223817D01*
X153000Y505599D02*
X223702D01*
X221199Y477699D02*
X221905D01*
X221201Y490299D02*
X221901D01*
X221284Y485799D02*
X221770D01*
X221285Y482199D02*
X221766D01*
X153000Y536199D02*
X218353D01*
X153000Y526299D02*
X218110D01*
X153000Y534399D02*
X217407D01*
X153000Y544299D02*
X217264D01*
X153000Y537099D02*
X216882D01*
X153000Y527199D02*
X216775D01*
X153000Y533499D02*
X216415D01*
X153000Y543399D02*
X216334D01*
X191000Y484899D02*
X216309D01*
X192095Y483099D02*
X216305D01*
X184648Y491199D02*
X216171D01*
X211698Y476799D02*
X216168D01*
X153000Y537999D02*
X216112D01*
X153000Y528099D02*
X216049D01*
X211234Y471399D02*
X215847D01*
X153000Y496599D02*
X215846D01*
X153000Y532599D02*
X215833D01*
X212598Y477699D02*
X215801D01*
X185600Y490299D02*
X215799D01*
X153000Y542499D02*
X215785D01*
X190100Y485799D02*
X215716D01*
X192100Y482199D02*
X215715D01*
X179043Y492099D02*
X215704D01*
X211560Y475899D02*
X215704D01*
X153000Y495699D02*
X215700D01*
X153000Y494799D02*
X215700D01*
X153000Y493899D02*
X215700D01*
X153000Y492999D02*
X215700D01*
X186500Y489399D02*
X215700D01*
X187400Y488499D02*
X215700D01*
X188300Y487599D02*
X215700D01*
X189200Y486699D02*
X215700D01*
X211565Y474999D02*
X215700D01*
X211565Y474099D02*
X215700D01*
X211565Y473199D02*
X215700D01*
X211554Y472299D02*
X215700D01*
X153000Y538899D02*
X215654D01*
X153000Y528999D02*
X215618D01*
X153000Y531699D02*
X215499D01*
X153000Y541599D02*
X215475D01*
X153000Y539799D02*
X215414D01*
X153000Y529899D02*
X215398D01*
X153000Y530799D02*
X215361D01*
X153000Y540699D02*
X215356D01*
X210824Y464199D02*
X211176D01*
X210896Y468699D02*
X211104D01*
X192100Y481299D02*
X210400D01*
X192100Y480399D02*
X209500D01*
X192100Y479499D02*
X208600D01*
X192100Y478599D02*
X207769D01*
X192100Y474999D02*
X207465D01*
X192100Y474099D02*
X207465D01*
X192100Y475899D02*
X207460D01*
X192100Y477699D02*
X207460D01*
X192100Y476799D02*
X207454D01*
X193246Y473199D02*
X206754D01*
X197024Y464199D02*
X204976D01*
X197300Y467799D02*
X204700D01*
X197300Y466899D02*
X204700D01*
X197300Y465999D02*
X204700D01*
X197300Y465099D02*
X204700D01*
X104500Y291399D02*
X199000D01*
X104500Y290499D02*
X199000D01*
X104500Y289599D02*
X199000D01*
X104500Y288699D02*
X199000D01*
X188015Y287799D02*
X199000D01*
X189176Y286899D02*
X199000D01*
X189807Y285999D02*
X199000D01*
X190157Y285099D02*
X199000D01*
X190295Y284199D02*
X199000D01*
X190242Y283299D02*
X199000D01*
X189991Y282399D02*
X199000D01*
X189498Y281499D02*
X199000D01*
X188631Y280599D02*
X199000D01*
X104500Y279699D02*
X199000D01*
X104500Y278799D02*
X199000D01*
X104500Y277899D02*
X199000D01*
X104500Y276999D02*
X199000D01*
X104500Y276099D02*
X199000D01*
X104500Y275199D02*
X199000D01*
X104500Y274299D02*
X199000D01*
X104500Y273399D02*
X199000D01*
X104500Y272499D02*
X199000D01*
X104500Y271599D02*
X199000D01*
X104500Y270699D02*
X199000D01*
X104500Y269799D02*
X199000D01*
X104500Y268899D02*
X199000D01*
X117581Y267999D02*
X199000D01*
X118981Y267099D02*
X199000D01*
X119695Y266199D02*
X199000D01*
X120099Y265299D02*
X199000D01*
X120281Y264399D02*
X199000D01*
X120271Y263499D02*
X199000D01*
X120065Y262599D02*
X199000D01*
X119632Y261699D02*
X199000D01*
X118871Y260799D02*
X199000D01*
X117292Y259899D02*
X199000D01*
X104500Y258999D02*
X199000D01*
X104500Y258099D02*
X199000D01*
X104500Y257199D02*
X199000D01*
X104500Y256299D02*
X199000D01*
X104500Y255399D02*
X199000D01*
X104500Y254499D02*
X199000D01*
X104500Y253599D02*
X199000D01*
X104500Y252699D02*
X199000D01*
X104500Y251799D02*
X199000D01*
X104500Y250899D02*
X199000D01*
X104500Y249999D02*
X199000D01*
X104500Y249099D02*
X199000D01*
X104500Y248199D02*
X199000D01*
X104500Y247299D02*
X199000D01*
X104500Y246399D02*
X199000D01*
X104500Y245499D02*
X199000D01*
X104500Y244599D02*
X199000D01*
X104500Y243699D02*
X199000D01*
X104500Y242799D02*
X199000D01*
X104500Y241899D02*
X199000D01*
X104500Y240999D02*
X199000D01*
X104500Y240099D02*
X199000D01*
X104500Y239199D02*
X199000D01*
X104500Y238299D02*
X199000D01*
X104500Y237399D02*
X199000D01*
X104500Y236499D02*
X199000D01*
X104500Y235599D02*
X199000D01*
X104500Y234699D02*
X199000D01*
X104500Y233799D02*
X199000D01*
X104500Y232899D02*
X199000D01*
X190824Y464199D02*
X191176D01*
X153000Y481299D02*
X188000D01*
X153000Y480399D02*
X188000D01*
X153000Y479499D02*
X188000D01*
X153000Y478599D02*
X188000D01*
X153000Y477699D02*
X188000D01*
X187086Y476799D02*
X188000D01*
X153000Y482199D02*
X187902D01*
X153000Y483099D02*
X187002D01*
X153000Y476799D02*
X186914D01*
X153000Y483999D02*
X186102D01*
X163303Y471399D02*
X185964D01*
X162403Y470499D02*
X185920D01*
X153000Y484899D02*
X185202D01*
X180711Y464199D02*
X184976D01*
X153000Y475899D02*
X184942D01*
X164203Y472299D02*
X184776D01*
X153000Y485799D02*
X184302D01*
X118015Y287799D02*
X183985D01*
X153000Y486699D02*
X183402D01*
X118631Y280599D02*
X183369D01*
X119176Y286899D02*
X182824D01*
X119498Y281499D02*
X182502D01*
X119807Y285999D02*
X182193D01*
X119991Y282399D02*
X182009D01*
X120157Y285099D02*
X181843D01*
X120242Y283299D02*
X181758D01*
X120295Y284199D02*
X181705D01*
X153000Y492099D02*
X176957D01*
X153000Y487599D02*
X175944D01*
X153000Y491199D02*
X175774D01*
X153000Y488499D02*
X175385D01*
X153000Y490299D02*
X175316D01*
X153000Y489399D02*
X175202D01*
X167711Y351699D02*
X169000D01*
X167793Y350799D02*
X169000D01*
X167574Y349899D02*
X169000D01*
X166958Y348999D02*
X169000D01*
X104500Y348099D02*
X169000D01*
X104500Y347199D02*
X169000D01*
X104500Y346299D02*
X169000D01*
X104500Y345399D02*
X169000D01*
X104500Y344499D02*
X169000D01*
X104500Y343599D02*
X169000D01*
X104500Y342699D02*
X169000D01*
X104500Y341799D02*
X169000D01*
X104500Y340899D02*
X169000D01*
X104500Y339999D02*
X169000D01*
X104500Y339099D02*
X169000D01*
X104500Y338199D02*
X169000D01*
X104500Y337299D02*
X169000D01*
X104500Y336399D02*
X169000D01*
X104500Y335499D02*
X169000D01*
X104500Y334599D02*
X169000D01*
X104500Y333699D02*
X169000D01*
X104500Y332799D02*
X169000D01*
X104500Y331899D02*
X169000D01*
X104500Y330999D02*
X169000D01*
X104500Y330099D02*
X169000D01*
X104500Y329199D02*
X169000D01*
X104500Y328299D02*
X169000D01*
X104500Y327399D02*
X169000D01*
X104500Y326499D02*
X169000D01*
X104500Y325599D02*
X169000D01*
X104500Y324699D02*
X169000D01*
X104500Y323799D02*
X169000D01*
X104500Y322899D02*
X169000D01*
X104500Y321999D02*
X169000D01*
X104500Y321099D02*
X169000D01*
X104500Y320199D02*
X169000D01*
X104500Y319299D02*
X169000D01*
X104500Y318399D02*
X169000D01*
X104500Y317499D02*
X169000D01*
X104500Y316599D02*
X169000D01*
X104500Y315699D02*
X169000D01*
X104500Y314799D02*
X169000D01*
X104500Y313899D02*
X169000D01*
X104500Y312999D02*
X169000D01*
X104500Y312099D02*
X169000D01*
X104500Y311199D02*
X169000D01*
X104500Y310299D02*
X169000D01*
X104500Y309399D02*
X169000D01*
X104500Y308499D02*
X169000D01*
X104500Y307599D02*
X169000D01*
X104500Y306699D02*
X169000D01*
X104500Y305799D02*
X169000D01*
X104500Y304899D02*
X169000D01*
X104500Y303999D02*
X169000D01*
X104500Y303099D02*
X169000D01*
X104500Y302199D02*
X169000D01*
X104500Y301299D02*
X169000D01*
X104500Y300399D02*
X169000D01*
X104500Y299499D02*
X169000D01*
X104500Y298599D02*
X169000D01*
X104500Y297699D02*
X169000D01*
X104500Y296799D02*
X169000D01*
X104500Y295899D02*
X169000D01*
X104500Y294999D02*
X169000D01*
X104500Y294099D02*
X169000D01*
X104500Y293199D02*
X169000D01*
X104500Y292299D02*
X169000D01*
X161503Y469599D02*
X166146D01*
X160603Y468699D02*
X165239D01*
X159703Y467799D02*
X164339D01*
X158803Y466899D02*
X163439D01*
X157903Y465999D02*
X162539D01*
X153000Y474999D02*
X162094D01*
X157003Y465099D02*
X161639D01*
X153000Y474099D02*
X161194D01*
X156103Y464199D02*
X160774D01*
X155203Y463299D02*
X160316D01*
X104500Y473199D02*
X160294D01*
X154303Y462399D02*
X160200D01*
X153403Y461499D02*
X160200D01*
X152503Y460599D02*
X160200D01*
X151603Y459699D02*
X160200D01*
X150703Y458799D02*
X160200D01*
X149803Y457899D02*
X160200D01*
X159258Y452499D02*
X160200D01*
X143503Y451599D02*
X160200D01*
X142603Y450699D02*
X160200D01*
X141703Y449799D02*
X160200D01*
X140803Y448899D02*
X160200D01*
X139903Y447999D02*
X160200D01*
X139003Y447099D02*
X160200D01*
X138103Y446199D02*
X160200D01*
X137203Y445299D02*
X160200D01*
X136303Y444399D02*
X160200D01*
X135403Y443499D02*
X160200D01*
X134503Y442599D02*
X160200D01*
X133603Y441699D02*
X160200D01*
X133200Y440799D02*
X160200D01*
X133200Y439899D02*
X160200D01*
X154000Y438999D02*
X160200D01*
X154926Y438099D02*
X160200D01*
X155450Y437199D02*
X160200D01*
X155725Y436299D02*
X160200D01*
X155799Y435399D02*
X160200D01*
X155682Y434499D02*
X160200D01*
X155357Y433599D02*
X160200D01*
X154762Y432699D02*
X160200D01*
X153689Y431799D02*
X160200D01*
X104500Y430899D02*
X160200D01*
X104500Y429999D02*
X160200D01*
X153854Y429099D02*
X160200D01*
X154848Y428199D02*
X160200D01*
X155406Y427299D02*
X160200D01*
X155405Y423699D02*
X160200D01*
X154846Y422799D02*
X160200D01*
X153850Y421899D02*
X160200D01*
X115406Y420999D02*
X160200D01*
X116306Y420099D02*
X160200D01*
X117206Y419199D02*
X160200D01*
X118106Y418299D02*
X160200D01*
X119006Y417399D02*
X160200D01*
X119906Y416499D02*
X160200D01*
X120806Y415599D02*
X160200D01*
X121706Y414699D02*
X160200D01*
X122606Y413799D02*
X160200D01*
X123506Y412899D02*
X160200D01*
X124406Y411999D02*
X160200D01*
X125306Y411099D02*
X160200D01*
X126050Y410199D02*
X160200D01*
X126200Y409299D02*
X160200D01*
X126200Y408399D02*
X160200D01*
X126200Y407499D02*
X160039D01*
X104500Y472299D02*
X159394D01*
X126200Y406599D02*
X159139D01*
X104500Y471399D02*
X158494D01*
X126200Y405699D02*
X158239D01*
X104500Y470499D02*
X157594D01*
X144403Y452499D02*
X156742D01*
X104500Y469599D02*
X156694D01*
X148903Y456999D02*
X156039D01*
X104500Y468699D02*
X155794D01*
X145303Y453399D02*
X155703D01*
X148003Y456099D02*
X155425D01*
X146203Y454299D02*
X155289D01*
X147103Y455199D02*
X155207D01*
X104500Y467799D02*
X154894D01*
X104500Y466899D02*
X153994D01*
X104500Y465999D02*
X153094D01*
X104500Y465099D02*
X152194D01*
X104500Y464199D02*
X151294D01*
X104500Y463299D02*
X150394D01*
X104500Y462399D02*
X149494D01*
X143689Y431799D02*
X149311D01*
X143850Y421899D02*
X149150D01*
X143854Y429099D02*
X149146D01*
X144000Y438999D02*
X149000D01*
X104500Y461499D02*
X148594D01*
X144762Y432699D02*
X148238D01*
X144846Y422799D02*
X148154D01*
X144848Y428199D02*
X148152D01*
X144926Y438099D02*
X148074D01*
X104500Y460599D02*
X147694D01*
X145357Y433599D02*
X147643D01*
X145405Y423699D02*
X147595D01*
X145406Y427299D02*
X147594D01*
X145450Y437199D02*
X147550D01*
X145682Y434499D02*
X147318D01*
X145704Y424599D02*
X147296D01*
X145705Y426399D02*
X147295D01*
X145725Y436299D02*
X147275D01*
X145799Y435399D02*
X147201D01*
X145800Y425499D02*
X147200D01*
X104500Y459699D02*
X146794D01*
X104500Y458799D02*
X145894D01*
X104500Y457899D02*
X144994D01*
X104500Y456999D02*
X144094D01*
X104500Y456099D02*
X143194D01*
X104500Y455199D02*
X142294D01*
X104500Y454299D02*
X141394D01*
X104500Y453399D02*
X140494D01*
X104500Y452499D02*
X139594D01*
X133689Y431799D02*
X139311D01*
X133850Y421899D02*
X139150D01*
X133854Y429099D02*
X139146D01*
X134000Y438999D02*
X139000D01*
X104500Y451599D02*
X138694D01*
X134762Y432699D02*
X138238D01*
X134846Y422799D02*
X138154D01*
X134848Y428199D02*
X138152D01*
X134926Y438099D02*
X138074D01*
X104500Y450699D02*
X137794D01*
X135357Y433599D02*
X137643D01*
X135405Y423699D02*
X137595D01*
X135406Y427299D02*
X137594D01*
X135450Y437199D02*
X137550D01*
X135682Y434499D02*
X137318D01*
X135704Y424599D02*
X137296D01*
X135705Y426399D02*
X137295D01*
X135725Y436299D02*
X137275D01*
X135799Y435399D02*
X137201D01*
X135800Y425499D02*
X137200D01*
X104500Y449799D02*
X136894D01*
X104500Y448899D02*
X135994D01*
X104500Y447999D02*
X135094D01*
X104500Y447099D02*
X134194D01*
X104500Y446199D02*
X133294D01*
X104500Y445299D02*
X132394D01*
X104500Y444399D02*
X131494D01*
X104500Y443499D02*
X130594D01*
X104500Y442599D02*
X129909D01*
X104500Y441699D02*
X129800D01*
X104500Y440799D02*
X129800D01*
X104500Y439899D02*
X129800D01*
X104500Y431799D02*
X129311D01*
X114506Y421899D02*
X129150D01*
X104500Y429099D02*
X129146D01*
X104500Y438999D02*
X129000D01*
X104500Y348999D02*
X128542D01*
X126200Y404799D02*
X128414D01*
X104500Y432699D02*
X128238D01*
X113606Y422799D02*
X128154D01*
X104500Y428199D02*
X128152D01*
X104500Y438099D02*
X128074D01*
X104500Y433599D02*
X127643D01*
X104500Y349899D02*
X127641D01*
X112706Y423699D02*
X127595D01*
X109586Y427299D02*
X127594D01*
X104500Y437199D02*
X127550D01*
X104500Y434499D02*
X127318D01*
X112298Y424599D02*
X127296D01*
X111558Y426399D02*
X127295D01*
X104500Y436299D02*
X127275D01*
X104500Y435399D02*
X127201D01*
X112116Y425499D02*
X127200D01*
X104500Y350799D02*
X126741D01*
X126200Y403899D02*
X126439D01*
X104500Y351699D02*
X125841D01*
X104500Y352599D02*
X124941D01*
X104500Y353499D02*
X124041D01*
X104500Y354399D02*
X123141D01*
X104500Y408399D02*
X122800D01*
X104500Y407499D02*
X122800D01*
X104500Y406599D02*
X122800D01*
X104500Y405699D02*
X122800D01*
X104500Y404799D02*
X122800D01*
X104500Y403899D02*
X122800D01*
X104500Y402999D02*
X122800D01*
X104500Y402099D02*
X122800D01*
X104500Y401199D02*
X122800D01*
X104500Y400299D02*
X122800D01*
X104500Y409299D02*
X122297D01*
X104500Y355299D02*
X122241D01*
X104500Y399399D02*
X121939D01*
X104500Y410199D02*
X121397D01*
X104500Y356199D02*
X121341D01*
X104500Y398499D02*
X121039D01*
X104500Y411099D02*
X120497D01*
X104500Y357099D02*
X120444D01*
X104500Y397599D02*
X120201D01*
X104500Y357999D02*
X119885D01*
X104500Y396699D02*
X119789D01*
X104500Y358899D02*
X119702D01*
X104500Y395799D02*
X119700D01*
X104500Y394899D02*
X119700D01*
X104500Y393999D02*
X119700D01*
X104500Y393099D02*
X119700D01*
X104500Y392199D02*
X119700D01*
X104500Y391299D02*
X119700D01*
X104500Y390399D02*
X119700D01*
X104500Y389499D02*
X119700D01*
X104500Y388599D02*
X119700D01*
X104500Y387699D02*
X119700D01*
X104500Y386799D02*
X119700D01*
X104500Y385899D02*
X119700D01*
X104500Y384999D02*
X119700D01*
X104500Y384099D02*
X119700D01*
X104500Y383199D02*
X119700D01*
X104500Y382299D02*
X119700D01*
X104500Y381399D02*
X119700D01*
X104500Y380499D02*
X119700D01*
X104500Y379599D02*
X119700D01*
X104500Y378699D02*
X119700D01*
X104500Y377799D02*
X119700D01*
X104500Y376899D02*
X119700D01*
X104500Y375999D02*
X119700D01*
X104500Y375099D02*
X119700D01*
X104500Y374199D02*
X119700D01*
X104500Y373299D02*
X119700D01*
X104500Y372399D02*
X119700D01*
X104500Y371499D02*
X119700D01*
X104500Y370599D02*
X119700D01*
X104500Y369699D02*
X119700D01*
X104500Y368799D02*
X119700D01*
X104500Y367899D02*
X119700D01*
X104500Y366999D02*
X119700D01*
X104500Y366099D02*
X119700D01*
X104500Y365199D02*
X119700D01*
X104500Y364299D02*
X119700D01*
X104500Y363399D02*
X119700D01*
X104500Y362499D02*
X119700D01*
X104500Y361599D02*
X119700D01*
X104500Y360699D02*
X119700D01*
X104500Y359799D02*
X119700D01*
X104500Y411999D02*
X119597D01*
X104500Y412899D02*
X118697D01*
X104500Y413799D02*
X117797D01*
X104500Y414699D02*
X116897D01*
X104500Y415599D02*
X115997D01*
X104500Y416499D02*
X115097D01*
X104500Y259899D02*
X114708D01*
X104500Y267999D02*
X114419D01*
X104500Y417399D02*
X114197D01*
X104500Y287799D02*
X113985D01*
X104500Y280599D02*
X113369D01*
X104500Y418299D02*
X113297D01*
X104500Y260799D02*
X113129D01*
X104500Y267099D02*
X113019D01*
X104500Y286899D02*
X112824D01*
X104500Y281499D02*
X112502D01*
X104500Y419199D02*
X112397D01*
X104500Y261699D02*
X112368D01*
X104500Y266199D02*
X112305D01*
X104500Y285999D02*
X112193D01*
X104500Y282399D02*
X112009D01*
X104500Y262599D02*
X111935D01*
X104500Y265299D02*
X111901D01*
X104500Y285099D02*
X111843D01*
X104500Y283299D02*
X111758D01*
X104500Y263499D02*
X111729D01*
X104500Y264399D02*
X111719D01*
X104500Y284199D02*
X111705D01*
X104500Y420099D02*
X111497D01*
X104500Y420999D02*
X110597D01*
X104500Y427299D02*
X109414D01*
X104500Y421899D02*
X108464D01*
X104500Y426399D02*
X107442D01*
X104500Y422799D02*
X107276D01*
X104500Y425499D02*
X106884D01*
X104500Y423699D02*
X106817D01*
X104500Y424599D02*
X106702D01*
X374606Y467399D02*
X395000D01*
X373706Y466499D02*
X395000D01*
X372806Y465599D02*
X395000D01*
X371906Y464699D02*
X395000D01*
X371006Y463799D02*
X395000D01*
X370106Y462899D02*
X395000D01*
X369206Y461999D02*
X395000D01*
X368306Y461099D02*
X395000D01*
X367406Y460199D02*
X395000D01*
X366506Y459299D02*
X395000D01*
X365606Y458399D02*
X395000D01*
X364706Y457499D02*
X395000D01*
X363806Y456599D02*
X395000D01*
X362906Y455699D02*
X395000D01*
X362006Y454799D02*
X395000D01*
X361106Y453899D02*
X395000D01*
X360206Y452999D02*
X395000D01*
X359306Y452099D02*
X395000D01*
X358406Y451199D02*
X395000D01*
X357506Y450299D02*
X395000D01*
X356606Y449399D02*
X395000D01*
X355706Y448499D02*
X395000D01*
X354806Y447599D02*
X395000D01*
X283406Y446699D02*
X395000D01*
X282506Y445799D02*
X395000D01*
X281606Y444899D02*
X395000D01*
X280706Y443999D02*
X395000D01*
X279806Y443099D02*
X395000D01*
X278906Y442199D02*
X395000D01*
X278006Y441299D02*
X395000D01*
X277106Y440399D02*
X395000D01*
X276206Y439499D02*
X395000D01*
X275306Y438599D02*
X395000D01*
X274406Y437699D02*
X395000D01*
X273506Y436799D02*
X395000D01*
X263536Y435899D02*
X395000D01*
X381961Y434999D02*
X395000D01*
X382575Y434099D02*
X395000D01*
X382793Y433199D02*
X395000D01*
X382711Y432299D02*
X395000D01*
X382297Y431399D02*
X395000D01*
X381258Y430499D02*
X395000D01*
X379498Y429599D02*
X395000D01*
X378598Y428699D02*
X395000D01*
X377698Y427799D02*
X395000D01*
X376798Y426899D02*
X395000D01*
X375898Y425999D02*
X395000D01*
X374998Y425099D02*
X395000D01*
X374098Y424199D02*
X395000D01*
X373198Y423299D02*
X395000D01*
X372298Y422399D02*
X395000D01*
X371398Y421499D02*
X395000D01*
X370498Y420599D02*
X395000D01*
X369598Y419699D02*
X395000D01*
X368644Y418799D02*
X395000D01*
X327444Y417899D02*
X395000D01*
X328365Y416999D02*
X395000D01*
X328735Y416099D02*
X395000D01*
X329200Y415199D02*
X395000D01*
X330100Y414299D02*
X395000D01*
X331000Y413399D02*
X395000D01*
X331900Y412499D02*
X395000D01*
X350543Y411599D02*
X395000D01*
X351726Y410699D02*
X395000D01*
X352184Y409799D02*
X395000D01*
X352298Y408899D02*
X395000D01*
X352906Y407999D02*
X395000D01*
X353806Y407099D02*
X395000D01*
X359234Y406199D02*
X395000D01*
X359981Y405299D02*
X395000D01*
X360271Y404399D02*
X395000D01*
X360255Y403499D02*
X395000D01*
X359924Y402599D02*
X395000D01*
X359200Y401699D02*
X395000D01*
X359200Y400799D02*
X395000D01*
X359200Y399899D02*
X395000D01*
X359200Y398999D02*
X395000D01*
X359200Y398099D02*
X395000D01*
X359200Y397199D02*
X395000D01*
X359200Y396299D02*
X395000D01*
X359200Y395399D02*
X395000D01*
X359200Y394499D02*
X395000D01*
X359200Y393599D02*
X395000D01*
X359200Y392699D02*
X395000D01*
X359200Y391799D02*
X395000D01*
X359200Y390899D02*
X395000D01*
X359200Y389999D02*
X395000D01*
X359200Y389099D02*
X395000D01*
X359200Y388199D02*
X395000D01*
X359200Y387299D02*
X395000D01*
X359200Y386399D02*
X395000D01*
X359200Y385499D02*
X395000D01*
X359200Y384599D02*
X395000D01*
X359200Y383699D02*
X395000D01*
X359200Y382799D02*
X395000D01*
X359200Y381899D02*
X395000D01*
X359200Y380999D02*
X395000D01*
X359200Y380099D02*
X395000D01*
X359200Y379199D02*
X395000D01*
X359200Y378299D02*
X395000D01*
X359200Y377399D02*
X395000D01*
X359200Y376499D02*
X395000D01*
X359200Y375599D02*
X395000D01*
X359200Y374699D02*
X395000D01*
X359200Y373799D02*
X395000D01*
X359200Y372899D02*
X395000D01*
X359200Y371999D02*
X395000D01*
X359200Y371099D02*
X395000D01*
X359200Y370199D02*
X395000D01*
X359200Y369299D02*
X395000D01*
X359200Y368399D02*
X395000D01*
X359200Y367499D02*
X395000D01*
X359200Y366599D02*
X395000D01*
X359200Y365699D02*
X395000D01*
X359200Y364799D02*
X395000D01*
X359200Y363899D02*
X395000D01*
X359200Y362999D02*
X395000D01*
X359200Y362099D02*
X395000D01*
X359200Y361199D02*
X395000D01*
X359200Y360299D02*
X395000D01*
X359200Y359399D02*
X395000D01*
X359200Y358499D02*
X395000D01*
X359200Y357599D02*
X395000D01*
X359200Y356699D02*
X395000D01*
X359200Y355799D02*
X395000D01*
X359200Y354899D02*
X395000D01*
X359200Y353999D02*
X395000D01*
X359200Y353099D02*
X395000D01*
X359200Y352199D02*
X395000D01*
X359200Y351299D02*
X395000D01*
X359200Y350399D02*
X395000D01*
X359200Y349499D02*
X395000D01*
X359200Y348599D02*
X395000D01*
X359200Y347699D02*
X395000D01*
X359200Y346799D02*
X395000D01*
X359200Y345899D02*
X395000D01*
X359200Y344999D02*
X395000D01*
X359200Y344099D02*
X395000D01*
X359200Y343199D02*
X395000D01*
X359200Y342299D02*
X395000D01*
X359200Y341399D02*
X395000D01*
X359200Y340499D02*
X395000D01*
X359200Y339599D02*
X395000D01*
X359200Y338699D02*
X395000D01*
X359200Y337799D02*
X395000D01*
X359200Y336899D02*
X395000D01*
X359200Y335999D02*
X395000D01*
X359200Y335099D02*
X395000D01*
X359200Y334199D02*
X395000D01*
X359200Y333299D02*
X395000D01*
X359200Y332399D02*
X395000D01*
X359200Y331499D02*
X395000D01*
X359200Y330599D02*
X395000D01*
X359200Y329699D02*
X395000D01*
X359200Y328799D02*
X395000D01*
X359200Y327899D02*
X395000D01*
X359200Y326999D02*
X395000D01*
X359200Y326099D02*
X395000D01*
X359200Y325199D02*
X395000D01*
X359200Y324299D02*
X395000D01*
X359200Y323399D02*
X395000D01*
X359200Y322499D02*
X395000D01*
X359200Y321599D02*
X395000D01*
X359200Y320699D02*
X395000D01*
X359200Y319799D02*
X395000D01*
X359200Y318899D02*
X395000D01*
X359200Y317999D02*
X395000D01*
X359200Y317099D02*
X395000D01*
X359200Y316199D02*
X395000D01*
X359200Y315299D02*
X395000D01*
X359200Y314399D02*
X395000D01*
X359200Y313499D02*
X395000D01*
X359200Y312599D02*
X395000D01*
X359200Y311699D02*
X395000D01*
X359200Y310799D02*
X395000D01*
X359200Y309899D02*
X395000D01*
X359200Y308999D02*
X395000D01*
X359200Y308099D02*
X395000D01*
X359200Y307199D02*
X395000D01*
X359200Y306299D02*
X395000D01*
X359200Y305399D02*
X395000D01*
X359200Y304499D02*
X395000D01*
X359200Y303599D02*
X395000D01*
X359200Y302699D02*
X395000D01*
X359200Y301799D02*
X395000D01*
X359200Y300899D02*
X395000D01*
X359200Y299999D02*
X395000D01*
X359200Y299099D02*
X395000D01*
X359200Y298199D02*
X395000D01*
X359200Y297299D02*
X395000D01*
X359200Y296399D02*
X395000D01*
X359200Y295499D02*
X395000D01*
X359200Y294599D02*
X395000D01*
X359200Y293699D02*
X395000D01*
X359200Y292799D02*
X395000D01*
X359200Y291899D02*
X395000D01*
X359200Y290999D02*
X395000D01*
X359200Y290099D02*
X395000D01*
X359200Y289199D02*
X395000D01*
X359200Y288299D02*
X395000D01*
X359200Y287399D02*
X395000D01*
X359200Y286499D02*
X395000D01*
X359200Y285599D02*
X395000D01*
X359200Y284699D02*
X395000D01*
X359200Y283799D02*
X395000D01*
X359200Y282899D02*
X395000D01*
X359200Y281999D02*
X395000D01*
X359200Y281099D02*
X395000D01*
X359200Y280199D02*
X395000D01*
X359200Y279299D02*
X395000D01*
X359200Y278399D02*
X395000D01*
X359200Y277499D02*
X395000D01*
X359200Y276599D02*
X395000D01*
X359200Y275699D02*
X395000D01*
X359200Y274799D02*
X395000D01*
X359200Y273899D02*
X395000D01*
X359200Y272999D02*
X395000D01*
X359200Y272099D02*
X395000D01*
X359234Y271199D02*
X395000D01*
X359981Y270299D02*
X395000D01*
X360271Y269399D02*
X395000D01*
X360255Y268499D02*
X395000D01*
X359924Y267599D02*
X395000D01*
X359095Y266699D02*
X395000D01*
X355700Y265799D02*
X395000D01*
X355700Y264899D02*
X395000D01*
X355700Y263999D02*
X395000D01*
X355700Y263099D02*
X395000D01*
X355700Y262199D02*
X395000D01*
X355700Y261299D02*
X395000D01*
X355700Y260399D02*
X395000D01*
X355700Y259499D02*
X395000D01*
X355700Y258599D02*
X395000D01*
X355700Y257699D02*
X395000D01*
X355700Y256799D02*
X395000D01*
X355700Y255899D02*
X395000D01*
X355700Y254999D02*
X395000D01*
X355700Y254099D02*
X395000D01*
X355700Y253199D02*
X395000D01*
X355700Y252299D02*
X395000D01*
X355700Y251399D02*
X395000D01*
X355700Y250499D02*
X395000D01*
X355700Y249599D02*
X395000D01*
X355700Y248699D02*
X395000D01*
X355700Y247799D02*
X395000D01*
X355700Y246899D02*
X395000D01*
X355700Y245999D02*
X395000D01*
X355700Y245099D02*
X395000D01*
X355700Y244199D02*
X395000D01*
X355700Y243299D02*
X395000D01*
X355700Y242399D02*
X395000D01*
X355700Y241499D02*
X395000D01*
X355700Y240599D02*
X395000D01*
X355700Y239699D02*
X395000D01*
X355700Y238799D02*
X395000D01*
X356426Y237899D02*
X395000D01*
X356755Y236999D02*
X395000D01*
X356771Y236099D02*
X395000D01*
X356479Y235199D02*
X395000D01*
X355730Y234299D02*
X395000D01*
X350050Y233399D02*
X395000D01*
X350050Y232499D02*
X395000D01*
X350050Y231599D02*
X395000D01*
X350050Y230699D02*
X395000D01*
X350050Y229799D02*
X395000D01*
X350050Y228899D02*
X395000D01*
X350050Y227999D02*
X395000D01*
X350050Y227099D02*
X395000D01*
X350050Y226199D02*
X395000D01*
X350050Y225299D02*
X395000D01*
X350050Y224399D02*
X395000D01*
X350050Y223499D02*
X395000D01*
X350050Y222599D02*
X395000D01*
X350050Y221699D02*
X395000D01*
X350050Y220799D02*
X395000D01*
X350050Y219899D02*
X395000D01*
X350050Y218999D02*
X395000D01*
X350050Y218099D02*
X395000D01*
X350050Y217199D02*
X395000D01*
X350050Y216299D02*
X395000D01*
X350058Y215399D02*
X395000D01*
X350616Y214499D02*
X395000D01*
X350798Y213599D02*
X395000D01*
X350683Y212699D02*
X395000D01*
X350224Y211799D02*
X395000D01*
X349036Y210899D02*
X395000D01*
X340050Y209999D02*
X395000D01*
X340050Y209099D02*
X395000D01*
X340050Y208199D02*
X395000D01*
X340481Y207299D02*
X395000D01*
X340771Y206399D02*
X395000D01*
X340755Y205499D02*
X395000D01*
X340424Y204599D02*
X395000D01*
X339595Y203699D02*
X395000D01*
X325550Y202799D02*
X395000D01*
X325550Y201899D02*
X395000D01*
X325550Y200999D02*
X395000D01*
X325550Y200099D02*
X395000D01*
X325550Y199199D02*
X395000D01*
X325550Y198299D02*
X395000D01*
X325558Y197399D02*
X395000D01*
X326116Y196499D02*
X395000D01*
X326298Y195599D02*
X395000D01*
X326183Y194699D02*
X395000D01*
X325724Y193799D02*
X395000D01*
X325500Y192899D02*
X395000D01*
X325500Y191999D02*
X395000D01*
X325500Y191099D02*
X395000D01*
X325500Y190199D02*
X395000D01*
X325500Y189299D02*
X395000D01*
X325500Y188399D02*
X395000D01*
X168000Y434999D02*
X378039D01*
X168000Y434099D02*
X377425D01*
X168000Y433199D02*
X377207D01*
X168000Y432299D02*
X376400D01*
X168000Y431399D02*
X375500D01*
X168000Y430499D02*
X374600D01*
X168000Y429599D02*
X373700D01*
X168000Y428699D02*
X372800D01*
X168000Y427799D02*
X371900D01*
X168000Y426899D02*
X371000D01*
X168000Y425999D02*
X370100D01*
X168000Y425099D02*
X369200D01*
X168000Y424199D02*
X368300D01*
X168000Y423299D02*
X367400D01*
X355700Y266699D02*
X355905D01*
X354706Y406199D02*
X355766D01*
X340900Y403499D02*
X352300D01*
X341800Y402599D02*
X352300D01*
X342700Y401699D02*
X352300D01*
X343600Y400799D02*
X352300D01*
X344500Y399899D02*
X352300D01*
X345400Y398999D02*
X352300D01*
X346300Y398099D02*
X352300D01*
X347200Y397199D02*
X352300D01*
X348100Y396299D02*
X352300D01*
X349000Y395399D02*
X352300D01*
X349790Y394499D02*
X352300D01*
X350048Y393599D02*
X352300D01*
X350050Y392699D02*
X352300D01*
X350050Y391799D02*
X352300D01*
X350050Y390899D02*
X352300D01*
X350050Y389999D02*
X352300D01*
X350050Y389099D02*
X352300D01*
X350050Y388199D02*
X352300D01*
X350050Y387299D02*
X352300D01*
X350050Y386399D02*
X352300D01*
X350050Y385499D02*
X352300D01*
X350050Y384599D02*
X352300D01*
X350050Y383699D02*
X352300D01*
X350050Y382799D02*
X352300D01*
X350050Y381899D02*
X352300D01*
X350050Y380999D02*
X352300D01*
X350050Y380099D02*
X352300D01*
X350050Y379199D02*
X352300D01*
X350050Y378299D02*
X352300D01*
X350050Y377399D02*
X352300D01*
X350050Y376499D02*
X352300D01*
X350050Y375599D02*
X352300D01*
X350050Y374699D02*
X352300D01*
X350050Y373799D02*
X352300D01*
X350050Y372899D02*
X352300D01*
X350050Y371999D02*
X352300D01*
X350050Y371099D02*
X352300D01*
X350050Y370199D02*
X352300D01*
X351086Y369299D02*
X352300D01*
X352036Y363899D02*
X352300D01*
X350050Y362999D02*
X352300D01*
X350050Y362099D02*
X352300D01*
X350050Y361199D02*
X352300D01*
X350050Y360299D02*
X352300D01*
X350050Y359399D02*
X352300D01*
X350050Y358499D02*
X352300D01*
X350050Y357599D02*
X352300D01*
X350050Y356699D02*
X352300D01*
X350050Y355799D02*
X352300D01*
X350050Y354899D02*
X352300D01*
X350050Y353999D02*
X352300D01*
X350050Y353099D02*
X352300D01*
X350050Y352199D02*
X352300D01*
X350050Y351299D02*
X352300D01*
X350050Y350399D02*
X352300D01*
X350050Y349499D02*
X352300D01*
X350050Y348599D02*
X352300D01*
X350050Y347699D02*
X352300D01*
X350050Y346799D02*
X352300D01*
X350050Y345899D02*
X352300D01*
X350050Y344999D02*
X352300D01*
X350050Y344099D02*
X352300D01*
X350050Y343199D02*
X352300D01*
X350050Y342299D02*
X352300D01*
X350050Y341399D02*
X352300D01*
X350050Y340499D02*
X352300D01*
X350050Y339599D02*
X352300D01*
X350050Y338699D02*
X352300D01*
X350050Y337799D02*
X352300D01*
X350050Y336899D02*
X352300D01*
X350050Y335999D02*
X352300D01*
X350050Y335099D02*
X352300D01*
X350050Y334199D02*
X352300D01*
X350050Y333299D02*
X352300D01*
X350050Y332399D02*
X352300D01*
X350050Y331499D02*
X352300D01*
X350050Y330599D02*
X352300D01*
X350050Y329699D02*
X352300D01*
X350050Y328799D02*
X352300D01*
X350050Y327899D02*
X352300D01*
X350050Y326999D02*
X352300D01*
X350050Y326099D02*
X352300D01*
X350050Y325199D02*
X352300D01*
X350050Y324299D02*
X352300D01*
X350050Y323399D02*
X352300D01*
X350050Y322499D02*
X352300D01*
X350050Y321599D02*
X352300D01*
X350050Y320699D02*
X352300D01*
X350050Y319799D02*
X352300D01*
X350050Y318899D02*
X352300D01*
X350050Y317999D02*
X352300D01*
X350050Y317099D02*
X352300D01*
X350050Y316199D02*
X352300D01*
X350050Y315299D02*
X352300D01*
X350050Y314399D02*
X352300D01*
X350050Y313499D02*
X352300D01*
X350050Y312599D02*
X352300D01*
X350050Y311699D02*
X352300D01*
X350050Y310799D02*
X352300D01*
X350050Y309899D02*
X352300D01*
X350050Y308999D02*
X352300D01*
X350050Y308099D02*
X352300D01*
X350050Y307199D02*
X352300D01*
X350050Y306299D02*
X352300D01*
X350050Y305399D02*
X352300D01*
X350050Y304499D02*
X352300D01*
X350050Y303599D02*
X352300D01*
X350050Y302699D02*
X352300D01*
X350050Y301799D02*
X352300D01*
X350050Y300899D02*
X352300D01*
X350050Y299999D02*
X352300D01*
X350050Y299099D02*
X352300D01*
X350050Y298199D02*
X352300D01*
X350050Y297299D02*
X352300D01*
X350050Y296399D02*
X352300D01*
X350050Y295499D02*
X352300D01*
X350050Y294599D02*
X352300D01*
X350050Y293699D02*
X352300D01*
X350050Y292799D02*
X352300D01*
X350050Y291899D02*
X352300D01*
X350050Y290999D02*
X352300D01*
X350299Y290099D02*
X352300D01*
X350711Y289199D02*
X352300D01*
X350793Y288299D02*
X352300D01*
X350574Y287399D02*
X352300D01*
X350050Y286499D02*
X352300D01*
X350050Y285599D02*
X352300D01*
X350050Y284699D02*
X352300D01*
X350050Y283799D02*
X352300D01*
X350050Y282899D02*
X352300D01*
X350050Y281999D02*
X352300D01*
X350050Y281099D02*
X352300D01*
X350050Y280199D02*
X352300D01*
X350050Y279299D02*
X352300D01*
X350050Y278399D02*
X352300D01*
X350050Y277499D02*
X352300D01*
X350050Y276599D02*
X352300D01*
X350050Y275699D02*
X352300D01*
X350050Y274799D02*
X352300D01*
X350050Y273899D02*
X352300D01*
X350050Y272999D02*
X352300D01*
X350050Y272099D02*
X352300D01*
X350050Y271199D02*
X352300D01*
X350050Y270299D02*
X352300D01*
X350050Y269399D02*
X352300D01*
X350050Y268499D02*
X352300D01*
X350050Y267599D02*
X352300D01*
X350050Y266699D02*
X352300D01*
X350050Y265799D02*
X352300D01*
X350050Y264899D02*
X352300D01*
X350050Y263999D02*
X352300D01*
X350050Y263099D02*
X352300D01*
X350050Y262199D02*
X352300D01*
X350050Y261299D02*
X352300D01*
X350050Y260399D02*
X352300D01*
X350050Y259499D02*
X352300D01*
X350050Y258599D02*
X352300D01*
X350050Y257699D02*
X352300D01*
X350050Y256799D02*
X352300D01*
X350050Y255899D02*
X352300D01*
X350050Y254999D02*
X352300D01*
X350050Y254099D02*
X352300D01*
X350050Y253199D02*
X352300D01*
X350050Y252299D02*
X352300D01*
X350050Y251399D02*
X352300D01*
X350050Y250499D02*
X352300D01*
X350050Y249599D02*
X352300D01*
X350050Y248699D02*
X352300D01*
X350050Y247799D02*
X352300D01*
X350050Y246899D02*
X352300D01*
X350050Y245999D02*
X352300D01*
X350050Y245099D02*
X352300D01*
X350050Y244199D02*
X352300D01*
X350050Y243299D02*
X352300D01*
X350050Y242399D02*
X352300D01*
X350050Y241499D02*
X352300D01*
X350050Y240599D02*
X352300D01*
X350050Y239699D02*
X352300D01*
X350050Y238799D02*
X352300D01*
X350050Y234299D02*
X352270D01*
X340000Y404399D02*
X351697D01*
X350050Y237899D02*
X351574D01*
X350050Y235199D02*
X351521D01*
X350050Y236999D02*
X351245D01*
X350050Y236099D02*
X351229D01*
X350050Y369299D02*
X350914D01*
X339100Y405299D02*
X350797D01*
X338200Y406199D02*
X349897D01*
X332800Y411599D02*
X348457D01*
X337300Y407099D02*
X347444D01*
X333700Y410699D02*
X347274D01*
X340050Y210899D02*
X346964D01*
X336400Y407999D02*
X346885D01*
X334600Y409799D02*
X346816D01*
X335500Y408899D02*
X346702D01*
X330550Y391799D02*
X345950D01*
X330550Y390899D02*
X345950D01*
X330550Y389999D02*
X345950D01*
X330550Y389099D02*
X345950D01*
X330550Y388199D02*
X345950D01*
X330550Y387299D02*
X345950D01*
X330550Y386399D02*
X345950D01*
X330550Y385499D02*
X345950D01*
X330550Y384599D02*
X345950D01*
X330550Y383699D02*
X345950D01*
X330550Y382799D02*
X345950D01*
X330550Y381899D02*
X345950D01*
X330550Y380999D02*
X345950D01*
X330550Y380099D02*
X345950D01*
X330550Y379199D02*
X345950D01*
X330550Y378299D02*
X345950D01*
X330550Y377399D02*
X345950D01*
X330550Y376499D02*
X345950D01*
X330550Y375599D02*
X345950D01*
X330550Y374699D02*
X345950D01*
X330550Y373799D02*
X345950D01*
X330550Y372899D02*
X345950D01*
X330550Y371999D02*
X345950D01*
X330550Y371099D02*
X345950D01*
X330550Y370199D02*
X345950D01*
X330550Y369299D02*
X345950D01*
X330550Y368399D02*
X345950D01*
X330550Y367499D02*
X345950D01*
X330550Y366599D02*
X345950D01*
X330550Y365699D02*
X345950D01*
X330550Y364799D02*
X345950D01*
X330550Y363899D02*
X345950D01*
X330550Y362999D02*
X345950D01*
X330550Y362099D02*
X345950D01*
X330550Y361199D02*
X345950D01*
X330550Y360299D02*
X345950D01*
X330550Y359399D02*
X345950D01*
X330550Y358499D02*
X345950D01*
X330550Y357599D02*
X345950D01*
X330550Y356699D02*
X345950D01*
X330550Y355799D02*
X345950D01*
X330550Y354899D02*
X345950D01*
X330550Y353999D02*
X345950D01*
X330550Y353099D02*
X345950D01*
X330550Y352199D02*
X345950D01*
X330550Y351299D02*
X345950D01*
X330550Y350399D02*
X345950D01*
X330550Y349499D02*
X345950D01*
X330550Y348599D02*
X345950D01*
X330550Y347699D02*
X345950D01*
X330550Y346799D02*
X345950D01*
X330550Y345899D02*
X345950D01*
X330550Y344999D02*
X345950D01*
X330550Y344099D02*
X345950D01*
X330550Y343199D02*
X345950D01*
X330550Y342299D02*
X345950D01*
X330550Y341399D02*
X345950D01*
X330550Y340499D02*
X345950D01*
X330550Y339599D02*
X345950D01*
X330550Y338699D02*
X345950D01*
X330550Y337799D02*
X345950D01*
X330550Y336899D02*
X345950D01*
X330550Y335999D02*
X345950D01*
X330550Y335099D02*
X345950D01*
X330550Y334199D02*
X345950D01*
X330550Y333299D02*
X345950D01*
X330550Y332399D02*
X345950D01*
X330550Y331499D02*
X345950D01*
X330550Y330599D02*
X345950D01*
X330550Y329699D02*
X345950D01*
X330550Y328799D02*
X345950D01*
X330550Y327899D02*
X345950D01*
X330550Y326999D02*
X345950D01*
X330550Y326099D02*
X345950D01*
X330550Y325199D02*
X345950D01*
X330550Y324299D02*
X345950D01*
X330550Y323399D02*
X345950D01*
X330550Y322499D02*
X345950D01*
X330550Y321599D02*
X345950D01*
X330550Y320699D02*
X345950D01*
X330550Y319799D02*
X345950D01*
X330550Y318899D02*
X345950D01*
X330550Y317999D02*
X345950D01*
X330550Y317099D02*
X345950D01*
X330550Y316199D02*
X345950D01*
X330550Y315299D02*
X345950D01*
X330550Y314399D02*
X345950D01*
X330550Y313499D02*
X345950D01*
X330550Y312599D02*
X345950D01*
X330550Y311699D02*
X345950D01*
X330550Y310799D02*
X345950D01*
X330550Y309899D02*
X345950D01*
X330550Y308999D02*
X345950D01*
X330550Y308099D02*
X345950D01*
X330550Y307199D02*
X345950D01*
X330550Y306299D02*
X345950D01*
X330550Y305399D02*
X345950D01*
X330550Y304499D02*
X345950D01*
X330550Y303599D02*
X345950D01*
X330550Y302699D02*
X345950D01*
X330550Y301799D02*
X345950D01*
X330550Y300899D02*
X345950D01*
X330550Y299999D02*
X345950D01*
X330550Y299099D02*
X345950D01*
X330550Y298199D02*
X345950D01*
X330550Y297299D02*
X345950D01*
X330550Y296399D02*
X345950D01*
X330550Y295499D02*
X345950D01*
X330550Y294599D02*
X345950D01*
X330550Y293699D02*
X345950D01*
X330550Y292799D02*
X345950D01*
X330550Y291899D02*
X345950D01*
X330550Y290999D02*
X345950D01*
X330550Y286499D02*
X345950D01*
X330550Y285599D02*
X345950D01*
X330550Y284699D02*
X345950D01*
X330550Y283799D02*
X345950D01*
X330550Y282899D02*
X345950D01*
X330550Y281999D02*
X345950D01*
X330550Y281099D02*
X345950D01*
X330550Y280199D02*
X345950D01*
X330550Y279299D02*
X345950D01*
X330550Y278399D02*
X345950D01*
X330550Y277499D02*
X345950D01*
X334854Y276599D02*
X345950D01*
X335530Y275699D02*
X345950D01*
X335784Y274799D02*
X345950D01*
X336500Y273899D02*
X345950D01*
X337400Y272999D02*
X345950D01*
X338300Y272099D02*
X345950D01*
X339734Y271199D02*
X345950D01*
X340481Y270299D02*
X345950D01*
X340771Y269399D02*
X345950D01*
X340755Y268499D02*
X345950D01*
X340424Y267599D02*
X345950D01*
X340050Y266699D02*
X345950D01*
X340050Y265799D02*
X345950D01*
X340050Y264899D02*
X345950D01*
X340050Y263999D02*
X345950D01*
X340050Y263099D02*
X345950D01*
X340050Y262199D02*
X345950D01*
X340050Y261299D02*
X345950D01*
X340050Y260399D02*
X345950D01*
X340050Y259499D02*
X345950D01*
X340050Y258599D02*
X345950D01*
X340050Y257699D02*
X345950D01*
X340050Y256799D02*
X345950D01*
X340050Y255899D02*
X345950D01*
X340050Y254999D02*
X345950D01*
X340050Y254099D02*
X345950D01*
X340050Y253199D02*
X345950D01*
X340050Y252299D02*
X345950D01*
X340050Y251399D02*
X345950D01*
X340050Y250499D02*
X345950D01*
X340050Y249599D02*
X345950D01*
X340050Y248699D02*
X345950D01*
X340050Y247799D02*
X345950D01*
X340050Y246899D02*
X345950D01*
X340050Y245999D02*
X345950D01*
X340050Y245099D02*
X345950D01*
X340050Y244199D02*
X345950D01*
X340050Y243299D02*
X345950D01*
X340050Y242399D02*
X345950D01*
X340050Y241499D02*
X345950D01*
X340050Y240599D02*
X345950D01*
X340050Y239699D02*
X345950D01*
X340050Y238799D02*
X345950D01*
X340050Y237899D02*
X345950D01*
X340050Y236999D02*
X345950D01*
X340050Y236099D02*
X345950D01*
X340050Y235199D02*
X345950D01*
X340050Y234299D02*
X345950D01*
X340050Y233399D02*
X345950D01*
X340050Y232499D02*
X345950D01*
X340050Y231599D02*
X345950D01*
X340050Y230699D02*
X345950D01*
X340050Y229799D02*
X345950D01*
X340050Y228899D02*
X345950D01*
X340050Y227999D02*
X345950D01*
X340050Y227099D02*
X345950D01*
X340050Y226199D02*
X345950D01*
X340050Y225299D02*
X345950D01*
X340050Y224399D02*
X345950D01*
X340050Y223499D02*
X345950D01*
X340050Y222599D02*
X345950D01*
X340050Y221699D02*
X345950D01*
X340050Y220799D02*
X345950D01*
X340050Y219899D02*
X345950D01*
X340050Y218999D02*
X345950D01*
X340050Y218099D02*
X345950D01*
X340050Y217199D02*
X345950D01*
X340050Y216299D02*
X345950D01*
X340050Y215399D02*
X345942D01*
X330550Y392699D02*
X345902D01*
X340050Y211799D02*
X345776D01*
X330550Y290099D02*
X345701D01*
X330550Y287399D02*
X345426D01*
X340050Y214499D02*
X345384D01*
X340050Y212699D02*
X345317D01*
X330550Y289199D02*
X345289D01*
X330550Y288299D02*
X345207D01*
X340050Y213599D02*
X345202D01*
X330550Y393599D02*
X345002D01*
X330550Y394499D02*
X344102D01*
X330550Y395399D02*
X343202D01*
X330550Y396299D02*
X342302D01*
X336095Y397199D02*
X341402D01*
X336924Y398099D02*
X340502D01*
X337255Y398999D02*
X339602D01*
X337271Y399899D02*
X338702D01*
X336981Y400799D02*
X337802D01*
X336234Y401699D02*
X336902D01*
X325550Y203699D02*
X336405D01*
X330550Y402599D02*
X336002D01*
X325550Y243299D02*
X335950D01*
X325550Y242399D02*
X335950D01*
X325550Y241499D02*
X335950D01*
X325550Y240599D02*
X335950D01*
X325550Y239699D02*
X335950D01*
X325550Y238799D02*
X335950D01*
X325550Y237899D02*
X335950D01*
X325550Y236999D02*
X335950D01*
X325550Y236099D02*
X335950D01*
X325550Y235199D02*
X335950D01*
X325550Y234299D02*
X335950D01*
X325550Y233399D02*
X335950D01*
X325550Y232499D02*
X335950D01*
X325550Y231599D02*
X335950D01*
X325550Y230699D02*
X335950D01*
X325550Y229799D02*
X335950D01*
X325550Y228899D02*
X335950D01*
X325550Y227999D02*
X335950D01*
X325550Y227099D02*
X335950D01*
X325550Y226199D02*
X335950D01*
X325550Y225299D02*
X335950D01*
X325550Y224399D02*
X335950D01*
X325550Y223499D02*
X335950D01*
X325550Y222599D02*
X335950D01*
X325550Y221699D02*
X335950D01*
X325550Y220799D02*
X335950D01*
X325550Y219899D02*
X335950D01*
X325550Y218999D02*
X335950D01*
X325550Y218099D02*
X335950D01*
X325550Y217199D02*
X335950D01*
X325550Y216299D02*
X335950D01*
X325550Y215399D02*
X335950D01*
X325550Y214499D02*
X335950D01*
X325550Y213599D02*
X335950D01*
X325550Y212699D02*
X335950D01*
X325550Y211799D02*
X335950D01*
X325550Y210899D02*
X335950D01*
X325550Y209999D02*
X335950D01*
X325550Y209099D02*
X335950D01*
X325550Y208199D02*
X335950D01*
X325550Y204599D02*
X335576D01*
X325550Y207299D02*
X335519D01*
X325550Y205499D02*
X335245D01*
X325550Y206399D02*
X335229D01*
X330550Y403499D02*
X335102D01*
X330550Y404399D02*
X334202D01*
X330550Y405299D02*
X333302D01*
X330550Y397199D02*
X332905D01*
X325550Y244199D02*
X332905D01*
X330550Y401699D02*
X332766D01*
X330550Y406199D02*
X332402D01*
X325550Y245099D02*
X332076D01*
X325550Y245999D02*
X331745D01*
X330548Y407099D02*
X331502D01*
X325550Y246899D02*
X331202D01*
X330550Y276599D02*
X331146D01*
X330290Y407999D02*
X330602D01*
X325550Y247799D02*
X330302D01*
X329500Y408899D02*
X329702D01*
X325550Y248699D02*
X329402D01*
X328600Y409799D02*
X328802D01*
X325550Y249599D02*
X328502D01*
X327700Y410699D02*
X327902D01*
X325550Y250499D02*
X327602D01*
X326800Y411599D02*
X327002D01*
X325550Y251399D02*
X326771D01*
X325550Y252299D02*
X326460D01*
X325500Y405299D02*
X326450D01*
X325550Y404399D02*
X326450D01*
X325550Y403499D02*
X326450D01*
X325550Y402599D02*
X326450D01*
X325550Y401699D02*
X326450D01*
X325550Y400799D02*
X326450D01*
X325550Y399899D02*
X326450D01*
X325550Y398999D02*
X326450D01*
X325550Y398099D02*
X326450D01*
X325550Y397199D02*
X326450D01*
X325550Y396299D02*
X326450D01*
X325550Y395399D02*
X326450D01*
X325550Y394499D02*
X326450D01*
X325550Y393599D02*
X326450D01*
X325550Y392699D02*
X326450D01*
X325550Y391799D02*
X326450D01*
X325550Y390899D02*
X326450D01*
X325550Y389999D02*
X326450D01*
X325550Y389099D02*
X326450D01*
X325550Y388199D02*
X326450D01*
X325550Y387299D02*
X326450D01*
X325550Y386399D02*
X326450D01*
X325550Y385499D02*
X326450D01*
X325550Y384599D02*
X326450D01*
X325550Y383699D02*
X326450D01*
X325550Y382799D02*
X326450D01*
X325550Y381899D02*
X326450D01*
X325550Y380999D02*
X326450D01*
X325550Y380099D02*
X326450D01*
X325550Y379199D02*
X326450D01*
X325550Y378299D02*
X326450D01*
X325550Y377399D02*
X326450D01*
X325550Y376499D02*
X326450D01*
X325550Y375599D02*
X326450D01*
X325550Y374699D02*
X326450D01*
X325550Y373799D02*
X326450D01*
X325550Y372899D02*
X326450D01*
X325550Y371999D02*
X326450D01*
X325550Y371099D02*
X326450D01*
X325550Y370199D02*
X326450D01*
X325550Y369299D02*
X326450D01*
X325550Y368399D02*
X326450D01*
X325550Y367499D02*
X326450D01*
X325550Y366599D02*
X326450D01*
X325550Y365699D02*
X326450D01*
X325550Y364799D02*
X326450D01*
X325550Y363899D02*
X326450D01*
X325550Y362999D02*
X326450D01*
X325550Y362099D02*
X326450D01*
X325550Y361199D02*
X326450D01*
X325550Y360299D02*
X326450D01*
X325550Y359399D02*
X326450D01*
X325550Y358499D02*
X326450D01*
X325550Y357599D02*
X326450D01*
X325550Y356699D02*
X326450D01*
X325550Y355799D02*
X326450D01*
X325550Y354899D02*
X326450D01*
X325550Y353999D02*
X326450D01*
X325550Y353099D02*
X326450D01*
X325550Y352199D02*
X326450D01*
X325550Y351299D02*
X326450D01*
X325558Y350399D02*
X326450D01*
X326116Y349499D02*
X326450D01*
X326298Y348599D02*
X326450D01*
X326183Y347699D02*
X326450D01*
X325724Y346799D02*
X326450D01*
X325550Y345899D02*
X326450D01*
X325550Y344999D02*
X326450D01*
X325550Y344099D02*
X326450D01*
X325550Y343199D02*
X326450D01*
X325550Y342299D02*
X326450D01*
X325550Y341399D02*
X326450D01*
X325550Y340499D02*
X326450D01*
X325550Y339599D02*
X326450D01*
X325550Y338699D02*
X326450D01*
X325550Y337799D02*
X326450D01*
X325550Y336899D02*
X326450D01*
X325550Y335999D02*
X326450D01*
X325550Y335099D02*
X326450D01*
X325550Y334199D02*
X326450D01*
X325550Y333299D02*
X326450D01*
X325550Y332399D02*
X326450D01*
X325550Y331499D02*
X326450D01*
X325550Y330599D02*
X326450D01*
X325550Y329699D02*
X326450D01*
X325550Y328799D02*
X326450D01*
X325550Y327899D02*
X326450D01*
X325550Y326999D02*
X326450D01*
X325550Y326099D02*
X326450D01*
X325550Y325199D02*
X326450D01*
X325550Y324299D02*
X326450D01*
X325550Y323399D02*
X326450D01*
X325550Y322499D02*
X326450D01*
X325550Y321599D02*
X326450D01*
X325550Y320699D02*
X326450D01*
X325550Y319799D02*
X326450D01*
X325550Y318899D02*
X326450D01*
X325550Y317999D02*
X326450D01*
X325550Y317099D02*
X326450D01*
X325550Y316199D02*
X326450D01*
X325550Y315299D02*
X326450D01*
X325550Y314399D02*
X326450D01*
X325550Y313499D02*
X326450D01*
X325550Y312599D02*
X326450D01*
X325550Y311699D02*
X326450D01*
X325550Y310799D02*
X326450D01*
X325550Y309899D02*
X326450D01*
X325550Y308999D02*
X326450D01*
X325550Y308099D02*
X326450D01*
X325550Y307199D02*
X326450D01*
X325550Y306299D02*
X326450D01*
X325550Y305399D02*
X326450D01*
X325550Y304499D02*
X326450D01*
X325550Y303599D02*
X326450D01*
X325550Y302699D02*
X326450D01*
X325550Y301799D02*
X326450D01*
X325550Y300899D02*
X326450D01*
X325550Y299999D02*
X326450D01*
X325550Y299099D02*
X326450D01*
X325550Y298199D02*
X326450D01*
X325550Y297299D02*
X326450D01*
X325550Y296399D02*
X326450D01*
X325550Y295499D02*
X326450D01*
X325550Y294599D02*
X326450D01*
X325550Y293699D02*
X326450D01*
X325981Y292799D02*
X326450D01*
X326271Y291899D02*
X326450D01*
X326255Y290999D02*
X326450D01*
X325924Y290099D02*
X326450D01*
X325550Y289199D02*
X326450D01*
X325550Y288299D02*
X326450D01*
X325550Y287399D02*
X326450D01*
X325550Y286499D02*
X326450D01*
X325550Y285599D02*
X326450D01*
X325550Y284699D02*
X326450D01*
X325550Y283799D02*
X326450D01*
X325550Y282899D02*
X326450D01*
X325550Y281999D02*
X326450D01*
X325550Y281099D02*
X326450D01*
X325550Y280199D02*
X326450D01*
X325550Y279299D02*
X326450D01*
X325550Y278399D02*
X326450D01*
X325550Y277499D02*
X326450D01*
X325550Y276599D02*
X326450D01*
X325550Y275699D02*
X326450D01*
X325550Y274799D02*
X326450D01*
X325550Y273899D02*
X326450D01*
X325550Y272999D02*
X326450D01*
X325550Y272099D02*
X326450D01*
X325550Y271199D02*
X326450D01*
X325550Y270299D02*
X326450D01*
X325550Y269399D02*
X326450D01*
X325550Y268499D02*
X326450D01*
X325550Y267599D02*
X326450D01*
X325550Y266699D02*
X326450D01*
X325550Y265799D02*
X326450D01*
X325550Y264899D02*
X326450D01*
X325550Y263999D02*
X326450D01*
X325550Y263099D02*
X326450D01*
X325550Y262199D02*
X326450D01*
X325550Y261299D02*
X326450D01*
X325550Y260399D02*
X326450D01*
X325550Y259499D02*
X326450D01*
X325550Y258599D02*
X326450D01*
X325550Y257699D02*
X326450D01*
X325550Y256799D02*
X326450D01*
X325550Y255899D02*
X326450D01*
X325550Y254999D02*
X326450D01*
X325550Y254099D02*
X326450D01*
X325550Y253199D02*
X326450D01*
X325500Y406199D02*
X326402D01*
X325900Y412499D02*
X326102D01*
X325500Y407099D02*
X325502D01*
X321550Y417899D02*
X324556D01*
X321550Y416999D02*
X323635D01*
X322300Y416099D02*
X323265D01*
X198536Y435899D02*
X261464D01*
X168000Y422399D02*
X203227D01*
X168000Y421499D02*
X202100D01*
X168000Y420599D02*
X201200D01*
X168000Y419699D02*
X200300D01*
X168000Y418799D02*
X199400D01*
X198198Y382799D02*
X199000D01*
X197298Y381899D02*
X199000D01*
X196398Y380999D02*
X199000D01*
X195498Y380099D02*
X199000D01*
X194479Y379199D02*
X199000D01*
X164698Y378299D02*
X199000D01*
X163798Y377399D02*
X199000D01*
X162898Y376499D02*
X199000D01*
X162550Y375599D02*
X199000D01*
X162550Y374699D02*
X199000D01*
X162550Y373799D02*
X199000D01*
X162550Y372899D02*
X199000D01*
X162550Y371999D02*
X199000D01*
X162550Y371099D02*
X199000D01*
X162550Y370199D02*
X199000D01*
X162550Y369299D02*
X199000D01*
X162550Y368399D02*
X199000D01*
X162550Y367499D02*
X199000D01*
X162550Y366599D02*
X199000D01*
X162550Y365699D02*
X199000D01*
X162550Y364799D02*
X199000D01*
X162550Y363899D02*
X199000D01*
X162550Y362999D02*
X199000D01*
X162799Y362099D02*
X199000D01*
X163211Y361199D02*
X199000D01*
X163293Y360299D02*
X199000D01*
X163074Y359399D02*
X199000D01*
X162458Y358499D02*
X199000D01*
X128000Y357599D02*
X199000D01*
X128761Y356699D02*
X199000D01*
X129661Y355799D02*
X199000D01*
X130561Y354899D02*
X199000D01*
X171500Y353999D02*
X199000D01*
X171500Y353099D02*
X199000D01*
X171500Y352199D02*
X199000D01*
X171500Y351299D02*
X199000D01*
X171500Y350399D02*
X199000D01*
X171500Y349499D02*
X199000D01*
X171500Y348599D02*
X199000D01*
X171500Y347699D02*
X199000D01*
X171500Y346799D02*
X199000D01*
X171500Y345899D02*
X199000D01*
X171500Y344999D02*
X199000D01*
X171500Y344099D02*
X199000D01*
X171500Y343199D02*
X199000D01*
X171500Y342299D02*
X199000D01*
X171500Y341399D02*
X199000D01*
X171500Y340499D02*
X199000D01*
X171500Y339599D02*
X199000D01*
X171500Y338699D02*
X199000D01*
X171500Y337799D02*
X199000D01*
X171500Y336899D02*
X199000D01*
X171500Y335999D02*
X199000D01*
X171500Y335099D02*
X199000D01*
X171500Y334199D02*
X199000D01*
X171500Y333299D02*
X199000D01*
X171500Y332399D02*
X199000D01*
X171500Y331499D02*
X199000D01*
X171500Y330599D02*
X199000D01*
X171500Y329699D02*
X199000D01*
X171500Y328799D02*
X199000D01*
X171500Y327899D02*
X199000D01*
X171500Y326999D02*
X199000D01*
X171500Y326099D02*
X199000D01*
X171500Y325199D02*
X199000D01*
X171500Y324299D02*
X199000D01*
X171500Y323399D02*
X199000D01*
X171500Y322499D02*
X199000D01*
X171500Y321599D02*
X199000D01*
X171500Y320699D02*
X199000D01*
X171500Y319799D02*
X199000D01*
X171500Y318899D02*
X199000D01*
X171500Y317999D02*
X199000D01*
X171500Y317099D02*
X199000D01*
X171500Y316199D02*
X199000D01*
X171500Y315299D02*
X199000D01*
X171500Y314399D02*
X199000D01*
X171500Y313499D02*
X199000D01*
X171500Y312599D02*
X199000D01*
X171500Y311699D02*
X199000D01*
X171500Y310799D02*
X199000D01*
X171500Y309899D02*
X199000D01*
X171500Y308999D02*
X199000D01*
X171500Y308099D02*
X199000D01*
X171500Y307199D02*
X199000D01*
X171500Y306299D02*
X199000D01*
X171500Y305399D02*
X199000D01*
X171500Y304499D02*
X199000D01*
X171500Y303599D02*
X199000D01*
X171500Y302699D02*
X199000D01*
X171500Y301799D02*
X199000D01*
X171500Y300899D02*
X199000D01*
X171500Y299999D02*
X199000D01*
X171500Y299099D02*
X199000D01*
X171500Y298199D02*
X199000D01*
X168000Y417899D02*
X198500D01*
X168000Y416999D02*
X197600D01*
X168000Y416099D02*
X196700D01*
X168000Y435899D02*
X196464D01*
X168000Y415199D02*
X195800D01*
X168000Y414299D02*
X194914D01*
X168000Y413399D02*
X194489D01*
X168000Y412499D02*
X194450D01*
X168000Y411599D02*
X194450D01*
X168000Y410699D02*
X194450D01*
X168000Y409799D02*
X194450D01*
X168000Y408899D02*
X194450D01*
X168000Y407999D02*
X194450D01*
X168000Y407099D02*
X194450D01*
X168000Y406199D02*
X194450D01*
X168000Y405299D02*
X194450D01*
X168000Y404399D02*
X194450D01*
X168000Y403499D02*
X194450D01*
X168000Y402599D02*
X194450D01*
X168000Y401699D02*
X194450D01*
X168000Y400799D02*
X194450D01*
X168000Y399899D02*
X194450D01*
X168000Y398999D02*
X194450D01*
X168000Y398099D02*
X194450D01*
X168000Y397199D02*
X194450D01*
X128000Y396299D02*
X194450D01*
X128000Y395399D02*
X194450D01*
X128000Y394499D02*
X194450D01*
X128000Y393599D02*
X194450D01*
X128000Y392699D02*
X194450D01*
X128000Y391799D02*
X194400D01*
X128000Y390899D02*
X193500D01*
X128000Y389999D02*
X192600D01*
X128000Y389099D02*
X191700D01*
X173746Y388199D02*
X190800D01*
X128000D02*
X172254D01*
X128000Y383699D02*
X170856D01*
X128000Y387299D02*
X170854D01*
X128000Y384599D02*
X170349D01*
X128000Y386399D02*
X170348D01*
X128000Y385499D02*
X170200D01*
X128000Y382799D02*
X163516D01*
X128000Y381899D02*
X162500D01*
X128000Y380999D02*
X161600D01*
X128000Y380099D02*
X160700D01*
X128000Y379199D02*
X159800D01*
X128000Y378299D02*
X158914D01*
X128000Y358499D02*
X158542D01*
X128000Y377399D02*
X158489D01*
X128000Y376499D02*
X158450D01*
X128000Y375599D02*
X158450D01*
X128000Y374699D02*
X158450D01*
X128000Y373799D02*
X158450D01*
X128000Y372899D02*
X158450D01*
X128000Y371999D02*
X158450D01*
X128000Y371099D02*
X158450D01*
X128000Y370199D02*
X158450D01*
X128000Y369299D02*
X158450D01*
X128000Y368399D02*
X158450D01*
X128000Y367499D02*
X158450D01*
X128000Y366599D02*
X158450D01*
X128000Y365699D02*
X158450D01*
X128000Y364799D02*
X158450D01*
X128000Y363899D02*
X158450D01*
X128000Y362999D02*
X158450D01*
X128000Y362099D02*
X158201D01*
X128000Y359399D02*
X157926D01*
X128000Y361199D02*
X157789D01*
X128000Y360299D02*
X157707D01*
X353581Y532919D02*
X354939Y531561D01*
X353581Y528081D02*
X354939Y529439D01*
X359219Y528081D02*
X357861Y529439D01*
X359219Y532919D02*
X357861Y531561D01*
X353581Y522919D02*
X354939Y521561D01*
X353581Y518081D02*
X354939Y519439D01*
X359219Y522919D02*
X357861Y521561D01*
X353581Y512419D02*
X354939Y511061D01*
X353581Y507581D02*
X354939Y508939D01*
X216081Y471081D02*
X217439Y472439D01*
X220919Y471081D02*
X219561Y472439D01*
X220919Y476719D02*
X219561Y475361D01*
X216081Y476719D02*
X217439Y475361D01*
X239081Y474581D02*
X240439Y475939D01*
X243919Y474581D02*
X242561Y475939D01*
X243919Y480219D02*
X242561Y478861D01*
X239081Y480219D02*
X240439Y478861D01*
X234919Y486419D02*
X233561Y485061D01*
X230081Y486419D02*
X231439Y485061D01*
X230081Y480781D02*
X231439Y482139D01*
X234919Y480781D02*
X233561Y482139D01*
X216919Y464081D02*
X215561Y465439D01*
X216919Y468919D02*
X215561Y467561D01*
X211281Y468919D02*
X212639Y467561D01*
X211281Y464081D02*
X212639Y465439D01*
X220919Y496919D02*
X219561Y495561D01*
X216081Y496919D02*
X217439Y495561D01*
X216081Y491281D02*
X217439Y492639D01*
X220919Y491281D02*
X219561Y492639D01*
X242419Y491081D02*
X241061Y492439D01*
X242419Y495919D02*
X241061Y494561D01*
X236781Y495919D02*
X238139Y494561D01*
X236781Y491081D02*
X238139Y492439D01*
X196919Y464081D02*
X195561Y465439D01*
X191281Y464081D02*
X192639Y465439D01*
G54D23*
X323500Y195500D02*
Y291500D01*
X338000Y206000D02*
Y269000D01*
X348000Y213500D02*
Y288500D01*
X334500Y246500D02*
X328500Y252500D01*
Y399500*
X334500*
X338000Y269000D02*
Y269500D01*
X333000Y274500*
X323500Y291500D02*
Y348500D01*
X348000Y288500D02*
Y366500D01*
X351000*
X160500Y360500D02*
Y377000D01*
X164500Y381000*
X193500*
X201000Y388500*
Y410500*
X206500Y416000*
X312000*
X304000Y348000D02*
X284000Y368000D01*
X225000*
X323500Y348500D02*
Y404500D01*
X318000Y410000*
X351000Y366500D02*
X348000D01*
Y393500*
X326000Y415500*
X173000Y385500D02*
X191000D01*
X196500Y391000*
Y413000*
X204000Y420500*
X319500*
X334500Y399500D02*
X328500D01*
Y407000*
X319500Y416000*
Y420500*
X367500*
X380000Y433000*
X318000Y410000D02*
X312000Y416000D01*
X158000Y455000D02*
X158500Y455500D01*
X163000*
X287500Y453000D02*
Y465500D01*
X259500Y493500*
X245500*
X187900Y467500D02*
Y469968D01*
X188500Y470568*
X187900Y467500D02*
Y469968D01*
X190050Y472118*
Y482950*
X183500Y489500*
X178000*
X189068Y470000D02*
X192000D01*
X192500Y470500*
X188500Y470568D02*
X189068Y470000D01*
X192000*
X189068D02*
X188500Y470568D01*
X192000Y470000D02*
X192500Y470500D01*
X207500*
X209515Y472515*
Y475015*
X209500Y477500*
X212100Y480100*
X218500*
X207500Y470500D02*
X192500D01*
X207900Y466500D02*
X207500D01*
Y470500*
X223500Y480000D02*
X218500D01*
Y480100*
X324500Y462500D02*
X329000Y467000D01*
X355500*
X365000*
X380500Y482500*
Y502500*
X223286Y533829D02*
X222366Y532910D01*
X216714Y533829D02*
X217634Y532910D01*
X216714Y527258D02*
X217634Y528177D01*
X223286Y527258D02*
X222366Y528177D01*
X384541Y533541D02*
X383621Y532621D01*
X378459Y533541D02*
X379379Y532621D01*
X378459Y527459D02*
X379379Y528379D01*
X384541Y527459D02*
X383621Y528379D01*
X384541Y523541D02*
X383621Y522621D01*
X378459Y523541D02*
X379379Y522621D01*
X378459Y517459D02*
X379379Y518379D01*
X384541Y517459D02*
X383621Y518379D01*
X384541Y513541D02*
X383621Y512621D01*
X378459Y513541D02*
X379379Y512621D01*
X378459Y507459D02*
X379379Y508379D01*
X384541Y507459D02*
X383621Y508379D01*
X134541Y422459D02*
X133621Y423379D01*
X134541Y428541D02*
X133621Y427621D01*
X128459Y428541D02*
X129379Y427621D01*
X128459Y422459D02*
X129379Y423379D01*
X112959Y287041D02*
X113879Y286121D01*
X112959Y280959D02*
X113879Y281879D01*
X119041Y280959D02*
X118121Y281879D01*
X119041Y287041D02*
X118121Y286121D01*
G54D25*
X325000Y173000D02*
X313000Y185000D01*
Y210500*
X284300Y239200*
X275000*
G54D37*
X369000Y150843D03*
Y131157D03*
X160843Y125000D03*
X141157D03*
X331000Y131157D03*
Y150843D03*
G54D38*
X218500Y480100D03*
Y473900D03*
Y487900D03*
Y494100D03*
X232500Y477400D03*
Y483600D03*
X241500D03*
Y477400D03*
G54D56*
X151500Y435500D03*
Y425500D03*
X141500Y435500D03*
Y425500D03*
X131500Y435500D03*
Y425500D03*
X381500Y510500D03*
Y520500D03*
Y530500D03*
X186000Y164000D03*
Y184000D03*
Y284000D03*
X116000D03*
Y264000D03*
Y204000D03*
Y164000D03*
G54D60*
X371500Y510500D03*
Y520500D03*
Y530500D03*
G54D68*
X275000Y392000D03*
X225000D03*
X275000Y239200D03*
X225000D03*
G54D69*
X250000Y345150D03*
Y192350D03*
G54D77*
X225000Y307200D03*
X275000D03*
X250000Y290700D03*
X225000Y154400D03*
X275000D03*
X250000Y137900D03*
G54D79*
X220000Y530543D03*
Y540543D03*
X230000Y530543D03*
Y540543D03*
X240000Y530543D03*
Y540543D03*
X250000Y530543D03*
Y540543D03*
X260000Y530543D03*
Y540543D03*
X270000Y530543D03*
Y540543D03*
X280000Y530543D03*
Y540543D03*
X290000Y530543D03*
Y540543D03*
G54D80*
X304000Y196000D02*
X286000Y214000D01*
X225000*
X165000Y351000D02*
X130500D01*
X122500Y359000*
Y396000*
X124500Y398000*
X128500Y402000*
X158500*
X163000Y406500*
Y425500*
Y453000D02*
Y425500D01*
Y455500*
Y425500D02*
Y453000D01*
X287500*
X163000Y462500D02*
Y453000D01*
X287500*
X163000Y455500D02*
Y462500D01*
X168000Y467500*
X163000Y462500D02*
Y455500D01*
Y462500*
X168000Y467500*
X187900*
X287500Y453000D02*
X315000D01*
X324500Y462500*
X287500Y453000D02*
X163000D01*
Y462500*
X168000Y467500*
X187900*
X163000Y462500D02*
X168000Y467500D01*
X187900*
Y466500*
Y467500*
X168000*
X325000Y173000D03*
X304000Y196000D03*
X323500Y195500D03*
X313000Y185000D03*
X338000Y206000D03*
X348000Y213500D03*
X354000Y236500D03*
X334500Y246500D03*
X338000Y269000D03*
X333000Y274500D03*
X357500Y269000D03*
X323500Y291500D03*
X348000Y288500D03*
X160500Y360500D03*
X165000Y351000D03*
X304000Y348000D03*
X323500Y348500D03*
X351000Y366500D03*
X173000Y385500D03*
X334500Y399500D03*
X318000Y410000D03*
X326000Y415500D03*
X349500Y409000D03*
X357500Y404000D03*
X109500Y424500D03*
X197500Y438500D03*
X262500D03*
X380000Y433000D03*
X167000Y458000D03*
X158000Y455000D03*
X189500Y448500D03*
X192000Y445000D03*
X195000Y441500D03*
X266000Y457500D03*
X261500D03*
X262000Y448500D03*
X264000Y445000D03*
X250500Y441500D03*
X168500Y462000D03*
X178000Y463500D03*
X173500Y462500D03*
X187000Y474000D03*
X192500Y470500D03*
X207500D03*
X223500Y480000D03*
X232500Y472500D03*
X280000Y467000D03*
X277000Y462000D03*
X324500Y462500D03*
X355500Y467000D03*
X178000Y489500D03*
X223500Y488000D03*
X228000Y493500D03*
X232500Y499500D03*
X247000Y484000D03*
X245500Y493500D03*
X380500Y482500D03*
X226500Y505500D03*
X229500Y502500D03*
X380500D03*
X285000Y525500D03*
X288000Y522500D03*
X310000D03*
X292000D03*
X296000D03*
X300000D03*
X304000D03*
X318000D03*
X314000D03*
G54D82*
X354000Y236500D02*
Y404500D01*
X349500Y409000*
X357500Y269000D02*
Y404000D01*
X124500Y398000D02*
Y409500D01*
X109500Y424500*
X131500Y435500D02*
Y442000D01*
X163500Y474000*
X187000*
X151500Y425500D02*
X163000D01*
X151500*
X197500Y438500D02*
X250500D01*
X262500*
X189500Y448500D02*
X192000D01*
X262000*
X195000Y445000D02*
X264000D01*
X197500Y441500D02*
X195000D01*
X192000Y445000D02*
X195000D01*
X249022Y460300D02*
X175700D01*
X173500Y462500*
X249022Y460300D02*
X250922Y462200D01*
X276800*
X255742Y458500D02*
X172000D01*
X168500Y462000*
X255742Y458500D02*
X257742Y460500D01*
X263000*
X260000Y456000D02*
X172000D01*
X170000Y458000*
X167000*
X260000Y456000D02*
X261500Y457500D01*
X266000D02*
X263000Y460500D01*
X250500Y441500D02*
X197500D01*
X179600Y461900D02*
X246400D01*
X249500Y465000*
X278000*
X280000Y467000*
X179600Y461900D02*
X178000Y463500D01*
X187900Y466500D02*
X188000D01*
X197100Y463500D02*
X211100D01*
X214100Y466500*
X197100Y463500D02*
X194100Y466500D01*
X214100D02*
X214500Y466900D01*
Y473900*
X232500Y472500D02*
Y477400D01*
X277000Y462000D02*
X276800Y462200D01*
X218500Y487900D02*
X218950D01*
X219050Y488000*
X223500*
X232500Y499500D02*
X367000D01*
X371500Y504000*
Y510500*
X241500Y483600D02*
Y484000D01*
X247000*
X233400Y493500D02*
X228000D01*
X226500Y505500D02*
X338500D01*
X344500Y511500*
Y535500*
X349000Y540000*
X359500*
X229500Y502500D02*
X355500D01*
X359500Y506500*
Y518000*
X362600Y521100*
X250000Y508000D02*
X303500D01*
X318000Y522500*
X250000Y508000D02*
X235000Y523000D01*
Y535543*
X230000Y540543*
X253500Y510000D02*
X300500D01*
X310000Y519500*
Y522500*
X253500Y510000D02*
X240000Y523500D01*
Y530543*
X256600Y511900D02*
X297218D01*
X307000Y521682*
Y525500*
X308000Y526500*
X256600Y511900D02*
X245000Y523500D01*
Y535543*
X240000Y540543*
X268000Y517500D02*
X291000D01*
X296000Y522500*
X268000Y517500D02*
X260000Y525500D01*
Y530543*
X263500Y515500D02*
X293000D01*
X300000Y522500*
X263500Y515500D02*
X255000Y524000D01*
Y535543*
X250000Y540543*
X260000Y513500D02*
X295000D01*
X304000Y522500*
X260000Y513500D02*
X250000Y523500D01*
Y530543*
X289000Y519500D02*
X272500D01*
X265000Y527000*
Y535543*
X260000Y540543*
X289000Y519500D02*
X292000Y522500D01*
X371500Y520500D02*
X362600D01*
Y521100*
X362200Y510000D02*
X362600D01*
X366250*
X366750Y510500*
X371500*
X285000Y525500D02*
Y533000D01*
X282500Y535500*
X275043*
X270000Y540543*
X288000Y522500D02*
X278043D01*
X270000Y530543*
X314000Y522500D02*
Y525500D01*
X313000Y526500*
X308000*
X371500Y530500D02*
X362600D01*
Y534400*
X362500Y534500*
Y537000*
X359500Y540000*
X359500*
X359500*
G54D87*
X250000Y137900D02*
Y192350D01*
X225000Y154400D02*
Y184000D01*
X186000*
X225000Y154400D02*
Y239200D01*
Y214000*
Y239200D02*
Y307200D01*
X250000Y290700D02*
Y345150D01*
X225000Y307200D02*
Y392000D01*
Y368000*
G74*
X0Y0D02*
M02*
