*
*
G04 PADS 9.3.1 Build Number: 456998 generated Gerber (RS-274-X) file*
G04 PC Version=2.1*
*
%IN "remoteMonitor.pcb"*%
*
%MOIN*%
*
%FSLAX35Y35*%
*
*
*
*
G04 PC Standard Apertures*
*
*
G04 Thermal Relief Aperture macro.*
%AMTER*
1,1,$1,0,0*
1,0,$1-$2,0,0*
21,0,$3,$4,0,0,45*
21,0,$3,$4,0,0,135*
%
*
*
G04 Annular Aperture macro.*
%AMANN*
1,1,$1,0,0*
1,0,$2,0,0*
%
*
*
G04 Odd Aperture macro.*
%AMODD*
1,1,$1,0,0*
1,0,$1-0.005,0,0*
%
*
*
G04 PC Custom Aperture Macros*
*
*
*
*
*
*
G04 PC Aperture Table*
*
%ADD010C,0.001*%
%ADD018R,0.038X0.03*%
%ADD038R,0.03X0.038*%
%ADD052C,0.00945*%
%ADD053R,0.18701X0.22244*%
%ADD054R,0.02362X0.01181*%
%ADD055R,0.05906X0.07087*%
%ADD058R,0.025X0.02*%
%ADD059R,0.07874X0.14764*%
%ADD061R,0.06102X0.02362*%
%ADD064R,0.035X0.028*%
%ADD065R,0.11811X0.0315*%
%ADD066R,0.07008X0.02362*%
%ADD067R,0.05906X0.07874*%
%ADD070R,0.082X0.07*%
%ADD071R,0.04331X0.04331*%
%ADD072R,0.04331X0.05512*%
%ADD073R,0.02362X0.06102*%
%ADD074R,0.05512X0.04528*%
%ADD075R,0.08465X0.03543*%
%ADD076R,0.08465X0.12795*%
%ADD078R,0.06X0.1*%
%ADD116O,0.0126X0.05512*%
%ADD117O,0.05512X0.0126*%
%ADD121R,0.125X0.065*%
%ADD122R,0.04X0.04*%
*
*
*
*
G04 PC Circuitry*
G04 Layer Name remoteMonitor.pcb - circuitry*
%LPD*%
*
*
G04 PC Custom Flashes*
G04 Layer Name remoteMonitor.pcb - flashes*
%LPD*%
*
*
G04 PC Circuitry*
G04 Layer Name remoteMonitor.pcb - circuitry*
%LPD*%
*
G54D10*
G54D18*
G01X146974Y465284D03*
X140774D03*
X166600Y372000D03*
X160400D03*
X362600Y510000D03*
X356400D03*
X362600Y520500D03*
X356400D03*
X362600Y530500D03*
X356400D03*
X387100Y487000D03*
X380900D03*
X183600Y444000D03*
X177400D03*
X160400Y365000D03*
X166600D03*
X320900Y374500D03*
X327100D03*
X140900Y357000D03*
X147100D03*
X124100Y347000D03*
X117900D03*
X156100Y306000D03*
X149900D03*
X156100Y345000D03*
X149900D03*
X182900Y311000D03*
X189100D03*
X182900Y341000D03*
X189100D03*
X376900Y408500D03*
X383100D03*
X376900Y436500D03*
X383100D03*
X376900Y429500D03*
X383100D03*
X376900Y443500D03*
X383100D03*
X376900Y450500D03*
X383100D03*
X376900Y457500D03*
X383100D03*
X376900Y422500D03*
X383100D03*
X376900Y415500D03*
X383100D03*
X342400Y320000D03*
X348600D03*
X315100Y432500D03*
X308900D03*
X315100Y425500D03*
X308900D03*
X168739Y513689D03*
X162539D03*
X380900Y494000D03*
X387100D03*
X239600Y493500D03*
X233400D03*
X324900Y482500D03*
X331100D03*
X324900Y489500D03*
X331100D03*
X321400Y221000D03*
X327600D03*
G54D38*
X109500Y431600D03*
Y425400D03*
X174000Y489400D03*
Y495600D03*
X167000Y489400D03*
Y495600D03*
X116500Y431600D03*
Y425400D03*
X160000Y379400D03*
Y385600D03*
X313500Y364400D03*
Y370600D03*
X334500D03*
Y364400D03*
X167000Y385600D03*
Y379400D03*
X334500Y378400D03*
Y384600D03*
X174000Y385600D03*
Y379400D03*
X355500Y337400D03*
Y343600D03*
X315500Y439900D03*
Y446100D03*
X308500Y439900D03*
Y446100D03*
X324500Y468900D03*
Y475100D03*
X331500Y468900D03*
Y475100D03*
X343500Y166400D03*
Y172600D03*
X208500Y538600D03*
Y532400D03*
X176166Y513677D03*
Y507477D03*
X155141Y513672D03*
Y507472D03*
X123500Y378600D03*
Y372400D03*
X335000Y224900D03*
Y231100D03*
X314000Y211400D03*
Y217600D03*
X335000Y217100D03*
Y210900D03*
G54D52*
X215343Y502937D02*
X215382D01*
Y500732*
X215343*
Y502937*
Y501575D02*
X215382D01*
X215343Y502520D02*
X215382D01*
X213374Y502937D02*
X213414D01*
Y500732*
X213374*
Y502937*
Y501575D02*
X213414D01*
X213374Y502520D02*
X213414D01*
X213386Y500732D02*
Y502937D01*
X211406D02*
X211445D01*
Y500732*
X211406*
Y502937*
Y501575D02*
X211445D01*
X211406Y502520D02*
X211445D01*
X209437Y502937D02*
X209477D01*
Y500732*
X209437*
Y502937*
Y501575D02*
X209477D01*
X209437Y502520D02*
X209477D01*
X207469Y502937D02*
X207508D01*
Y500732*
X207469*
Y502937*
Y501575D02*
X207508D01*
X207469Y502520D02*
X207508D01*
X205500Y502937D02*
X205540D01*
Y500732*
X205500*
Y502937*
Y501575D02*
X205540D01*
X205500Y502520D02*
X205540D01*
X203532Y502937D02*
X203571D01*
Y500732*
X203532*
Y502937*
Y501575D02*
X203571D01*
X203532Y502520D02*
X203571D01*
X201563Y502937D02*
X201603D01*
Y500732*
X201563*
Y502937*
Y501575D02*
X201603D01*
X201563Y502520D02*
X201603D01*
X199595Y502937D02*
X199634D01*
Y500732*
X199595*
Y502937*
Y501575D02*
X199634D01*
X199595Y502520D02*
X199634D01*
X197626Y502937D02*
X197666D01*
Y500732*
X197626*
Y502937*
Y501575D02*
X197666D01*
X197626Y502520D02*
X197666D01*
X195658Y502937D02*
X195697D01*
Y500732*
X195658*
Y502937*
Y501575D02*
X195697D01*
X195658Y502520D02*
X195697D01*
X193689Y502937D02*
X193729D01*
Y500732*
X193689*
Y502937*
Y501575D02*
X193729D01*
X193689Y502520D02*
X193729D01*
X191721Y502937D02*
X191760D01*
Y500732*
X191721*
Y502937*
Y501575D02*
X191760D01*
X191721Y502520D02*
X191760D01*
X189752Y502937D02*
X189792D01*
Y500732*
X189752*
Y502937*
Y501575D02*
X189792D01*
X189752Y502520D02*
X189792D01*
X189764Y500732D02*
Y502937D01*
X187784D02*
X187823D01*
Y500732*
X187784*
Y502937*
Y501575D02*
X187823D01*
X187784Y502520D02*
X187823D01*
X185815Y502937D02*
X185855D01*
Y500732*
X185815*
Y502937*
Y501575D02*
X185855D01*
X185815Y502520D02*
X185855D01*
X181780Y498862D02*
Y498901D01*
X183985*
Y498862*
X181780*
X182205D02*
Y498901D01*
X183150Y498862D02*
Y498901D01*
X181780Y496894D02*
Y496933D01*
X183985*
Y496894*
X181780*
X182205D02*
Y496933D01*
X183150Y496894D02*
Y496933D01*
X181780Y494925D02*
Y494964D01*
X183985*
Y494925*
X181780*
Y494961D02*
X183985D01*
X182205Y494925D02*
Y494964D01*
X183150Y494925D02*
Y494964D01*
X181780Y492957D02*
Y492996D01*
X183985*
Y492957*
X181780*
X182205D02*
Y492996D01*
X183150Y492957D02*
Y492996D01*
X181780Y490988D02*
Y491027D01*
X183985*
Y490988*
X181780*
X182205D02*
Y491027D01*
X183150Y490988D02*
Y491027D01*
X181780Y489020D02*
Y489059D01*
X183985*
Y489020*
X181780*
X182205D02*
Y489059D01*
X183150Y489020D02*
Y489059D01*
X181780Y487051D02*
Y487090D01*
X183985*
Y487051*
X181780*
X182205D02*
Y487090D01*
X183150Y487051D02*
Y487090D01*
X181780Y485083D02*
Y485122D01*
X183985*
Y485083*
X181780*
X182205D02*
Y485122D01*
X183150Y485083D02*
Y485122D01*
X181780Y483114D02*
Y483153D01*
X183985*
Y483114*
X181780*
X182205D02*
Y483153D01*
X183150Y483114D02*
Y483153D01*
X181780Y481146D02*
Y481185D01*
X183985*
Y481146*
X181780*
X182205D02*
Y481185D01*
X183150Y481146D02*
Y481185D01*
X181780Y479177D02*
Y479216D01*
X183985*
Y479177*
X181780*
X182205D02*
Y479216D01*
X183150Y479177D02*
Y479216D01*
X181780Y477209D02*
Y477248D01*
X183985*
Y477209*
X181780*
X182205D02*
Y477248D01*
X183150Y477209D02*
Y477248D01*
X181780Y475240D02*
Y475279D01*
X183985*
Y475240*
X181780*
X182205D02*
Y475279D01*
X183150Y475240D02*
Y475279D01*
X181780Y473272D02*
Y473311D01*
X183985*
Y473272*
X181780*
X182205D02*
Y473311D01*
X183150Y473272D02*
Y473311D01*
X181780Y471303D02*
Y471342D01*
X183985*
Y471303*
X181780*
Y471339D02*
X183985D01*
X182205Y471303D02*
Y471342D01*
X183150Y471303D02*
Y471342D01*
X181780Y469335D02*
Y469374D01*
X183985*
Y469335*
X181780*
X182205D02*
Y469374D01*
X183150Y469335D02*
Y469374D01*
X185934Y467504D02*
X185973D01*
Y465299*
X185934*
Y467504*
Y465669D02*
X185973D01*
X185934Y466614D02*
X185973D01*
X187902Y467504D02*
X187941D01*
Y465299*
X187902*
Y467504*
Y465669D02*
X187941D01*
X187902Y466614D02*
X187941D01*
X189871Y467504D02*
X189910D01*
Y465299*
X189871*
Y467504*
Y465669D02*
X189910D01*
X189871Y466614D02*
X189910D01*
X191839Y467504D02*
X191878D01*
Y465299*
X191839*
Y467504*
Y465669D02*
X191878D01*
X191839Y466614D02*
X191878D01*
X193808Y467504D02*
X193847D01*
Y465299*
X193808*
Y467504*
Y465669D02*
X193847D01*
X193808Y466614D02*
X193847D01*
X195776Y467504D02*
X195815D01*
Y465299*
X195776*
Y467504*
Y465669D02*
X195815D01*
X195776Y466614D02*
X195815D01*
X197745Y467504D02*
X197784D01*
Y465299*
X197745*
Y467504*
Y465669D02*
X197784D01*
X197745Y466614D02*
X197784D01*
X199713Y467504D02*
X199752D01*
Y465299*
X199713*
Y467504*
Y465669D02*
X199752D01*
X199713Y466614D02*
X199752D01*
X201682Y467504D02*
X201721D01*
Y465299*
X201682*
Y467504*
Y465669D02*
X201721D01*
X201682Y466614D02*
X201721D01*
X203650Y467504D02*
X203689D01*
Y465299*
X203650*
Y467504*
Y465669D02*
X203689D01*
X203650Y466614D02*
X203689D01*
X205619Y467504D02*
X205658D01*
Y465299*
X205619*
Y467504*
Y465669D02*
X205658D01*
X205619Y466614D02*
X205658D01*
X207587Y467504D02*
X207626D01*
Y465299*
X207587*
Y467504*
Y465669D02*
X207626D01*
X207587Y466614D02*
X207626D01*
X209556Y467504D02*
X209595D01*
Y465299*
X209556*
Y467504*
Y465669D02*
X209595D01*
X209556Y466614D02*
X209595D01*
X211524Y467504D02*
X211563D01*
Y465299*
X211524*
Y467504*
Y465669D02*
X211563D01*
X211524Y466614D02*
X211563D01*
X213493Y467504D02*
X213532D01*
Y465299*
X213493*
Y467504*
Y465669D02*
X213532D01*
X213493Y466614D02*
X213532D01*
X215461Y467504D02*
X215500D01*
Y465299*
X215461*
Y467504*
Y465669D02*
X215500D01*
X215461Y466614D02*
X215500D01*
X217213Y469335D02*
Y469374D01*
X219418*
Y469335*
X217213*
X218110D02*
Y469374D01*
X219055Y469335D02*
Y469374D01*
X217213Y471303D02*
Y471342D01*
X219418*
Y471303*
X217213*
Y471339D02*
X219418D01*
X218110Y471303D02*
Y471342D01*
X219055Y471303D02*
Y471342D01*
X217213Y473272D02*
Y473311D01*
X219418*
Y473272*
X217213*
X218110D02*
Y473311D01*
X219055Y473272D02*
Y473311D01*
X217213Y475240D02*
Y475279D01*
X219418*
Y475240*
X217213*
X218110D02*
Y475279D01*
X219055Y475240D02*
Y475279D01*
X217213Y477209D02*
Y477248D01*
X219418*
Y477209*
X217213*
X218110D02*
Y477248D01*
X219055Y477209D02*
Y477248D01*
X217213Y479177D02*
Y479216D01*
X219418*
Y479177*
X217213*
X218110D02*
Y479216D01*
X219055Y479177D02*
Y479216D01*
X217213Y481146D02*
Y481185D01*
X219418*
Y481146*
X217213*
X218110D02*
Y481185D01*
X219055Y481146D02*
Y481185D01*
X217213Y483114D02*
Y483153D01*
X219418*
Y483114*
X217213*
X218110D02*
Y483153D01*
X219055Y483114D02*
Y483153D01*
X217213Y485083D02*
Y485122D01*
X219418*
Y485083*
X217213*
X218110D02*
Y485122D01*
X219055Y485083D02*
Y485122D01*
X217213Y487051D02*
Y487090D01*
X219418*
Y487051*
X217213*
X218110D02*
Y487090D01*
X219055Y487051D02*
Y487090D01*
X217213Y489020D02*
Y489059D01*
X219418*
Y489020*
X217213*
X218110D02*
Y489059D01*
X219055Y489020D02*
Y489059D01*
X217213Y490988D02*
Y491027D01*
X219418*
Y490988*
X217213*
X218110D02*
Y491027D01*
X219055Y490988D02*
Y491027D01*
X217213Y492957D02*
Y492996D01*
X219418*
Y492957*
X217213*
X218110D02*
Y492996D01*
X219055Y492957D02*
Y492996D01*
X217213Y494925D02*
Y494964D01*
X219418*
Y494925*
X217213*
Y494961D02*
X219418D01*
X218110Y494925D02*
Y494964D01*
X219055Y494925D02*
Y494964D01*
X217213Y496894D02*
Y496933D01*
X219418*
Y496894*
X217213*
X218110D02*
Y496933D01*
X219055Y496894D02*
Y496933D01*
X217213Y498862D02*
Y498901D01*
X219418*
Y498862*
X217213*
X218110D02*
Y498901D01*
X219055Y498862D02*
Y498901D01*
G54D53*
X200599Y484118D03*
G54D54*
X198138Y513677D03*
Y511118D03*
Y508559D03*
X203059D03*
Y511118D03*
Y513677D03*
G54D55*
X148151D03*
X112718D03*
G54D58*
X192753Y507677D03*
X187753D03*
G54D59*
X319268Y135000D03*
X352732D03*
G54D61*
X311870Y167000D03*
Y162000D03*
Y157000D03*
Y152000D03*
X333130D03*
Y157000D03*
Y162000D03*
Y167000D03*
X311370Y320000D03*
Y315000D03*
Y310000D03*
Y305000D03*
X332630D03*
Y310000D03*
Y315000D03*
Y320000D03*
G54D64*
X350950Y370800D03*
Y378200D03*
X343050Y374500D03*
X350950Y217300D03*
Y224700D03*
X343050Y221000D03*
G54D65*
X131000Y315000D03*
X111000D03*
G54D66*
X177073Y331906D03*
Y326000D03*
Y320094D03*
G54D67*
X193874Y326000D03*
G54D70*
X129600Y336000D03*
X112400D03*
G54D71*
X187504Y530972D03*
Y540028D03*
G54D72*
X200496Y535500D03*
G54D73*
X135500Y364370D03*
X140500D03*
X145500D03*
X150500D03*
Y385630D03*
X145500D03*
X140500D03*
X135500D03*
X348000Y351130D03*
X343000D03*
X338000D03*
X333000D03*
Y329870D03*
X338000D03*
X343000D03*
X348000D03*
G54D74*
X241331Y483650D03*
X232669D03*
Y477350D03*
X241331D03*
G54D75*
X164417Y316945D03*
Y326000D03*
Y335055D03*
G54D76*
X141583Y326000D03*
G54D78*
X150723Y454774D03*
X137223D03*
G54D116*
X331736Y418346D03*
X333705D03*
X335673D03*
X337642D03*
X339610D03*
X341579D03*
X343547D03*
X345516D03*
X347484D03*
X349453D03*
X351421D03*
X353390D03*
X355358D03*
X357327D03*
X359295D03*
X361264D03*
Y461654D03*
X359295D03*
X357327D03*
X355358D03*
X353390D03*
X351421D03*
X349453D03*
X347484D03*
X345516D03*
X343547D03*
X341579D03*
X339610D03*
X337642D03*
X335673D03*
X333705D03*
X331736D03*
G54D117*
X368154Y425236D03*
Y427205D03*
Y429173D03*
Y431142D03*
Y433110D03*
Y435079D03*
Y437047D03*
Y439016D03*
Y440984D03*
Y442953D03*
Y444921D03*
Y446890D03*
Y448858D03*
Y450827D03*
Y452795D03*
Y454764D03*
X324846D03*
Y452795D03*
Y450827D03*
Y448858D03*
Y446890D03*
Y444921D03*
Y442953D03*
Y440984D03*
Y439016D03*
Y437047D03*
Y435079D03*
Y433110D03*
Y431142D03*
Y429173D03*
Y427205D03*
Y425236D03*
G54D121*
X309000Y379750D03*
Y405250D03*
X309500Y226750D03*
Y252250D03*
G54D122*
X198500Y291500D03*
Y295500D03*
X313500Y355500D03*
X317500D03*
X314000Y203000D03*
X318000D03*
X0Y0D02*
M02*
